%TF.GenerationSoftware,KiCad,Pcbnew,10.0.0*%
%TF.CreationDate,2026-07-18T13:15:41-04:00*%
%TF.ProjectId,TyphoonMotherboard_rev1 KiCad,54797068-6f6f-46e4-9d6f-74686572626f,rev?*%
%TF.SameCoordinates,Original*%
%TF.FileFunction,Paste,Top*%
%TF.FilePolarity,Positive*%
%FSLAX46Y46*%
G04 Gerber Fmt 4.6, Leading zero omitted, Abs format (unit mm)*
G04 Created by KiCad (PCBNEW 10.0.0) date 2026-07-18 13:15:41*
%MOMM*%
%LPD*%
G01*
G04 APERTURE LIST*
G04 Aperture macros list*
%AMRoundRect*
0 Rectangle with rounded corners*
0 $1 Rounding radius*
0 $2 $3 $4 $5 $6 $7 $8 $9 X,Y pos of 4 corners*
0 Add a 4 corners polygon primitive as box body*
4,1,4,$2,$3,$4,$5,$6,$7,$8,$9,$2,$3,0*
0 Add four circle primitives for the rounded corners*
1,1,$1+$1,$2,$3*
1,1,$1+$1,$4,$5*
1,1,$1+$1,$6,$7*
1,1,$1+$1,$8,$9*
0 Add four rect primitives between the rounded corners*
20,1,$1+$1,$2,$3,$4,$5,0*
20,1,$1+$1,$4,$5,$6,$7,0*
20,1,$1+$1,$6,$7,$8,$9,0*
20,1,$1+$1,$8,$9,$2,$3,0*%
G04 Aperture macros list end*
%ADD10RoundRect,0.225000X0.250000X-0.225000X0.250000X0.225000X-0.250000X0.225000X-0.250000X-0.225000X0*%
%ADD11RoundRect,0.200000X-0.275000X0.200000X-0.275000X-0.200000X0.275000X-0.200000X0.275000X0.200000X0*%
%ADD12RoundRect,0.150000X-0.825000X-0.150000X0.825000X-0.150000X0.825000X0.150000X-0.825000X0.150000X0*%
%ADD13RoundRect,0.182500X0.182500X0.182500X-0.182500X0.182500X-0.182500X-0.182500X0.182500X-0.182500X0*%
%ADD14RoundRect,0.062500X0.350000X0.062500X-0.350000X0.062500X-0.350000X-0.062500X0.350000X-0.062500X0*%
%ADD15RoundRect,0.062500X0.062500X0.350000X-0.062500X0.350000X-0.062500X-0.350000X0.062500X-0.350000X0*%
%ADD16RoundRect,0.200000X0.200000X0.275000X-0.200000X0.275000X-0.200000X-0.275000X0.200000X-0.275000X0*%
%ADD17R,0.900000X0.900000*%
%ADD18R,1.500000X0.900000*%
%ADD19R,0.900000X1.500000*%
%ADD20RoundRect,0.243750X-0.243750X-0.456250X0.243750X-0.456250X0.243750X0.456250X-0.243750X0.456250X0*%
%ADD21RoundRect,0.150000X-0.512500X-0.150000X0.512500X-0.150000X0.512500X0.150000X-0.512500X0.150000X0*%
%ADD22RoundRect,0.250000X0.662913X0.220971X0.220971X0.662913X-0.662913X-0.220971X-0.220971X-0.662913X0*%
%ADD23RoundRect,0.243750X0.456250X-0.243750X0.456250X0.243750X-0.456250X0.243750X-0.456250X-0.243750X0*%
%ADD24RoundRect,0.200000X0.275000X-0.200000X0.275000X0.200000X-0.275000X0.200000X-0.275000X-0.200000X0*%
%ADD25RoundRect,0.218750X-0.218750X-0.381250X0.218750X-0.381250X0.218750X0.381250X-0.218750X0.381250X0*%
%ADD26R,0.952500X0.558800*%
%ADD27RoundRect,0.225000X0.225000X0.250000X-0.225000X0.250000X-0.225000X-0.250000X0.225000X-0.250000X0*%
%ADD28RoundRect,0.225000X-0.250000X0.225000X-0.250000X-0.225000X0.250000X-0.225000X0.250000X0.225000X0*%
%ADD29RoundRect,0.250000X-0.312500X-0.625000X0.312500X-0.625000X0.312500X0.625000X-0.312500X0.625000X0*%
%ADD30RoundRect,0.200000X-0.200000X-0.275000X0.200000X-0.275000X0.200000X0.275000X-0.200000X0.275000X0*%
%ADD31RoundRect,0.250000X0.625000X-0.312500X0.625000X0.312500X-0.625000X0.312500X-0.625000X-0.312500X0*%
%ADD32RoundRect,0.225000X-0.225000X-0.250000X0.225000X-0.250000X0.225000X0.250000X-0.225000X0.250000X0*%
%ADD33RoundRect,0.375000X0.625000X0.375000X-0.625000X0.375000X-0.625000X-0.375000X0.625000X-0.375000X0*%
%ADD34RoundRect,0.500000X0.500000X1.400000X-0.500000X1.400000X-0.500000X-1.400000X0.500000X-1.400000X0*%
%ADD35RoundRect,0.250000X-0.750000X0.250000X-0.750000X-0.250000X0.750000X-0.250000X0.750000X0.250000X0*%
%ADD36RoundRect,0.130000X-0.370000X0.130000X-0.370000X-0.130000X0.370000X-0.130000X0.370000X0.130000X0*%
%ADD37RoundRect,0.067500X-0.432500X0.067500X-0.432500X-0.067500X0.432500X-0.067500X0.432500X0.067500X0*%
G04 APERTURE END LIST*
D10*
%TO.C,C5*%
X83950000Y-74475000D03*
X83950000Y-72925000D03*
%TD*%
D11*
%TO.C,R15*%
X115100000Y-74115000D03*
X115100000Y-75765000D03*
%TD*%
D12*
%TO.C,U3*%
X107180000Y-75595000D03*
X107180000Y-76865000D03*
X107180000Y-78135000D03*
X107180000Y-79405000D03*
X112130000Y-79405000D03*
X112130000Y-78135000D03*
X112130000Y-76865000D03*
X112130000Y-75595000D03*
%TD*%
D13*
%TO.C,U6*%
X110815000Y-92175000D03*
X110815000Y-91335000D03*
X109975000Y-92175000D03*
X109975000Y-91335000D03*
D14*
X111857500Y-92505000D03*
X111857500Y-92005000D03*
X111857500Y-91505000D03*
X111857500Y-91005000D03*
D15*
X111145000Y-90292500D03*
X110645000Y-90292500D03*
X110145000Y-90292500D03*
X109645000Y-90292500D03*
D14*
X108932500Y-91005000D03*
X108932500Y-91505000D03*
X108932500Y-92005000D03*
X108932500Y-92505000D03*
D15*
X109645000Y-93217500D03*
X110145000Y-93217500D03*
X110645000Y-93217500D03*
X111145000Y-93217500D03*
%TD*%
D16*
%TO.C,R13*%
X71625000Y-77900000D03*
X69975000Y-77900000D03*
%TD*%
D10*
%TO.C,C4*%
X80425000Y-74475000D03*
X80425000Y-72925000D03*
%TD*%
D17*
%TO.C,U2*%
X91800000Y-79300000D03*
X91800000Y-80700000D03*
X91800000Y-82100000D03*
X93200000Y-79300000D03*
X93200000Y-80700000D03*
X93200000Y-82100000D03*
X94600000Y-79300000D03*
X94600000Y-80700000D03*
X94600000Y-82100000D03*
D18*
X85950000Y-72980000D03*
X85950000Y-74250000D03*
X85950000Y-75520000D03*
X85950000Y-76790000D03*
X85950000Y-78060000D03*
X85950000Y-79330000D03*
X85950000Y-80600000D03*
X85950000Y-81870000D03*
X85950000Y-83140000D03*
X85950000Y-84410000D03*
X85950000Y-85680000D03*
X85950000Y-86950000D03*
X85950000Y-88220000D03*
X85950000Y-89490000D03*
D19*
X87715000Y-90740000D03*
X88985000Y-90740000D03*
X90255000Y-90740000D03*
X91525000Y-90740000D03*
X92795000Y-90740000D03*
X94065000Y-90740000D03*
X95335000Y-90740000D03*
X96605000Y-90740000D03*
X97875000Y-90740000D03*
X99145000Y-90740000D03*
X100415000Y-90740000D03*
X101685000Y-90740000D03*
D18*
X103450000Y-89490000D03*
X103450000Y-88220000D03*
X103450000Y-86950000D03*
X103450000Y-85680000D03*
X103450000Y-84410000D03*
X103450000Y-83140000D03*
X103450000Y-81870000D03*
X103450000Y-80600000D03*
X103450000Y-79330000D03*
X103450000Y-78060000D03*
X103450000Y-76790000D03*
X103450000Y-75520000D03*
X103450000Y-74250000D03*
X103450000Y-72980000D03*
%TD*%
D10*
%TO.C,C12*%
X84270000Y-97125000D03*
X84270000Y-95575000D03*
%TD*%
D20*
%TO.C,D3*%
X75262500Y-77500000D03*
X77137500Y-77500000D03*
%TD*%
D10*
%TO.C,C11*%
X106425000Y-94100000D03*
X106425000Y-92550000D03*
%TD*%
D21*
%TO.C,U1*%
X77187500Y-83762500D03*
X77187500Y-84712500D03*
X77187500Y-85662500D03*
X79462500Y-85662500D03*
X79462500Y-84712500D03*
X79462500Y-83762500D03*
%TD*%
D10*
%TO.C,C2*%
X82200000Y-74475000D03*
X82200000Y-72925000D03*
%TD*%
D22*
%TO.C,R20*%
X77234144Y-89074144D03*
X75165856Y-87005856D03*
%TD*%
D10*
%TO.C,C1*%
X104750000Y-94100000D03*
X104750000Y-92550000D03*
%TD*%
D23*
%TO.C,D10*%
X71075000Y-75462500D03*
X71075000Y-73587500D03*
%TD*%
D24*
%TO.C,R14*%
X116320000Y-97145000D03*
X116320000Y-95495000D03*
%TD*%
D25*
%TO.C,L1*%
X113537500Y-92425000D03*
X115662500Y-92425000D03*
%TD*%
D26*
%TO.C,SW1*%
X124461350Y-91104200D03*
X118098650Y-91104200D03*
X124461350Y-87395800D03*
X118098650Y-87395800D03*
%TD*%
D27*
%TO.C,C15*%
X110375000Y-73950000D03*
X108825000Y-73950000D03*
%TD*%
D28*
%TO.C,C3*%
X112380000Y-94385000D03*
X112380000Y-95935000D03*
%TD*%
D29*
%TO.C,R21*%
X102837500Y-96100000D03*
X105762500Y-96100000D03*
%TD*%
D28*
%TO.C,C8*%
X84270000Y-92505000D03*
X84270000Y-94055000D03*
%TD*%
D30*
%TO.C,R1*%
X113800000Y-90700000D03*
X115450000Y-90700000D03*
%TD*%
%TO.C,R12*%
X77475000Y-81900000D03*
X79125000Y-81900000D03*
%TD*%
D16*
%TO.C,R7*%
X80825000Y-77700000D03*
X79175000Y-77700000D03*
%TD*%
D24*
%TO.C,R18*%
X71680000Y-96435000D03*
X71680000Y-94785000D03*
%TD*%
D11*
%TO.C,R22*%
X73680000Y-90525000D03*
X73680000Y-92175000D03*
%TD*%
D26*
%TO.C,SW2*%
X124541350Y-97344200D03*
X118178650Y-97344200D03*
X124541350Y-93635800D03*
X118178650Y-93635800D03*
%TD*%
D31*
%TO.C,R23*%
X97425000Y-96037500D03*
X97425000Y-93112500D03*
%TD*%
D32*
%TO.C,C9*%
X105725000Y-90300000D03*
X107275000Y-90300000D03*
%TD*%
D24*
%TO.C,R17*%
X71640000Y-93285000D03*
X71640000Y-91635000D03*
%TD*%
D11*
%TO.C,R5*%
X116810000Y-75875000D03*
X116810000Y-77525000D03*
%TD*%
D33*
%TO.C,U4*%
X82120000Y-96442500D03*
X82120000Y-94142500D03*
D34*
X75820000Y-94142500D03*
D33*
X82120000Y-91842500D03*
%TD*%
D29*
%TO.C,R19*%
X88197500Y-94200000D03*
X91122500Y-94200000D03*
%TD*%
D35*
%TO.C,J10*%
X66935000Y-83150000D03*
X66935000Y-85950000D03*
D36*
X71135000Y-81450000D03*
X71135000Y-82200000D03*
D37*
X71135000Y-82800000D03*
X71135000Y-84300000D03*
X71135000Y-85300000D03*
X71135000Y-86300000D03*
D36*
X71135000Y-86900000D03*
X71135000Y-87650000D03*
X71135000Y-87650000D03*
X71135000Y-86900000D03*
D37*
X71135000Y-85800000D03*
X71135000Y-84800000D03*
X71135000Y-83800000D03*
X71135000Y-83300000D03*
D36*
X71135000Y-82200000D03*
X71135000Y-81450000D03*
%TD*%
M02*
