%TF.GenerationSoftware,KiCad,Pcbnew,10.0.0*%
%TF.CreationDate,2026-07-18T13:15:41-04:00*%
%TF.ProjectId,TyphoonMotherboard_rev1 KiCad,54797068-6f6f-46e4-9d6f-74686572626f,rev?*%
%TF.SameCoordinates,Original*%
%TF.FileFunction,Soldermask,Bot*%
%TF.FilePolarity,Negative*%
%FSLAX46Y46*%
G04 Gerber Fmt 4.6, Leading zero omitted, Abs format (unit mm)*
G04 Created by KiCad (PCBNEW 10.0.0) date 2026-07-18 13:15:41*
%MOMM*%
%LPD*%
G01*
G04 APERTURE LIST*
G04 Aperture macros list*
%AMRoundRect*
0 Rectangle with rounded corners*
0 $1 Rounding radius*
0 $2 $3 $4 $5 $6 $7 $8 $9 X,Y pos of 4 corners*
0 Add a 4 corners polygon primitive as box body*
4,1,4,$2,$3,$4,$5,$6,$7,$8,$9,$2,$3,0*
0 Add four circle primitives for the rounded corners*
1,1,$1+$1,$2,$3*
1,1,$1+$1,$4,$5*
1,1,$1+$1,$6,$7*
1,1,$1+$1,$8,$9*
0 Add four rect primitives between the rounded corners*
20,1,$1+$1,$2,$3,$4,$5,0*
20,1,$1+$1,$4,$5,$6,$7,0*
20,1,$1+$1,$6,$7,$8,$9,0*
20,1,$1+$1,$8,$9,$2,$3,0*%
G04 Aperture macros list end*
%ADD10C,2.700000*%
%ADD11RoundRect,0.250000X0.600000X0.750000X-0.600000X0.750000X-0.600000X-0.750000X0.600000X-0.750000X0*%
%ADD12O,1.700000X2.000000*%
%ADD13R,1.700000X1.700000*%
%ADD14C,1.700000*%
%ADD15RoundRect,0.250000X0.725000X-0.600000X0.725000X0.600000X-0.725000X0.600000X-0.725000X-0.600000X0*%
%ADD16O,1.950000X1.700000*%
%ADD17RoundRect,0.250000X0.600000X0.725000X-0.600000X0.725000X-0.600000X-0.725000X0.600000X-0.725000X0*%
%ADD18O,1.700000X1.950000*%
%ADD19C,0.600000*%
%ADD20O,0.600000X0.850000*%
%ADD21O,2.300000X1.300000*%
%ADD22O,2.600000X1.300000*%
G04 APERTURE END LIST*
D10*
%TO.C,H2*%
X14300000Y-15100000D03*
%TD*%
D11*
%TO.C,J5*%
X98390000Y-101945000D03*
D12*
X95890000Y-101945000D03*
%TD*%
D10*
%TO.C,H3*%
X18400000Y-20100000D03*
%TD*%
D11*
%TO.C,J11*%
X106930000Y-101930000D03*
D12*
X104430000Y-101930000D03*
%TD*%
D10*
%TO.C,H1*%
X66200000Y-74790000D03*
%TD*%
D13*
%TO.C,J8*%
X76790000Y-74375000D03*
D14*
X74250000Y-74375000D03*
%TD*%
D15*
%TO.C,J4*%
X66875000Y-101225000D03*
D16*
X66875000Y-98725000D03*
X66875000Y-96225000D03*
X66875000Y-93725000D03*
%TD*%
D15*
%TO.C,J7*%
X120860000Y-82940000D03*
D16*
X120860000Y-80440000D03*
X120860000Y-77940000D03*
X120860000Y-75440000D03*
%TD*%
D17*
%TO.C,J2*%
X81320000Y-101940000D03*
D18*
X78820000Y-101940000D03*
X76320000Y-101940000D03*
X73820000Y-101940000D03*
%TD*%
D11*
%TO.C,J9*%
X89850000Y-101950000D03*
D12*
X87350000Y-101950000D03*
%TD*%
D13*
%TO.C,J1*%
X114850000Y-85700000D03*
D14*
X114850000Y-83160000D03*
X112310000Y-85700000D03*
X112310000Y-83160000D03*
X109770000Y-85700000D03*
X109770000Y-83160000D03*
X107230000Y-85700000D03*
X107230000Y-83160000D03*
%TD*%
D10*
%TO.C,H4*%
X122470000Y-102560000D03*
%TD*%
D11*
%TO.C,J6*%
X115460000Y-101930000D03*
D12*
X112960000Y-101930000D03*
%TD*%
D19*
%TO.C,J10*%
X70035000Y-81550000D03*
D20*
X70035000Y-87550000D03*
D21*
X70760000Y-80230000D03*
D22*
X66935000Y-80230000D03*
D21*
X70760000Y-88870000D03*
D22*
X66935000Y-88870000D03*
%TD*%
M02*
