M48
; DRILL file KiCad 10.0.0 date 2026-07-18T13:15:42
; FORMAT={-:-/ absolute / metric / decimal}
; #@! TF.CreationDate,2026-07-18T13:15:42-04:00
; #@! TF.GenerationSoftware,Kicad,Pcbnew,10.0.0
; #@! TF.FileFunction,Plated,1,2,PTH
FMAT,2
METRIC
; #@! TA.AperFunction,Plated,PTH,ComponentDrill
T1C0.200
; #@! TA.AperFunction,Plated,PTH,ViaDrill
T2C0.300
; #@! TA.AperFunction,Plated,PTH,ComponentDrill
T3C0.600
; #@! TA.AperFunction,Plated,PTH,ComponentDrill
T4C0.950
; #@! TA.AperFunction,Plated,PTH,ComponentDrill
T5C1.000
%
G90
G05
T1
X91.8Y-80.0
X91.8Y-81.4
X92.5Y-79.3
X92.5Y-80.7
X92.5Y-82.1
X93.2Y-80.0
X93.2Y-81.4
X93.9Y-79.3
X93.9Y-80.7
X93.9Y-82.1
X94.6Y-80.0
X94.6Y-81.4
X109.805Y-91.165
X109.805Y-92.345
X110.985Y-91.165
X110.985Y-92.345
T2
X68.65Y-78.275
X72.15Y-85.25
X72.65Y-80.5
X72.66Y-88.54
X72.725Y-82.8
X72.94Y-93.2
X73.025Y-96.08
X73.6Y-77.5
X73.725Y-85.65
X73.81Y-96.75
X74.89Y-91.37
X74.97Y-97.17
X75.75Y-83.8
X75.775Y-85.65
X75.92Y-84.712
X76.3Y-81.875
X76.32Y-97.19
X79.1Y-72.95
X80.35Y-81.9
X84.5Y-79.35
X84.5Y-84.425
X84.55Y-80.625
X84.55Y-85.675
X87.875Y-75.5
X92.2Y-94.7
X101.375Y-72.975
X101.375Y-88.525
X102.0Y-92.6
X103.02Y-91.04
X103.175Y-94.1
X104.4Y-90.9
X105.062Y-85.438
X105.1Y-82.9
X108.72Y-93.39
X108.8Y-89.525
X109.455Y-76.9
X109.75Y-89.35
X110.9Y-89.35
X111.0Y-95.05
X111.95Y-89.5
X113.85Y-74.09
X122.32Y-94.56
X123.18Y-97.33
X123.24Y-91.1
T4
X66.875Y-93.725
X66.875Y-96.225
X66.875Y-98.725
X66.875Y-101.225
X73.82Y-101.94
X76.32Y-101.94
X78.82Y-101.94
X81.32Y-101.94
X120.86Y-75.44
X120.86Y-77.94
X120.86Y-80.44
X120.86Y-82.94
T5
X74.25Y-74.375
X76.79Y-74.375
X87.35Y-101.95
X89.85Y-101.95
X95.89Y-101.945
X98.39Y-101.945
X104.43Y-101.93
X106.93Y-101.93
X107.23Y-83.16
X107.23Y-85.7
X109.77Y-83.16
X109.77Y-85.7
X112.31Y-83.16
X112.31Y-85.7
X112.96Y-101.93
X114.85Y-83.16
X114.85Y-85.7
X115.46Y-101.93
T3
G00X67.585Y-80.23
M15
G01X66.285Y-80.23
M16
G05
G00X67.585Y-88.87
M15
G01X66.285Y-88.87
M16
G05
G00X71.26Y-80.23
M15
G01X70.26Y-80.23
M16
G05
G00X71.26Y-88.87
M15
G01X70.26Y-88.87
M16
G05
M30
