%TF.GenerationSoftware,KiCad,Pcbnew,10.0.0*%
%TF.CreationDate,2026-07-18T13:15:41-04:00*%
%TF.ProjectId,TyphoonMotherboard_rev1 KiCad,54797068-6f6f-46e4-9d6f-74686572626f,rev?*%
%TF.SameCoordinates,Original*%
%TF.FileFunction,Legend,Top*%
%TF.FilePolarity,Positive*%
%FSLAX46Y46*%
G04 Gerber Fmt 4.6, Leading zero omitted, Abs format (unit mm)*
G04 Created by KiCad (PCBNEW 10.0.0) date 2026-07-18 13:15:41*
%MOMM*%
%LPD*%
G01*
G04 APERTURE LIST*
%ADD10C,0.150000*%
%ADD11C,0.120000*%
%ADD12C,0.152400*%
G04 APERTURE END LIST*
D10*
X13538095Y-11904819D02*
X13538095Y-10904819D01*
X13538095Y-11381009D02*
X14109523Y-11381009D01*
X14109523Y-11904819D02*
X14109523Y-10904819D01*
X14538095Y-11000057D02*
X14585714Y-10952438D01*
X14585714Y-10952438D02*
X14680952Y-10904819D01*
X14680952Y-10904819D02*
X14919047Y-10904819D01*
X14919047Y-10904819D02*
X15014285Y-10952438D01*
X15014285Y-10952438D02*
X15061904Y-11000057D01*
X15061904Y-11000057D02*
X15109523Y-11095295D01*
X15109523Y-11095295D02*
X15109523Y-11190533D01*
X15109523Y-11190533D02*
X15061904Y-11333390D01*
X15061904Y-11333390D02*
X14490476Y-11904819D01*
X14490476Y-11904819D02*
X15109523Y-11904819D01*
X83783333Y-76284580D02*
X83735714Y-76332200D01*
X83735714Y-76332200D02*
X83592857Y-76379819D01*
X83592857Y-76379819D02*
X83497619Y-76379819D01*
X83497619Y-76379819D02*
X83354762Y-76332200D01*
X83354762Y-76332200D02*
X83259524Y-76236961D01*
X83259524Y-76236961D02*
X83211905Y-76141723D01*
X83211905Y-76141723D02*
X83164286Y-75951247D01*
X83164286Y-75951247D02*
X83164286Y-75808390D01*
X83164286Y-75808390D02*
X83211905Y-75617914D01*
X83211905Y-75617914D02*
X83259524Y-75522676D01*
X83259524Y-75522676D02*
X83354762Y-75427438D01*
X83354762Y-75427438D02*
X83497619Y-75379819D01*
X83497619Y-75379819D02*
X83592857Y-75379819D01*
X83592857Y-75379819D02*
X83735714Y-75427438D01*
X83735714Y-75427438D02*
X83783333Y-75475057D01*
X84688095Y-75379819D02*
X84211905Y-75379819D01*
X84211905Y-75379819D02*
X84164286Y-75856009D01*
X84164286Y-75856009D02*
X84211905Y-75808390D01*
X84211905Y-75808390D02*
X84307143Y-75760771D01*
X84307143Y-75760771D02*
X84545238Y-75760771D01*
X84545238Y-75760771D02*
X84640476Y-75808390D01*
X84640476Y-75808390D02*
X84688095Y-75856009D01*
X84688095Y-75856009D02*
X84735714Y-75951247D01*
X84735714Y-75951247D02*
X84735714Y-76189342D01*
X84735714Y-76189342D02*
X84688095Y-76284580D01*
X84688095Y-76284580D02*
X84640476Y-76332200D01*
X84640476Y-76332200D02*
X84545238Y-76379819D01*
X84545238Y-76379819D02*
X84307143Y-76379819D01*
X84307143Y-76379819D02*
X84211905Y-76332200D01*
X84211905Y-76332200D02*
X84164286Y-76284580D01*
X115597142Y-79344819D02*
X115263809Y-78868628D01*
X115025714Y-79344819D02*
X115025714Y-78344819D01*
X115025714Y-78344819D02*
X115406666Y-78344819D01*
X115406666Y-78344819D02*
X115501904Y-78392438D01*
X115501904Y-78392438D02*
X115549523Y-78440057D01*
X115549523Y-78440057D02*
X115597142Y-78535295D01*
X115597142Y-78535295D02*
X115597142Y-78678152D01*
X115597142Y-78678152D02*
X115549523Y-78773390D01*
X115549523Y-78773390D02*
X115501904Y-78821009D01*
X115501904Y-78821009D02*
X115406666Y-78868628D01*
X115406666Y-78868628D02*
X115025714Y-78868628D01*
X116549523Y-79344819D02*
X115978095Y-79344819D01*
X116263809Y-79344819D02*
X116263809Y-78344819D01*
X116263809Y-78344819D02*
X116168571Y-78487676D01*
X116168571Y-78487676D02*
X116073333Y-78582914D01*
X116073333Y-78582914D02*
X115978095Y-78630533D01*
X117454285Y-78344819D02*
X116978095Y-78344819D01*
X116978095Y-78344819D02*
X116930476Y-78821009D01*
X116930476Y-78821009D02*
X116978095Y-78773390D01*
X116978095Y-78773390D02*
X117073333Y-78725771D01*
X117073333Y-78725771D02*
X117311428Y-78725771D01*
X117311428Y-78725771D02*
X117406666Y-78773390D01*
X117406666Y-78773390D02*
X117454285Y-78821009D01*
X117454285Y-78821009D02*
X117501904Y-78916247D01*
X117501904Y-78916247D02*
X117501904Y-79154342D01*
X117501904Y-79154342D02*
X117454285Y-79249580D01*
X117454285Y-79249580D02*
X117406666Y-79297200D01*
X117406666Y-79297200D02*
X117311428Y-79344819D01*
X117311428Y-79344819D02*
X117073333Y-79344819D01*
X117073333Y-79344819D02*
X116978095Y-79297200D01*
X116978095Y-79297200D02*
X116930476Y-79249580D01*
X108888095Y-75404819D02*
X108888095Y-76214342D01*
X108888095Y-76214342D02*
X108935714Y-76309580D01*
X108935714Y-76309580D02*
X108983333Y-76357200D01*
X108983333Y-76357200D02*
X109078571Y-76404819D01*
X109078571Y-76404819D02*
X109269047Y-76404819D01*
X109269047Y-76404819D02*
X109364285Y-76357200D01*
X109364285Y-76357200D02*
X109411904Y-76309580D01*
X109411904Y-76309580D02*
X109459523Y-76214342D01*
X109459523Y-76214342D02*
X109459523Y-75404819D01*
X109840476Y-75404819D02*
X110459523Y-75404819D01*
X110459523Y-75404819D02*
X110126190Y-75785771D01*
X110126190Y-75785771D02*
X110269047Y-75785771D01*
X110269047Y-75785771D02*
X110364285Y-75833390D01*
X110364285Y-75833390D02*
X110411904Y-75881009D01*
X110411904Y-75881009D02*
X110459523Y-75976247D01*
X110459523Y-75976247D02*
X110459523Y-76214342D01*
X110459523Y-76214342D02*
X110411904Y-76309580D01*
X110411904Y-76309580D02*
X110364285Y-76357200D01*
X110364285Y-76357200D02*
X110269047Y-76404819D01*
X110269047Y-76404819D02*
X109983333Y-76404819D01*
X109983333Y-76404819D02*
X109888095Y-76357200D01*
X109888095Y-76357200D02*
X109840476Y-76309580D01*
X67282142Y-78829819D02*
X66948809Y-78353628D01*
X66710714Y-78829819D02*
X66710714Y-77829819D01*
X66710714Y-77829819D02*
X67091666Y-77829819D01*
X67091666Y-77829819D02*
X67186904Y-77877438D01*
X67186904Y-77877438D02*
X67234523Y-77925057D01*
X67234523Y-77925057D02*
X67282142Y-78020295D01*
X67282142Y-78020295D02*
X67282142Y-78163152D01*
X67282142Y-78163152D02*
X67234523Y-78258390D01*
X67234523Y-78258390D02*
X67186904Y-78306009D01*
X67186904Y-78306009D02*
X67091666Y-78353628D01*
X67091666Y-78353628D02*
X66710714Y-78353628D01*
X68234523Y-78829819D02*
X67663095Y-78829819D01*
X67948809Y-78829819D02*
X67948809Y-77829819D01*
X67948809Y-77829819D02*
X67853571Y-77972676D01*
X67853571Y-77972676D02*
X67758333Y-78067914D01*
X67758333Y-78067914D02*
X67663095Y-78115533D01*
X68567857Y-77829819D02*
X69186904Y-77829819D01*
X69186904Y-77829819D02*
X68853571Y-78210771D01*
X68853571Y-78210771D02*
X68996428Y-78210771D01*
X68996428Y-78210771D02*
X69091666Y-78258390D01*
X69091666Y-78258390D02*
X69139285Y-78306009D01*
X69139285Y-78306009D02*
X69186904Y-78401247D01*
X69186904Y-78401247D02*
X69186904Y-78639342D01*
X69186904Y-78639342D02*
X69139285Y-78734580D01*
X69139285Y-78734580D02*
X69091666Y-78782200D01*
X69091666Y-78782200D02*
X68996428Y-78829819D01*
X68996428Y-78829819D02*
X68710714Y-78829819D01*
X68710714Y-78829819D02*
X68615476Y-78782200D01*
X68615476Y-78782200D02*
X68567857Y-78734580D01*
X80058333Y-76284580D02*
X80010714Y-76332200D01*
X80010714Y-76332200D02*
X79867857Y-76379819D01*
X79867857Y-76379819D02*
X79772619Y-76379819D01*
X79772619Y-76379819D02*
X79629762Y-76332200D01*
X79629762Y-76332200D02*
X79534524Y-76236961D01*
X79534524Y-76236961D02*
X79486905Y-76141723D01*
X79486905Y-76141723D02*
X79439286Y-75951247D01*
X79439286Y-75951247D02*
X79439286Y-75808390D01*
X79439286Y-75808390D02*
X79486905Y-75617914D01*
X79486905Y-75617914D02*
X79534524Y-75522676D01*
X79534524Y-75522676D02*
X79629762Y-75427438D01*
X79629762Y-75427438D02*
X79772619Y-75379819D01*
X79772619Y-75379819D02*
X79867857Y-75379819D01*
X79867857Y-75379819D02*
X80010714Y-75427438D01*
X80010714Y-75427438D02*
X80058333Y-75475057D01*
X80915476Y-75713152D02*
X80915476Y-76379819D01*
X80677381Y-75332200D02*
X80439286Y-76046485D01*
X80439286Y-76046485D02*
X81058333Y-76046485D01*
X93913095Y-75904819D02*
X93913095Y-76714342D01*
X93913095Y-76714342D02*
X93960714Y-76809580D01*
X93960714Y-76809580D02*
X94008333Y-76857200D01*
X94008333Y-76857200D02*
X94103571Y-76904819D01*
X94103571Y-76904819D02*
X94294047Y-76904819D01*
X94294047Y-76904819D02*
X94389285Y-76857200D01*
X94389285Y-76857200D02*
X94436904Y-76809580D01*
X94436904Y-76809580D02*
X94484523Y-76714342D01*
X94484523Y-76714342D02*
X94484523Y-75904819D01*
X94913095Y-76000057D02*
X94960714Y-75952438D01*
X94960714Y-75952438D02*
X95055952Y-75904819D01*
X95055952Y-75904819D02*
X95294047Y-75904819D01*
X95294047Y-75904819D02*
X95389285Y-75952438D01*
X95389285Y-75952438D02*
X95436904Y-76000057D01*
X95436904Y-76000057D02*
X95484523Y-76095295D01*
X95484523Y-76095295D02*
X95484523Y-76190533D01*
X95484523Y-76190533D02*
X95436904Y-76333390D01*
X95436904Y-76333390D02*
X94865476Y-76904819D01*
X94865476Y-76904819D02*
X95484523Y-76904819D01*
X86179580Y-97022857D02*
X86227200Y-97070476D01*
X86227200Y-97070476D02*
X86274819Y-97213333D01*
X86274819Y-97213333D02*
X86274819Y-97308571D01*
X86274819Y-97308571D02*
X86227200Y-97451428D01*
X86227200Y-97451428D02*
X86131961Y-97546666D01*
X86131961Y-97546666D02*
X86036723Y-97594285D01*
X86036723Y-97594285D02*
X85846247Y-97641904D01*
X85846247Y-97641904D02*
X85703390Y-97641904D01*
X85703390Y-97641904D02*
X85512914Y-97594285D01*
X85512914Y-97594285D02*
X85417676Y-97546666D01*
X85417676Y-97546666D02*
X85322438Y-97451428D01*
X85322438Y-97451428D02*
X85274819Y-97308571D01*
X85274819Y-97308571D02*
X85274819Y-97213333D01*
X85274819Y-97213333D02*
X85322438Y-97070476D01*
X85322438Y-97070476D02*
X85370057Y-97022857D01*
X86274819Y-96070476D02*
X86274819Y-96641904D01*
X86274819Y-96356190D02*
X85274819Y-96356190D01*
X85274819Y-96356190D02*
X85417676Y-96451428D01*
X85417676Y-96451428D02*
X85512914Y-96546666D01*
X85512914Y-96546666D02*
X85560533Y-96641904D01*
X85370057Y-95689523D02*
X85322438Y-95641904D01*
X85322438Y-95641904D02*
X85274819Y-95546666D01*
X85274819Y-95546666D02*
X85274819Y-95308571D01*
X85274819Y-95308571D02*
X85322438Y-95213333D01*
X85322438Y-95213333D02*
X85370057Y-95165714D01*
X85370057Y-95165714D02*
X85465295Y-95118095D01*
X85465295Y-95118095D02*
X85560533Y-95118095D01*
X85560533Y-95118095D02*
X85703390Y-95165714D01*
X85703390Y-95165714D02*
X86274819Y-95737142D01*
X86274819Y-95737142D02*
X86274819Y-95118095D01*
X72711905Y-77979819D02*
X72711905Y-76979819D01*
X72711905Y-76979819D02*
X72950000Y-76979819D01*
X72950000Y-76979819D02*
X73092857Y-77027438D01*
X73092857Y-77027438D02*
X73188095Y-77122676D01*
X73188095Y-77122676D02*
X73235714Y-77217914D01*
X73235714Y-77217914D02*
X73283333Y-77408390D01*
X73283333Y-77408390D02*
X73283333Y-77551247D01*
X73283333Y-77551247D02*
X73235714Y-77741723D01*
X73235714Y-77741723D02*
X73188095Y-77836961D01*
X73188095Y-77836961D02*
X73092857Y-77932200D01*
X73092857Y-77932200D02*
X72950000Y-77979819D01*
X72950000Y-77979819D02*
X72711905Y-77979819D01*
X73616667Y-76979819D02*
X74235714Y-76979819D01*
X74235714Y-76979819D02*
X73902381Y-77360771D01*
X73902381Y-77360771D02*
X74045238Y-77360771D01*
X74045238Y-77360771D02*
X74140476Y-77408390D01*
X74140476Y-77408390D02*
X74188095Y-77456009D01*
X74188095Y-77456009D02*
X74235714Y-77551247D01*
X74235714Y-77551247D02*
X74235714Y-77789342D01*
X74235714Y-77789342D02*
X74188095Y-77884580D01*
X74188095Y-77884580D02*
X74140476Y-77932200D01*
X74140476Y-77932200D02*
X74045238Y-77979819D01*
X74045238Y-77979819D02*
X73759524Y-77979819D01*
X73759524Y-77979819D02*
X73664286Y-77932200D01*
X73664286Y-77932200D02*
X73616667Y-77884580D01*
X108007142Y-95034580D02*
X107959523Y-95082200D01*
X107959523Y-95082200D02*
X107816666Y-95129819D01*
X107816666Y-95129819D02*
X107721428Y-95129819D01*
X107721428Y-95129819D02*
X107578571Y-95082200D01*
X107578571Y-95082200D02*
X107483333Y-94986961D01*
X107483333Y-94986961D02*
X107435714Y-94891723D01*
X107435714Y-94891723D02*
X107388095Y-94701247D01*
X107388095Y-94701247D02*
X107388095Y-94558390D01*
X107388095Y-94558390D02*
X107435714Y-94367914D01*
X107435714Y-94367914D02*
X107483333Y-94272676D01*
X107483333Y-94272676D02*
X107578571Y-94177438D01*
X107578571Y-94177438D02*
X107721428Y-94129819D01*
X107721428Y-94129819D02*
X107816666Y-94129819D01*
X107816666Y-94129819D02*
X107959523Y-94177438D01*
X107959523Y-94177438D02*
X108007142Y-94225057D01*
X108959523Y-95129819D02*
X108388095Y-95129819D01*
X108673809Y-95129819D02*
X108673809Y-94129819D01*
X108673809Y-94129819D02*
X108578571Y-94272676D01*
X108578571Y-94272676D02*
X108483333Y-94367914D01*
X108483333Y-94367914D02*
X108388095Y-94415533D01*
X109911904Y-95129819D02*
X109340476Y-95129819D01*
X109626190Y-95129819D02*
X109626190Y-94129819D01*
X109626190Y-94129819D02*
X109530952Y-94272676D01*
X109530952Y-94272676D02*
X109435714Y-94367914D01*
X109435714Y-94367914D02*
X109340476Y-94415533D01*
X17638095Y-16904819D02*
X17638095Y-15904819D01*
X17638095Y-16381009D02*
X18209523Y-16381009D01*
X18209523Y-16904819D02*
X18209523Y-15904819D01*
X18590476Y-15904819D02*
X19209523Y-15904819D01*
X19209523Y-15904819D02*
X18876190Y-16285771D01*
X18876190Y-16285771D02*
X19019047Y-16285771D01*
X19019047Y-16285771D02*
X19114285Y-16333390D01*
X19114285Y-16333390D02*
X19161904Y-16381009D01*
X19161904Y-16381009D02*
X19209523Y-16476247D01*
X19209523Y-16476247D02*
X19209523Y-16714342D01*
X19209523Y-16714342D02*
X19161904Y-16809580D01*
X19161904Y-16809580D02*
X19114285Y-16857200D01*
X19114285Y-16857200D02*
X19019047Y-16904819D01*
X19019047Y-16904819D02*
X18733333Y-16904819D01*
X18733333Y-16904819D02*
X18638095Y-16857200D01*
X18638095Y-16857200D02*
X18590476Y-16809580D01*
X80463095Y-84229819D02*
X80463095Y-85039342D01*
X80463095Y-85039342D02*
X80510714Y-85134580D01*
X80510714Y-85134580D02*
X80558333Y-85182200D01*
X80558333Y-85182200D02*
X80653571Y-85229819D01*
X80653571Y-85229819D02*
X80844047Y-85229819D01*
X80844047Y-85229819D02*
X80939285Y-85182200D01*
X80939285Y-85182200D02*
X80986904Y-85134580D01*
X80986904Y-85134580D02*
X81034523Y-85039342D01*
X81034523Y-85039342D02*
X81034523Y-84229819D01*
X82034523Y-85229819D02*
X81463095Y-85229819D01*
X81748809Y-85229819D02*
X81748809Y-84229819D01*
X81748809Y-84229819D02*
X81653571Y-84372676D01*
X81653571Y-84372676D02*
X81558333Y-84467914D01*
X81558333Y-84467914D02*
X81463095Y-84515533D01*
X81908333Y-76284580D02*
X81860714Y-76332200D01*
X81860714Y-76332200D02*
X81717857Y-76379819D01*
X81717857Y-76379819D02*
X81622619Y-76379819D01*
X81622619Y-76379819D02*
X81479762Y-76332200D01*
X81479762Y-76332200D02*
X81384524Y-76236961D01*
X81384524Y-76236961D02*
X81336905Y-76141723D01*
X81336905Y-76141723D02*
X81289286Y-75951247D01*
X81289286Y-75951247D02*
X81289286Y-75808390D01*
X81289286Y-75808390D02*
X81336905Y-75617914D01*
X81336905Y-75617914D02*
X81384524Y-75522676D01*
X81384524Y-75522676D02*
X81479762Y-75427438D01*
X81479762Y-75427438D02*
X81622619Y-75379819D01*
X81622619Y-75379819D02*
X81717857Y-75379819D01*
X81717857Y-75379819D02*
X81860714Y-75427438D01*
X81860714Y-75427438D02*
X81908333Y-75475057D01*
X82289286Y-75475057D02*
X82336905Y-75427438D01*
X82336905Y-75427438D02*
X82432143Y-75379819D01*
X82432143Y-75379819D02*
X82670238Y-75379819D01*
X82670238Y-75379819D02*
X82765476Y-75427438D01*
X82765476Y-75427438D02*
X82813095Y-75475057D01*
X82813095Y-75475057D02*
X82860714Y-75570295D01*
X82860714Y-75570295D02*
X82860714Y-75665533D01*
X82860714Y-75665533D02*
X82813095Y-75808390D01*
X82813095Y-75808390D02*
X82241667Y-76379819D01*
X82241667Y-76379819D02*
X82860714Y-76379819D01*
X74033825Y-89067035D02*
X74134840Y-88494616D01*
X73629764Y-88662974D02*
X74336871Y-87955868D01*
X74336871Y-87955868D02*
X74606245Y-88225242D01*
X74606245Y-88225242D02*
X74639917Y-88326257D01*
X74639917Y-88326257D02*
X74639917Y-88393600D01*
X74639917Y-88393600D02*
X74606245Y-88494616D01*
X74606245Y-88494616D02*
X74505230Y-88595631D01*
X74505230Y-88595631D02*
X74404214Y-88629303D01*
X74404214Y-88629303D02*
X74336871Y-88629303D01*
X74336871Y-88629303D02*
X74235856Y-88595631D01*
X74235856Y-88595631D02*
X73966482Y-88326257D01*
X74942962Y-88696646D02*
X75010306Y-88696646D01*
X75010306Y-88696646D02*
X75111321Y-88730318D01*
X75111321Y-88730318D02*
X75279680Y-88898677D01*
X75279680Y-88898677D02*
X75313352Y-88999692D01*
X75313352Y-88999692D02*
X75313352Y-89067035D01*
X75313352Y-89067035D02*
X75279680Y-89168051D01*
X75279680Y-89168051D02*
X75212336Y-89235394D01*
X75212336Y-89235394D02*
X75077649Y-89302738D01*
X75077649Y-89302738D02*
X74269527Y-89302738D01*
X74269527Y-89302738D02*
X74707260Y-89740470D01*
X75852100Y-89471097D02*
X75919443Y-89538440D01*
X75919443Y-89538440D02*
X75953115Y-89639455D01*
X75953115Y-89639455D02*
X75953115Y-89706799D01*
X75953115Y-89706799D02*
X75919443Y-89807814D01*
X75919443Y-89807814D02*
X75818428Y-89976173D01*
X75818428Y-89976173D02*
X75650069Y-90144532D01*
X75650069Y-90144532D02*
X75481711Y-90245547D01*
X75481711Y-90245547D02*
X75380695Y-90279219D01*
X75380695Y-90279219D02*
X75313352Y-90279219D01*
X75313352Y-90279219D02*
X75212337Y-90245547D01*
X75212337Y-90245547D02*
X75144993Y-90178203D01*
X75144993Y-90178203D02*
X75111321Y-90077188D01*
X75111321Y-90077188D02*
X75111321Y-90009845D01*
X75111321Y-90009845D02*
X75144993Y-89908829D01*
X75144993Y-89908829D02*
X75246008Y-89740471D01*
X75246008Y-89740471D02*
X75414367Y-89572112D01*
X75414367Y-89572112D02*
X75582726Y-89471097D01*
X75582726Y-89471097D02*
X75683741Y-89437425D01*
X75683741Y-89437425D02*
X75751085Y-89437425D01*
X75751085Y-89437425D02*
X75852100Y-89471097D01*
X102958333Y-93709580D02*
X102910714Y-93757200D01*
X102910714Y-93757200D02*
X102767857Y-93804819D01*
X102767857Y-93804819D02*
X102672619Y-93804819D01*
X102672619Y-93804819D02*
X102529762Y-93757200D01*
X102529762Y-93757200D02*
X102434524Y-93661961D01*
X102434524Y-93661961D02*
X102386905Y-93566723D01*
X102386905Y-93566723D02*
X102339286Y-93376247D01*
X102339286Y-93376247D02*
X102339286Y-93233390D01*
X102339286Y-93233390D02*
X102386905Y-93042914D01*
X102386905Y-93042914D02*
X102434524Y-92947676D01*
X102434524Y-92947676D02*
X102529762Y-92852438D01*
X102529762Y-92852438D02*
X102672619Y-92804819D01*
X102672619Y-92804819D02*
X102767857Y-92804819D01*
X102767857Y-92804819D02*
X102910714Y-92852438D01*
X102910714Y-92852438D02*
X102958333Y-92900057D01*
X103910714Y-93804819D02*
X103339286Y-93804819D01*
X103625000Y-93804819D02*
X103625000Y-92804819D01*
X103625000Y-92804819D02*
X103529762Y-92947676D01*
X103529762Y-92947676D02*
X103434524Y-93042914D01*
X103434524Y-93042914D02*
X103339286Y-93090533D01*
X67585714Y-73429819D02*
X67585714Y-72429819D01*
X67585714Y-72429819D02*
X67823809Y-72429819D01*
X67823809Y-72429819D02*
X67966666Y-72477438D01*
X67966666Y-72477438D02*
X68061904Y-72572676D01*
X68061904Y-72572676D02*
X68109523Y-72667914D01*
X68109523Y-72667914D02*
X68157142Y-72858390D01*
X68157142Y-72858390D02*
X68157142Y-73001247D01*
X68157142Y-73001247D02*
X68109523Y-73191723D01*
X68109523Y-73191723D02*
X68061904Y-73286961D01*
X68061904Y-73286961D02*
X67966666Y-73382200D01*
X67966666Y-73382200D02*
X67823809Y-73429819D01*
X67823809Y-73429819D02*
X67585714Y-73429819D01*
X69109523Y-73429819D02*
X68538095Y-73429819D01*
X68823809Y-73429819D02*
X68823809Y-72429819D01*
X68823809Y-72429819D02*
X68728571Y-72572676D01*
X68728571Y-72572676D02*
X68633333Y-72667914D01*
X68633333Y-72667914D02*
X68538095Y-72715533D01*
X69728571Y-72429819D02*
X69823809Y-72429819D01*
X69823809Y-72429819D02*
X69919047Y-72477438D01*
X69919047Y-72477438D02*
X69966666Y-72525057D01*
X69966666Y-72525057D02*
X70014285Y-72620295D01*
X70014285Y-72620295D02*
X70061904Y-72810771D01*
X70061904Y-72810771D02*
X70061904Y-73048866D01*
X70061904Y-73048866D02*
X70014285Y-73239342D01*
X70014285Y-73239342D02*
X69966666Y-73334580D01*
X69966666Y-73334580D02*
X69919047Y-73382200D01*
X69919047Y-73382200D02*
X69823809Y-73429819D01*
X69823809Y-73429819D02*
X69728571Y-73429819D01*
X69728571Y-73429819D02*
X69633333Y-73382200D01*
X69633333Y-73382200D02*
X69585714Y-73334580D01*
X69585714Y-73334580D02*
X69538095Y-73239342D01*
X69538095Y-73239342D02*
X69490476Y-73048866D01*
X69490476Y-73048866D02*
X69490476Y-72810771D01*
X69490476Y-72810771D02*
X69538095Y-72620295D01*
X69538095Y-72620295D02*
X69585714Y-72525057D01*
X69585714Y-72525057D02*
X69633333Y-72477438D01*
X69633333Y-72477438D02*
X69728571Y-72429819D01*
X115434819Y-97012857D02*
X114958628Y-97346190D01*
X115434819Y-97584285D02*
X114434819Y-97584285D01*
X114434819Y-97584285D02*
X114434819Y-97203333D01*
X114434819Y-97203333D02*
X114482438Y-97108095D01*
X114482438Y-97108095D02*
X114530057Y-97060476D01*
X114530057Y-97060476D02*
X114625295Y-97012857D01*
X114625295Y-97012857D02*
X114768152Y-97012857D01*
X114768152Y-97012857D02*
X114863390Y-97060476D01*
X114863390Y-97060476D02*
X114911009Y-97108095D01*
X114911009Y-97108095D02*
X114958628Y-97203333D01*
X114958628Y-97203333D02*
X114958628Y-97584285D01*
X115434819Y-96060476D02*
X115434819Y-96631904D01*
X115434819Y-96346190D02*
X114434819Y-96346190D01*
X114434819Y-96346190D02*
X114577676Y-96441428D01*
X114577676Y-96441428D02*
X114672914Y-96536666D01*
X114672914Y-96536666D02*
X114720533Y-96631904D01*
X114768152Y-95203333D02*
X115434819Y-95203333D01*
X114387200Y-95441428D02*
X115101485Y-95679523D01*
X115101485Y-95679523D02*
X115101485Y-95060476D01*
X116933333Y-92879819D02*
X116457143Y-92879819D01*
X116457143Y-92879819D02*
X116457143Y-91879819D01*
X117790476Y-92879819D02*
X117219048Y-92879819D01*
X117504762Y-92879819D02*
X117504762Y-91879819D01*
X117504762Y-91879819D02*
X117409524Y-92022676D01*
X117409524Y-92022676D02*
X117314286Y-92117914D01*
X117314286Y-92117914D02*
X117219048Y-92165533D01*
X122613332Y-88842800D02*
X122470475Y-88795180D01*
X122470475Y-88795180D02*
X122232380Y-88795180D01*
X122232380Y-88795180D02*
X122137142Y-88842800D01*
X122137142Y-88842800D02*
X122089523Y-88890419D01*
X122089523Y-88890419D02*
X122041904Y-88985657D01*
X122041904Y-88985657D02*
X122041904Y-89080895D01*
X122041904Y-89080895D02*
X122089523Y-89176133D01*
X122089523Y-89176133D02*
X122137142Y-89223752D01*
X122137142Y-89223752D02*
X122232380Y-89271371D01*
X122232380Y-89271371D02*
X122422856Y-89318990D01*
X122422856Y-89318990D02*
X122518094Y-89366609D01*
X122518094Y-89366609D02*
X122565713Y-89414228D01*
X122565713Y-89414228D02*
X122613332Y-89509466D01*
X122613332Y-89509466D02*
X122613332Y-89604704D01*
X122613332Y-89604704D02*
X122565713Y-89699942D01*
X122565713Y-89699942D02*
X122518094Y-89747561D01*
X122518094Y-89747561D02*
X122422856Y-89795180D01*
X122422856Y-89795180D02*
X122184761Y-89795180D01*
X122184761Y-89795180D02*
X122041904Y-89747561D01*
X121708570Y-89795180D02*
X121470475Y-88795180D01*
X121470475Y-88795180D02*
X121279999Y-89509466D01*
X121279999Y-89509466D02*
X121089523Y-88795180D01*
X121089523Y-88795180D02*
X120851428Y-89795180D01*
X119946666Y-88795180D02*
X120518094Y-88795180D01*
X120232380Y-88795180D02*
X120232380Y-89795180D01*
X120232380Y-89795180D02*
X120327618Y-89652323D01*
X120327618Y-89652323D02*
X120422856Y-89557085D01*
X120422856Y-89557085D02*
X120518094Y-89509466D01*
X124750000Y-91824819D02*
X124750000Y-92062914D01*
X124511905Y-91967676D02*
X124750000Y-92062914D01*
X124750000Y-92062914D02*
X124988095Y-91967676D01*
X124607143Y-92253390D02*
X124750000Y-92062914D01*
X124750000Y-92062914D02*
X124892857Y-92253390D01*
X124749999Y-92915180D02*
X124749999Y-92677085D01*
X124988094Y-92772323D02*
X124749999Y-92677085D01*
X124749999Y-92677085D02*
X124511904Y-92772323D01*
X124892856Y-92486609D02*
X124749999Y-92677085D01*
X124749999Y-92677085D02*
X124607142Y-92486609D01*
X112007142Y-74309580D02*
X111959523Y-74357200D01*
X111959523Y-74357200D02*
X111816666Y-74404819D01*
X111816666Y-74404819D02*
X111721428Y-74404819D01*
X111721428Y-74404819D02*
X111578571Y-74357200D01*
X111578571Y-74357200D02*
X111483333Y-74261961D01*
X111483333Y-74261961D02*
X111435714Y-74166723D01*
X111435714Y-74166723D02*
X111388095Y-73976247D01*
X111388095Y-73976247D02*
X111388095Y-73833390D01*
X111388095Y-73833390D02*
X111435714Y-73642914D01*
X111435714Y-73642914D02*
X111483333Y-73547676D01*
X111483333Y-73547676D02*
X111578571Y-73452438D01*
X111578571Y-73452438D02*
X111721428Y-73404819D01*
X111721428Y-73404819D02*
X111816666Y-73404819D01*
X111816666Y-73404819D02*
X111959523Y-73452438D01*
X111959523Y-73452438D02*
X112007142Y-73500057D01*
X112959523Y-74404819D02*
X112388095Y-74404819D01*
X112673809Y-74404819D02*
X112673809Y-73404819D01*
X112673809Y-73404819D02*
X112578571Y-73547676D01*
X112578571Y-73547676D02*
X112483333Y-73642914D01*
X112483333Y-73642914D02*
X112388095Y-73690533D01*
X113864285Y-73404819D02*
X113388095Y-73404819D01*
X113388095Y-73404819D02*
X113340476Y-73881009D01*
X113340476Y-73881009D02*
X113388095Y-73833390D01*
X113388095Y-73833390D02*
X113483333Y-73785771D01*
X113483333Y-73785771D02*
X113721428Y-73785771D01*
X113721428Y-73785771D02*
X113816666Y-73833390D01*
X113816666Y-73833390D02*
X113864285Y-73881009D01*
X113864285Y-73881009D02*
X113911904Y-73976247D01*
X113911904Y-73976247D02*
X113911904Y-74214342D01*
X113911904Y-74214342D02*
X113864285Y-74309580D01*
X113864285Y-74309580D02*
X113816666Y-74357200D01*
X113816666Y-74357200D02*
X113721428Y-74404819D01*
X113721428Y-74404819D02*
X113483333Y-74404819D01*
X113483333Y-74404819D02*
X113388095Y-74357200D01*
X113388095Y-74357200D02*
X113340476Y-74309580D01*
X113683333Y-94869580D02*
X113635714Y-94917200D01*
X113635714Y-94917200D02*
X113492857Y-94964819D01*
X113492857Y-94964819D02*
X113397619Y-94964819D01*
X113397619Y-94964819D02*
X113254762Y-94917200D01*
X113254762Y-94917200D02*
X113159524Y-94821961D01*
X113159524Y-94821961D02*
X113111905Y-94726723D01*
X113111905Y-94726723D02*
X113064286Y-94536247D01*
X113064286Y-94536247D02*
X113064286Y-94393390D01*
X113064286Y-94393390D02*
X113111905Y-94202914D01*
X113111905Y-94202914D02*
X113159524Y-94107676D01*
X113159524Y-94107676D02*
X113254762Y-94012438D01*
X113254762Y-94012438D02*
X113397619Y-93964819D01*
X113397619Y-93964819D02*
X113492857Y-93964819D01*
X113492857Y-93964819D02*
X113635714Y-94012438D01*
X113635714Y-94012438D02*
X113683333Y-94060057D01*
X114016667Y-93964819D02*
X114635714Y-93964819D01*
X114635714Y-93964819D02*
X114302381Y-94345771D01*
X114302381Y-94345771D02*
X114445238Y-94345771D01*
X114445238Y-94345771D02*
X114540476Y-94393390D01*
X114540476Y-94393390D02*
X114588095Y-94441009D01*
X114588095Y-94441009D02*
X114635714Y-94536247D01*
X114635714Y-94536247D02*
X114635714Y-94774342D01*
X114635714Y-94774342D02*
X114588095Y-94869580D01*
X114588095Y-94869580D02*
X114540476Y-94917200D01*
X114540476Y-94917200D02*
X114445238Y-94964819D01*
X114445238Y-94964819D02*
X114159524Y-94964819D01*
X114159524Y-94964819D02*
X114064286Y-94917200D01*
X114064286Y-94917200D02*
X114016667Y-94869580D01*
X107057142Y-96529819D02*
X106723809Y-96053628D01*
X106485714Y-96529819D02*
X106485714Y-95529819D01*
X106485714Y-95529819D02*
X106866666Y-95529819D01*
X106866666Y-95529819D02*
X106961904Y-95577438D01*
X106961904Y-95577438D02*
X107009523Y-95625057D01*
X107009523Y-95625057D02*
X107057142Y-95720295D01*
X107057142Y-95720295D02*
X107057142Y-95863152D01*
X107057142Y-95863152D02*
X107009523Y-95958390D01*
X107009523Y-95958390D02*
X106961904Y-96006009D01*
X106961904Y-96006009D02*
X106866666Y-96053628D01*
X106866666Y-96053628D02*
X106485714Y-96053628D01*
X107438095Y-95625057D02*
X107485714Y-95577438D01*
X107485714Y-95577438D02*
X107580952Y-95529819D01*
X107580952Y-95529819D02*
X107819047Y-95529819D01*
X107819047Y-95529819D02*
X107914285Y-95577438D01*
X107914285Y-95577438D02*
X107961904Y-95625057D01*
X107961904Y-95625057D02*
X108009523Y-95720295D01*
X108009523Y-95720295D02*
X108009523Y-95815533D01*
X108009523Y-95815533D02*
X107961904Y-95958390D01*
X107961904Y-95958390D02*
X107390476Y-96529819D01*
X107390476Y-96529819D02*
X108009523Y-96529819D01*
X108961904Y-96529819D02*
X108390476Y-96529819D01*
X108676190Y-96529819D02*
X108676190Y-95529819D01*
X108676190Y-95529819D02*
X108580952Y-95672676D01*
X108580952Y-95672676D02*
X108485714Y-95767914D01*
X108485714Y-95767914D02*
X108390476Y-95815533D01*
X86059580Y-93446666D02*
X86107200Y-93494285D01*
X86107200Y-93494285D02*
X86154819Y-93637142D01*
X86154819Y-93637142D02*
X86154819Y-93732380D01*
X86154819Y-93732380D02*
X86107200Y-93875237D01*
X86107200Y-93875237D02*
X86011961Y-93970475D01*
X86011961Y-93970475D02*
X85916723Y-94018094D01*
X85916723Y-94018094D02*
X85726247Y-94065713D01*
X85726247Y-94065713D02*
X85583390Y-94065713D01*
X85583390Y-94065713D02*
X85392914Y-94018094D01*
X85392914Y-94018094D02*
X85297676Y-93970475D01*
X85297676Y-93970475D02*
X85202438Y-93875237D01*
X85202438Y-93875237D02*
X85154819Y-93732380D01*
X85154819Y-93732380D02*
X85154819Y-93637142D01*
X85154819Y-93637142D02*
X85202438Y-93494285D01*
X85202438Y-93494285D02*
X85250057Y-93446666D01*
X85583390Y-92875237D02*
X85535771Y-92970475D01*
X85535771Y-92970475D02*
X85488152Y-93018094D01*
X85488152Y-93018094D02*
X85392914Y-93065713D01*
X85392914Y-93065713D02*
X85345295Y-93065713D01*
X85345295Y-93065713D02*
X85250057Y-93018094D01*
X85250057Y-93018094D02*
X85202438Y-92970475D01*
X85202438Y-92970475D02*
X85154819Y-92875237D01*
X85154819Y-92875237D02*
X85154819Y-92684761D01*
X85154819Y-92684761D02*
X85202438Y-92589523D01*
X85202438Y-92589523D02*
X85250057Y-92541904D01*
X85250057Y-92541904D02*
X85345295Y-92494285D01*
X85345295Y-92494285D02*
X85392914Y-92494285D01*
X85392914Y-92494285D02*
X85488152Y-92541904D01*
X85488152Y-92541904D02*
X85535771Y-92589523D01*
X85535771Y-92589523D02*
X85583390Y-92684761D01*
X85583390Y-92684761D02*
X85583390Y-92875237D01*
X85583390Y-92875237D02*
X85631009Y-92970475D01*
X85631009Y-92970475D02*
X85678628Y-93018094D01*
X85678628Y-93018094D02*
X85773866Y-93065713D01*
X85773866Y-93065713D02*
X85964342Y-93065713D01*
X85964342Y-93065713D02*
X86059580Y-93018094D01*
X86059580Y-93018094D02*
X86107200Y-92970475D01*
X86107200Y-92970475D02*
X86154819Y-92875237D01*
X86154819Y-92875237D02*
X86154819Y-92684761D01*
X86154819Y-92684761D02*
X86107200Y-92589523D01*
X86107200Y-92589523D02*
X86059580Y-92541904D01*
X86059580Y-92541904D02*
X85964342Y-92494285D01*
X85964342Y-92494285D02*
X85773866Y-92494285D01*
X85773866Y-92494285D02*
X85678628Y-92541904D01*
X85678628Y-92541904D02*
X85631009Y-92589523D01*
X85631009Y-92589523D02*
X85583390Y-92684761D01*
X114458333Y-89724819D02*
X114125000Y-89248628D01*
X113886905Y-89724819D02*
X113886905Y-88724819D01*
X113886905Y-88724819D02*
X114267857Y-88724819D01*
X114267857Y-88724819D02*
X114363095Y-88772438D01*
X114363095Y-88772438D02*
X114410714Y-88820057D01*
X114410714Y-88820057D02*
X114458333Y-88915295D01*
X114458333Y-88915295D02*
X114458333Y-89058152D01*
X114458333Y-89058152D02*
X114410714Y-89153390D01*
X114410714Y-89153390D02*
X114363095Y-89201009D01*
X114363095Y-89201009D02*
X114267857Y-89248628D01*
X114267857Y-89248628D02*
X113886905Y-89248628D01*
X115410714Y-89724819D02*
X114839286Y-89724819D01*
X115125000Y-89724819D02*
X115125000Y-88724819D01*
X115125000Y-88724819D02*
X115029762Y-88867676D01*
X115029762Y-88867676D02*
X114934524Y-88962914D01*
X114934524Y-88962914D02*
X114839286Y-89010533D01*
X80832142Y-82329819D02*
X80498809Y-81853628D01*
X80260714Y-82329819D02*
X80260714Y-81329819D01*
X80260714Y-81329819D02*
X80641666Y-81329819D01*
X80641666Y-81329819D02*
X80736904Y-81377438D01*
X80736904Y-81377438D02*
X80784523Y-81425057D01*
X80784523Y-81425057D02*
X80832142Y-81520295D01*
X80832142Y-81520295D02*
X80832142Y-81663152D01*
X80832142Y-81663152D02*
X80784523Y-81758390D01*
X80784523Y-81758390D02*
X80736904Y-81806009D01*
X80736904Y-81806009D02*
X80641666Y-81853628D01*
X80641666Y-81853628D02*
X80260714Y-81853628D01*
X81784523Y-82329819D02*
X81213095Y-82329819D01*
X81498809Y-82329819D02*
X81498809Y-81329819D01*
X81498809Y-81329819D02*
X81403571Y-81472676D01*
X81403571Y-81472676D02*
X81308333Y-81567914D01*
X81308333Y-81567914D02*
X81213095Y-81615533D01*
X82165476Y-81425057D02*
X82213095Y-81377438D01*
X82213095Y-81377438D02*
X82308333Y-81329819D01*
X82308333Y-81329819D02*
X82546428Y-81329819D01*
X82546428Y-81329819D02*
X82641666Y-81377438D01*
X82641666Y-81377438D02*
X82689285Y-81425057D01*
X82689285Y-81425057D02*
X82736904Y-81520295D01*
X82736904Y-81520295D02*
X82736904Y-81615533D01*
X82736904Y-81615533D02*
X82689285Y-81758390D01*
X82689285Y-81758390D02*
X82117857Y-82329819D01*
X82117857Y-82329819D02*
X82736904Y-82329819D01*
X82533333Y-78154819D02*
X82200000Y-77678628D01*
X81961905Y-78154819D02*
X81961905Y-77154819D01*
X81961905Y-77154819D02*
X82342857Y-77154819D01*
X82342857Y-77154819D02*
X82438095Y-77202438D01*
X82438095Y-77202438D02*
X82485714Y-77250057D01*
X82485714Y-77250057D02*
X82533333Y-77345295D01*
X82533333Y-77345295D02*
X82533333Y-77488152D01*
X82533333Y-77488152D02*
X82485714Y-77583390D01*
X82485714Y-77583390D02*
X82438095Y-77631009D01*
X82438095Y-77631009D02*
X82342857Y-77678628D01*
X82342857Y-77678628D02*
X81961905Y-77678628D01*
X82866667Y-77154819D02*
X83533333Y-77154819D01*
X83533333Y-77154819D02*
X83104762Y-78154819D01*
X71132142Y-90829819D02*
X70798809Y-90353628D01*
X70560714Y-90829819D02*
X70560714Y-89829819D01*
X70560714Y-89829819D02*
X70941666Y-89829819D01*
X70941666Y-89829819D02*
X71036904Y-89877438D01*
X71036904Y-89877438D02*
X71084523Y-89925057D01*
X71084523Y-89925057D02*
X71132142Y-90020295D01*
X71132142Y-90020295D02*
X71132142Y-90163152D01*
X71132142Y-90163152D02*
X71084523Y-90258390D01*
X71084523Y-90258390D02*
X71036904Y-90306009D01*
X71036904Y-90306009D02*
X70941666Y-90353628D01*
X70941666Y-90353628D02*
X70560714Y-90353628D01*
X71513095Y-89925057D02*
X71560714Y-89877438D01*
X71560714Y-89877438D02*
X71655952Y-89829819D01*
X71655952Y-89829819D02*
X71894047Y-89829819D01*
X71894047Y-89829819D02*
X71989285Y-89877438D01*
X71989285Y-89877438D02*
X72036904Y-89925057D01*
X72036904Y-89925057D02*
X72084523Y-90020295D01*
X72084523Y-90020295D02*
X72084523Y-90115533D01*
X72084523Y-90115533D02*
X72036904Y-90258390D01*
X72036904Y-90258390D02*
X71465476Y-90829819D01*
X71465476Y-90829819D02*
X72084523Y-90829819D01*
X72465476Y-89925057D02*
X72513095Y-89877438D01*
X72513095Y-89877438D02*
X72608333Y-89829819D01*
X72608333Y-89829819D02*
X72846428Y-89829819D01*
X72846428Y-89829819D02*
X72941666Y-89877438D01*
X72941666Y-89877438D02*
X72989285Y-89925057D01*
X72989285Y-89925057D02*
X73036904Y-90020295D01*
X73036904Y-90020295D02*
X73036904Y-90115533D01*
X73036904Y-90115533D02*
X72989285Y-90258390D01*
X72989285Y-90258390D02*
X72417857Y-90829819D01*
X72417857Y-90829819D02*
X73036904Y-90829819D01*
X118951666Y-73219819D02*
X118951666Y-73934104D01*
X118951666Y-73934104D02*
X118904047Y-74076961D01*
X118904047Y-74076961D02*
X118808809Y-74172200D01*
X118808809Y-74172200D02*
X118665952Y-74219819D01*
X118665952Y-74219819D02*
X118570714Y-74219819D01*
X119332619Y-73219819D02*
X119999285Y-73219819D01*
X119999285Y-73219819D02*
X119570714Y-74219819D01*
X122693332Y-95082800D02*
X122550475Y-95035180D01*
X122550475Y-95035180D02*
X122312380Y-95035180D01*
X122312380Y-95035180D02*
X122217142Y-95082800D01*
X122217142Y-95082800D02*
X122169523Y-95130419D01*
X122169523Y-95130419D02*
X122121904Y-95225657D01*
X122121904Y-95225657D02*
X122121904Y-95320895D01*
X122121904Y-95320895D02*
X122169523Y-95416133D01*
X122169523Y-95416133D02*
X122217142Y-95463752D01*
X122217142Y-95463752D02*
X122312380Y-95511371D01*
X122312380Y-95511371D02*
X122502856Y-95558990D01*
X122502856Y-95558990D02*
X122598094Y-95606609D01*
X122598094Y-95606609D02*
X122645713Y-95654228D01*
X122645713Y-95654228D02*
X122693332Y-95749466D01*
X122693332Y-95749466D02*
X122693332Y-95844704D01*
X122693332Y-95844704D02*
X122645713Y-95939942D01*
X122645713Y-95939942D02*
X122598094Y-95987561D01*
X122598094Y-95987561D02*
X122502856Y-96035180D01*
X122502856Y-96035180D02*
X122264761Y-96035180D01*
X122264761Y-96035180D02*
X122121904Y-95987561D01*
X121788570Y-96035180D02*
X121550475Y-95035180D01*
X121550475Y-95035180D02*
X121359999Y-95749466D01*
X121359999Y-95749466D02*
X121169523Y-95035180D01*
X121169523Y-95035180D02*
X120931428Y-96035180D01*
X120598094Y-95939942D02*
X120550475Y-95987561D01*
X120550475Y-95987561D02*
X120455237Y-96035180D01*
X120455237Y-96035180D02*
X120217142Y-96035180D01*
X120217142Y-96035180D02*
X120121904Y-95987561D01*
X120121904Y-95987561D02*
X120074285Y-95939942D01*
X120074285Y-95939942D02*
X120026666Y-95844704D01*
X120026666Y-95844704D02*
X120026666Y-95749466D01*
X120026666Y-95749466D02*
X120074285Y-95606609D01*
X120074285Y-95606609D02*
X120645713Y-95035180D01*
X120645713Y-95035180D02*
X120026666Y-95035180D01*
X124795350Y-98500819D02*
X124795350Y-98738914D01*
X124557255Y-98643676D02*
X124795350Y-98738914D01*
X124795350Y-98738914D02*
X125033445Y-98643676D01*
X124652493Y-98929390D02*
X124795350Y-98738914D01*
X124795350Y-98738914D02*
X124938207Y-98929390D01*
X124795349Y-99591180D02*
X124795349Y-99353085D01*
X125033444Y-99448323D02*
X124795349Y-99353085D01*
X124795349Y-99353085D02*
X124557254Y-99448323D01*
X124938206Y-99162609D02*
X124795349Y-99353085D01*
X124795349Y-99353085D02*
X124652492Y-99162609D01*
X94232142Y-95054819D02*
X93898809Y-94578628D01*
X93660714Y-95054819D02*
X93660714Y-94054819D01*
X93660714Y-94054819D02*
X94041666Y-94054819D01*
X94041666Y-94054819D02*
X94136904Y-94102438D01*
X94136904Y-94102438D02*
X94184523Y-94150057D01*
X94184523Y-94150057D02*
X94232142Y-94245295D01*
X94232142Y-94245295D02*
X94232142Y-94388152D01*
X94232142Y-94388152D02*
X94184523Y-94483390D01*
X94184523Y-94483390D02*
X94136904Y-94531009D01*
X94136904Y-94531009D02*
X94041666Y-94578628D01*
X94041666Y-94578628D02*
X93660714Y-94578628D01*
X94613095Y-94150057D02*
X94660714Y-94102438D01*
X94660714Y-94102438D02*
X94755952Y-94054819D01*
X94755952Y-94054819D02*
X94994047Y-94054819D01*
X94994047Y-94054819D02*
X95089285Y-94102438D01*
X95089285Y-94102438D02*
X95136904Y-94150057D01*
X95136904Y-94150057D02*
X95184523Y-94245295D01*
X95184523Y-94245295D02*
X95184523Y-94340533D01*
X95184523Y-94340533D02*
X95136904Y-94483390D01*
X95136904Y-94483390D02*
X94565476Y-95054819D01*
X94565476Y-95054819D02*
X95184523Y-95054819D01*
X95517857Y-94054819D02*
X96136904Y-94054819D01*
X96136904Y-94054819D02*
X95803571Y-94435771D01*
X95803571Y-94435771D02*
X95946428Y-94435771D01*
X95946428Y-94435771D02*
X96041666Y-94483390D01*
X96041666Y-94483390D02*
X96089285Y-94531009D01*
X96089285Y-94531009D02*
X96136904Y-94626247D01*
X96136904Y-94626247D02*
X96136904Y-94864342D01*
X96136904Y-94864342D02*
X96089285Y-94959580D01*
X96089285Y-94959580D02*
X96041666Y-95007200D01*
X96041666Y-95007200D02*
X95946428Y-95054819D01*
X95946428Y-95054819D02*
X95660714Y-95054819D01*
X95660714Y-95054819D02*
X95565476Y-95007200D01*
X95565476Y-95007200D02*
X95517857Y-94959580D01*
X106333333Y-89229580D02*
X106285714Y-89277200D01*
X106285714Y-89277200D02*
X106142857Y-89324819D01*
X106142857Y-89324819D02*
X106047619Y-89324819D01*
X106047619Y-89324819D02*
X105904762Y-89277200D01*
X105904762Y-89277200D02*
X105809524Y-89181961D01*
X105809524Y-89181961D02*
X105761905Y-89086723D01*
X105761905Y-89086723D02*
X105714286Y-88896247D01*
X105714286Y-88896247D02*
X105714286Y-88753390D01*
X105714286Y-88753390D02*
X105761905Y-88562914D01*
X105761905Y-88562914D02*
X105809524Y-88467676D01*
X105809524Y-88467676D02*
X105904762Y-88372438D01*
X105904762Y-88372438D02*
X106047619Y-88324819D01*
X106047619Y-88324819D02*
X106142857Y-88324819D01*
X106142857Y-88324819D02*
X106285714Y-88372438D01*
X106285714Y-88372438D02*
X106333333Y-88420057D01*
X106809524Y-89324819D02*
X107000000Y-89324819D01*
X107000000Y-89324819D02*
X107095238Y-89277200D01*
X107095238Y-89277200D02*
X107142857Y-89229580D01*
X107142857Y-89229580D02*
X107238095Y-89086723D01*
X107238095Y-89086723D02*
X107285714Y-88896247D01*
X107285714Y-88896247D02*
X107285714Y-88515295D01*
X107285714Y-88515295D02*
X107238095Y-88420057D01*
X107238095Y-88420057D02*
X107190476Y-88372438D01*
X107190476Y-88372438D02*
X107095238Y-88324819D01*
X107095238Y-88324819D02*
X106904762Y-88324819D01*
X106904762Y-88324819D02*
X106809524Y-88372438D01*
X106809524Y-88372438D02*
X106761905Y-88420057D01*
X106761905Y-88420057D02*
X106714286Y-88515295D01*
X106714286Y-88515295D02*
X106714286Y-88753390D01*
X106714286Y-88753390D02*
X106761905Y-88848628D01*
X106761905Y-88848628D02*
X106809524Y-88896247D01*
X106809524Y-88896247D02*
X106904762Y-88943866D01*
X106904762Y-88943866D02*
X107095238Y-88943866D01*
X107095238Y-88943866D02*
X107190476Y-88896247D01*
X107190476Y-88896247D02*
X107238095Y-88848628D01*
X107238095Y-88848628D02*
X107285714Y-88753390D01*
X116643333Y-75004819D02*
X116310000Y-74528628D01*
X116071905Y-75004819D02*
X116071905Y-74004819D01*
X116071905Y-74004819D02*
X116452857Y-74004819D01*
X116452857Y-74004819D02*
X116548095Y-74052438D01*
X116548095Y-74052438D02*
X116595714Y-74100057D01*
X116595714Y-74100057D02*
X116643333Y-74195295D01*
X116643333Y-74195295D02*
X116643333Y-74338152D01*
X116643333Y-74338152D02*
X116595714Y-74433390D01*
X116595714Y-74433390D02*
X116548095Y-74481009D01*
X116548095Y-74481009D02*
X116452857Y-74528628D01*
X116452857Y-74528628D02*
X116071905Y-74528628D01*
X117548095Y-74004819D02*
X117071905Y-74004819D01*
X117071905Y-74004819D02*
X117024286Y-74481009D01*
X117024286Y-74481009D02*
X117071905Y-74433390D01*
X117071905Y-74433390D02*
X117167143Y-74385771D01*
X117167143Y-74385771D02*
X117405238Y-74385771D01*
X117405238Y-74385771D02*
X117500476Y-74433390D01*
X117500476Y-74433390D02*
X117548095Y-74481009D01*
X117548095Y-74481009D02*
X117595714Y-74576247D01*
X117595714Y-74576247D02*
X117595714Y-74814342D01*
X117595714Y-74814342D02*
X117548095Y-74909580D01*
X117548095Y-74909580D02*
X117500476Y-74957200D01*
X117500476Y-74957200D02*
X117405238Y-75004819D01*
X117405238Y-75004819D02*
X117167143Y-75004819D01*
X117167143Y-75004819D02*
X117071905Y-74957200D01*
X117071905Y-74957200D02*
X117024286Y-74909580D01*
X78218095Y-95644819D02*
X78218095Y-96454342D01*
X78218095Y-96454342D02*
X78265714Y-96549580D01*
X78265714Y-96549580D02*
X78313333Y-96597200D01*
X78313333Y-96597200D02*
X78408571Y-96644819D01*
X78408571Y-96644819D02*
X78599047Y-96644819D01*
X78599047Y-96644819D02*
X78694285Y-96597200D01*
X78694285Y-96597200D02*
X78741904Y-96549580D01*
X78741904Y-96549580D02*
X78789523Y-96454342D01*
X78789523Y-96454342D02*
X78789523Y-95644819D01*
X79694285Y-95978152D02*
X79694285Y-96644819D01*
X79456190Y-95597200D02*
X79218095Y-96311485D01*
X79218095Y-96311485D02*
X79837142Y-96311485D01*
X89017142Y-92824819D02*
X88683809Y-92348628D01*
X88445714Y-92824819D02*
X88445714Y-91824819D01*
X88445714Y-91824819D02*
X88826666Y-91824819D01*
X88826666Y-91824819D02*
X88921904Y-91872438D01*
X88921904Y-91872438D02*
X88969523Y-91920057D01*
X88969523Y-91920057D02*
X89017142Y-92015295D01*
X89017142Y-92015295D02*
X89017142Y-92158152D01*
X89017142Y-92158152D02*
X88969523Y-92253390D01*
X88969523Y-92253390D02*
X88921904Y-92301009D01*
X88921904Y-92301009D02*
X88826666Y-92348628D01*
X88826666Y-92348628D02*
X88445714Y-92348628D01*
X89969523Y-92824819D02*
X89398095Y-92824819D01*
X89683809Y-92824819D02*
X89683809Y-91824819D01*
X89683809Y-91824819D02*
X89588571Y-91967676D01*
X89588571Y-91967676D02*
X89493333Y-92062914D01*
X89493333Y-92062914D02*
X89398095Y-92110533D01*
X90445714Y-92824819D02*
X90636190Y-92824819D01*
X90636190Y-92824819D02*
X90731428Y-92777200D01*
X90731428Y-92777200D02*
X90779047Y-92729580D01*
X90779047Y-92729580D02*
X90874285Y-92586723D01*
X90874285Y-92586723D02*
X90921904Y-92396247D01*
X90921904Y-92396247D02*
X90921904Y-92015295D01*
X90921904Y-92015295D02*
X90874285Y-91920057D01*
X90874285Y-91920057D02*
X90826666Y-91872438D01*
X90826666Y-91872438D02*
X90731428Y-91824819D01*
X90731428Y-91824819D02*
X90540952Y-91824819D01*
X90540952Y-91824819D02*
X90445714Y-91872438D01*
X90445714Y-91872438D02*
X90398095Y-91920057D01*
X90398095Y-91920057D02*
X90350476Y-92015295D01*
X90350476Y-92015295D02*
X90350476Y-92253390D01*
X90350476Y-92253390D02*
X90398095Y-92348628D01*
X90398095Y-92348628D02*
X90445714Y-92396247D01*
X90445714Y-92396247D02*
X90540952Y-92443866D01*
X90540952Y-92443866D02*
X90731428Y-92443866D01*
X90731428Y-92443866D02*
X90826666Y-92396247D01*
X90826666Y-92396247D02*
X90874285Y-92348628D01*
X90874285Y-92348628D02*
X90921904Y-92253390D01*
X69104819Y-85409523D02*
X69819104Y-85409523D01*
X69819104Y-85409523D02*
X69961961Y-85457142D01*
X69961961Y-85457142D02*
X70057200Y-85552380D01*
X70057200Y-85552380D02*
X70104819Y-85695237D01*
X70104819Y-85695237D02*
X70104819Y-85790475D01*
X70104819Y-84409523D02*
X70104819Y-84980951D01*
X70104819Y-84695237D02*
X69104819Y-84695237D01*
X69104819Y-84695237D02*
X69247676Y-84790475D01*
X69247676Y-84790475D02*
X69342914Y-84885713D01*
X69342914Y-84885713D02*
X69390533Y-84980951D01*
X69104819Y-83790475D02*
X69104819Y-83695237D01*
X69104819Y-83695237D02*
X69152438Y-83599999D01*
X69152438Y-83599999D02*
X69200057Y-83552380D01*
X69200057Y-83552380D02*
X69295295Y-83504761D01*
X69295295Y-83504761D02*
X69485771Y-83457142D01*
X69485771Y-83457142D02*
X69723866Y-83457142D01*
X69723866Y-83457142D02*
X69914342Y-83504761D01*
X69914342Y-83504761D02*
X70009580Y-83552380D01*
X70009580Y-83552380D02*
X70057200Y-83599999D01*
X70057200Y-83599999D02*
X70104819Y-83695237D01*
X70104819Y-83695237D02*
X70104819Y-83790475D01*
X70104819Y-83790475D02*
X70057200Y-83885713D01*
X70057200Y-83885713D02*
X70009580Y-83933332D01*
X70009580Y-83933332D02*
X69914342Y-83980951D01*
X69914342Y-83980951D02*
X69723866Y-84028570D01*
X69723866Y-84028570D02*
X69485771Y-84028570D01*
X69485771Y-84028570D02*
X69295295Y-83980951D01*
X69295295Y-83980951D02*
X69200057Y-83933332D01*
X69200057Y-83933332D02*
X69152438Y-83885713D01*
X69152438Y-83885713D02*
X69104819Y-83790475D01*
%TO.C,C5*%
D11*
X83440000Y-73840580D02*
X83440000Y-73559420D01*
X84460000Y-73840580D02*
X84460000Y-73559420D01*
%TO.C,R15*%
X114577500Y-74702742D02*
X114577500Y-75177258D01*
X115622500Y-74702742D02*
X115622500Y-75177258D01*
%TO.C,U3*%
X107595000Y-74940000D02*
X111715000Y-74940000D01*
X107595000Y-75035000D02*
X107595000Y-74940000D01*
X107595000Y-80060000D02*
X107595000Y-79965000D01*
X111715000Y-74940000D02*
X111715000Y-75035000D01*
X111715000Y-79965000D02*
X111715000Y-80060000D01*
X111715000Y-80060000D02*
X107595000Y-80060000D01*
X107055000Y-75030000D02*
X106815000Y-74700000D01*
X107295000Y-74700000D01*
X107055000Y-75030000D01*
G36*
X107055000Y-75030000D02*
G01*
X106815000Y-74700000D01*
X107295000Y-74700000D01*
X107055000Y-75030000D01*
G37*
%TO.C,J5*%
X93340000Y-102145000D02*
X94090000Y-102145000D01*
X94090000Y-99195000D02*
X97140000Y-99195000D01*
X94090000Y-102145000D02*
X94090000Y-99195000D01*
X99990000Y-104695000D02*
X101240000Y-104695000D01*
X100190000Y-99195000D02*
X97140000Y-99195000D01*
X100190000Y-102145000D02*
X100190000Y-99195000D01*
X100940000Y-102145000D02*
X100190000Y-102145000D01*
X101240000Y-104695000D02*
X101240000Y-103445000D01*
X93340000Y-103645000D02*
X95140000Y-103645000D01*
X95140000Y-104395000D01*
X93340000Y-104395000D01*
X93340000Y-103645000D01*
X96640000Y-103645000D02*
X97640000Y-103645000D01*
X97640000Y-104395000D01*
X96640000Y-104395000D01*
X96640000Y-103645000D01*
X99140000Y-103645000D02*
X100940000Y-103645000D01*
X100940000Y-104395000D01*
X99140000Y-104395000D01*
X99140000Y-103645000D01*
X93330000Y-98435000D02*
X100950000Y-98435000D01*
X100950000Y-104405000D01*
X93330000Y-104405000D01*
X93330000Y-98435000D01*
%TO.C,U6*%
X108785000Y-90145000D02*
X109260000Y-90145000D01*
X108785000Y-90620000D02*
X108785000Y-90145000D01*
X108785000Y-93365000D02*
X108785000Y-92890000D01*
X109260000Y-93365000D02*
X108785000Y-93365000D01*
X111530000Y-90145000D02*
X112005000Y-90145000D01*
X112005000Y-90145000D02*
X112005000Y-90620000D01*
X112005000Y-92890000D02*
X112005000Y-93365000D01*
X112005000Y-93365000D02*
X111530000Y-93365000D01*
X112865000Y-92745000D02*
X112535000Y-92505000D01*
X112865000Y-92265000D01*
X112865000Y-92745000D01*
G36*
X112865000Y-92745000D02*
G01*
X112535000Y-92505000D01*
X112865000Y-92265000D01*
X112865000Y-92745000D01*
G37*
%TO.C,R13*%
X71037258Y-77377500D02*
X70562742Y-77377500D01*
X71037258Y-78422500D02*
X70562742Y-78422500D01*
%TO.C,C4*%
X79915000Y-73840580D02*
X79915000Y-73559420D01*
X80935000Y-73840580D02*
X80935000Y-73559420D01*
%TO.C,U2*%
X85500000Y-65340000D02*
X85500000Y-71540000D01*
X85500000Y-65340000D02*
X103900000Y-65340000D01*
X85500000Y-90190000D02*
X85500000Y-91190000D01*
X85500000Y-91190000D02*
X87000000Y-91190000D01*
X103900000Y-65340000D02*
X103900000Y-71540000D01*
X103900000Y-91190000D02*
X102400000Y-91190000D01*
X103900000Y-91190000D02*
X103900000Y-90190000D01*
X85500000Y-72215000D02*
X85000000Y-72215000D01*
X85500000Y-71715000D01*
X85500000Y-72215000D01*
G36*
X85500000Y-72215000D02*
G01*
X85000000Y-72215000D01*
X85500000Y-71715000D01*
X85500000Y-72215000D01*
G37*
%TO.C,C12*%
X83760000Y-96490580D02*
X83760000Y-96209420D01*
X84780000Y-96490580D02*
X84780000Y-96209420D01*
%TO.C,D3*%
X74515000Y-76540000D02*
X74515000Y-78460000D01*
X74515000Y-78460000D02*
X77200000Y-78460000D01*
X77200000Y-76540000D02*
X74515000Y-76540000D01*
%TO.C,C11*%
X105915000Y-93465580D02*
X105915000Y-93184420D01*
X106935000Y-93465580D02*
X106935000Y-93184420D01*
%TO.C,U1*%
X77415000Y-83152500D02*
X79235000Y-83152500D01*
X77415000Y-83202500D02*
X77415000Y-83152500D01*
X77415000Y-86272500D02*
X77415000Y-86222500D01*
X79235000Y-83152500D02*
X79235000Y-83202500D01*
X79235000Y-86222500D02*
X79235000Y-86272500D01*
X79235000Y-86272500D02*
X77415000Y-86272500D01*
X76875000Y-83202500D02*
X76635000Y-82872500D01*
X77115000Y-82872500D01*
X76875000Y-83202500D01*
G36*
X76875000Y-83202500D02*
G01*
X76635000Y-82872500D01*
X77115000Y-82872500D01*
X76875000Y-83202500D01*
G37*
%TO.C,C2*%
X81690000Y-73840580D02*
X81690000Y-73559420D01*
X82710000Y-73840580D02*
X82710000Y-73559420D01*
%TO.C,R20*%
X76070645Y-89197579D02*
X75042421Y-88169355D01*
X77357579Y-87910645D02*
X76329355Y-86882421D01*
%TO.C,C1*%
X104240000Y-93465580D02*
X104240000Y-93184420D01*
X105260000Y-93465580D02*
X105260000Y-93184420D01*
%TO.C,D10*%
X70115000Y-73525000D02*
X70115000Y-76210000D01*
X70115000Y-76210000D02*
X72035000Y-76210000D01*
X72035000Y-76210000D02*
X72035000Y-73525000D01*
%TO.C,R14*%
X115797500Y-96557258D02*
X115797500Y-96082742D01*
X116842500Y-96557258D02*
X116842500Y-96082742D01*
%TO.C,J11*%
X101880000Y-102130000D02*
X102630000Y-102130000D01*
X102630000Y-99180000D02*
X105680000Y-99180000D01*
X102630000Y-102130000D02*
X102630000Y-99180000D01*
X108530000Y-104680000D02*
X109780000Y-104680000D01*
X108730000Y-99180000D02*
X105680000Y-99180000D01*
X108730000Y-102130000D02*
X108730000Y-99180000D01*
X109480000Y-102130000D02*
X108730000Y-102130000D01*
X109780000Y-104680000D02*
X109780000Y-103430000D01*
X101880000Y-103630000D02*
X103680000Y-103630000D01*
X103680000Y-104380000D01*
X101880000Y-104380000D01*
X101880000Y-103630000D01*
X105180000Y-103630000D02*
X106180000Y-103630000D01*
X106180000Y-104380000D01*
X105180000Y-104380000D01*
X105180000Y-103630000D01*
X107680000Y-103630000D02*
X109480000Y-103630000D01*
X109480000Y-104380000D01*
X107680000Y-104380000D01*
X107680000Y-103630000D01*
X101870000Y-98420000D02*
X109490000Y-98420000D01*
X109490000Y-104390000D01*
X101870000Y-104390000D01*
X101870000Y-98420000D01*
%TO.C,L1*%
X114200378Y-91865000D02*
X114999622Y-91865000D01*
X114200378Y-92985000D02*
X114999622Y-92985000D01*
%TO.C,SW1*%
D12*
X118447900Y-86417900D02*
X118447900Y-86783660D01*
X118447900Y-88007940D02*
X118447900Y-90492060D01*
X118447900Y-91716340D02*
X118447900Y-92082100D01*
X118447900Y-92082100D02*
X124112100Y-92082100D01*
X124112100Y-86417900D02*
X118447900Y-86417900D01*
X124112100Y-86783660D02*
X124112100Y-86417900D01*
X124112100Y-90492060D02*
X124112100Y-88007940D01*
X124112100Y-92082100D02*
X124112100Y-91716340D01*
%TO.C,C15*%
D11*
X109740580Y-73440000D02*
X109459420Y-73440000D01*
X109740580Y-74460000D02*
X109459420Y-74460000D01*
%TO.C,C3*%
X111870000Y-95019420D02*
X111870000Y-95300580D01*
X112890000Y-95019420D02*
X112890000Y-95300580D01*
%TO.C,J8*%
X72870000Y-72995000D02*
X72870000Y-75755000D01*
X75520000Y-72995000D02*
X72870000Y-72995000D01*
X75520000Y-72995000D02*
X75520000Y-75755000D01*
X75520000Y-75755000D02*
X72870000Y-75755000D01*
X76790000Y-72995000D02*
X78170000Y-72995000D01*
X78170000Y-72995000D02*
X78170000Y-74375000D01*
%TO.C,R21*%
X103572936Y-95190000D02*
X105027064Y-95190000D01*
X103572936Y-97010000D02*
X105027064Y-97010000D01*
%TO.C,C8*%
X83760000Y-93139420D02*
X83760000Y-93420580D01*
X84780000Y-93139420D02*
X84780000Y-93420580D01*
%TO.C,R1*%
X114387742Y-90177500D02*
X114862258Y-90177500D01*
X114387742Y-91222500D02*
X114862258Y-91222500D01*
%TO.C,R12*%
X78062742Y-81377500D02*
X78537258Y-81377500D01*
X78062742Y-82422500D02*
X78537258Y-82422500D01*
%TO.C,R7*%
X80237258Y-77177500D02*
X79762742Y-77177500D01*
X80237258Y-78222500D02*
X79762742Y-78222500D01*
%TO.C,R18*%
X71157500Y-95847258D02*
X71157500Y-95372742D01*
X72202500Y-95847258D02*
X72202500Y-95372742D01*
%TO.C,R22*%
X73157500Y-91112742D02*
X73157500Y-91587258D01*
X74202500Y-91112742D02*
X74202500Y-91587258D01*
%TO.C,J4*%
X64125000Y-102825000D02*
X64125000Y-104075000D01*
X64125000Y-104075000D02*
X65375000Y-104075000D01*
X66675000Y-91175000D02*
X66675000Y-91925000D01*
X66675000Y-91925000D02*
X69625000Y-91925000D01*
X66675000Y-103025000D02*
X69625000Y-103025000D01*
X66675000Y-103775000D02*
X66675000Y-103025000D01*
X69625000Y-91925000D02*
X69625000Y-97475000D01*
X69625000Y-103025000D02*
X69625000Y-97475000D01*
X64415000Y-91165000D02*
X70385000Y-91165000D01*
X70385000Y-103785000D01*
X64415000Y-103785000D01*
X64415000Y-91165000D01*
X64425000Y-91175000D02*
X65175000Y-91175000D01*
X65175000Y-92975000D01*
X64425000Y-92975000D01*
X64425000Y-91175000D01*
X64425000Y-94475000D02*
X65175000Y-94475000D01*
X65175000Y-100475000D01*
X64425000Y-100475000D01*
X64425000Y-94475000D01*
X64425000Y-101975000D02*
X65175000Y-101975000D01*
X65175000Y-103775000D01*
X64425000Y-103775000D01*
X64425000Y-101975000D01*
%TO.C,J7*%
X118110000Y-84540000D02*
X118110000Y-85790000D01*
X118110000Y-85790000D02*
X119360000Y-85790000D01*
X120660000Y-72890000D02*
X120660000Y-73640000D01*
X120660000Y-73640000D02*
X123610000Y-73640000D01*
X120660000Y-84740000D02*
X123610000Y-84740000D01*
X120660000Y-85490000D02*
X120660000Y-84740000D01*
X123610000Y-73640000D02*
X123610000Y-79190000D01*
X123610000Y-84740000D02*
X123610000Y-79190000D01*
X118400000Y-72880000D02*
X124370000Y-72880000D01*
X124370000Y-85500000D01*
X118400000Y-85500000D01*
X118400000Y-72880000D01*
X118410000Y-72890000D02*
X119160000Y-72890000D01*
X119160000Y-74690000D01*
X118410000Y-74690000D01*
X118410000Y-72890000D01*
X118410000Y-76190000D02*
X119160000Y-76190000D01*
X119160000Y-82190000D01*
X118410000Y-82190000D01*
X118410000Y-76190000D01*
X118410000Y-83690000D02*
X119160000Y-83690000D01*
X119160000Y-85490000D01*
X118410000Y-85490000D01*
X118410000Y-83690000D01*
%TO.C,SW2*%
D12*
X118527900Y-92657900D02*
X118527900Y-93023660D01*
X118527900Y-94247940D02*
X118527900Y-96732060D01*
X118527900Y-97956340D02*
X118527900Y-98322100D01*
X118527900Y-98322100D02*
X124192100Y-98322100D01*
X124192100Y-92657900D02*
X118527900Y-92657900D01*
X124192100Y-93023660D02*
X124192100Y-92657900D01*
X124192100Y-96732060D02*
X124192100Y-94247940D01*
X124192100Y-98322100D02*
X124192100Y-97956340D01*
%TO.C,R23*%
D11*
X96515000Y-95302064D02*
X96515000Y-93847936D01*
X98335000Y-95302064D02*
X98335000Y-93847936D01*
%TO.C,C9*%
X106359420Y-89790000D02*
X106640580Y-89790000D01*
X106359420Y-90810000D02*
X106640580Y-90810000D01*
%TO.C,R17*%
X71117500Y-92697258D02*
X71117500Y-92222742D01*
X72162500Y-92697258D02*
X72162500Y-92222742D01*
%TO.C,J2*%
X71270000Y-102140000D02*
X72020000Y-102140000D01*
X72020000Y-99190000D02*
X77570000Y-99190000D01*
X72020000Y-102140000D02*
X72020000Y-99190000D01*
X82920000Y-104690000D02*
X84170000Y-104690000D01*
X83120000Y-99190000D02*
X77570000Y-99190000D01*
X83120000Y-102140000D02*
X83120000Y-99190000D01*
X83870000Y-102140000D02*
X83120000Y-102140000D01*
X84170000Y-104690000D02*
X84170000Y-103440000D01*
X71270000Y-103640000D02*
X73070000Y-103640000D01*
X73070000Y-104390000D01*
X71270000Y-104390000D01*
X71270000Y-103640000D01*
X74570000Y-103640000D02*
X80570000Y-103640000D01*
X80570000Y-104390000D01*
X74570000Y-104390000D01*
X74570000Y-103640000D01*
X82070000Y-103640000D02*
X83870000Y-103640000D01*
X83870000Y-104390000D01*
X82070000Y-104390000D01*
X82070000Y-103640000D01*
X71260000Y-98430000D02*
X83880000Y-98430000D01*
X83880000Y-104400000D01*
X71260000Y-104400000D01*
X71260000Y-98430000D01*
%TO.C,R5*%
X116287500Y-76462742D02*
X116287500Y-76937258D01*
X117332500Y-76462742D02*
X117332500Y-76937258D01*
%TO.C,J9*%
X84800000Y-102150000D02*
X85550000Y-102150000D01*
X85550000Y-99200000D02*
X88600000Y-99200000D01*
X85550000Y-102150000D02*
X85550000Y-99200000D01*
X91450000Y-104700000D02*
X92700000Y-104700000D01*
X91650000Y-99200000D02*
X88600000Y-99200000D01*
X91650000Y-102150000D02*
X91650000Y-99200000D01*
X92400000Y-102150000D02*
X91650000Y-102150000D01*
X92700000Y-104700000D02*
X92700000Y-103450000D01*
X84800000Y-103650000D02*
X86600000Y-103650000D01*
X86600000Y-104400000D01*
X84800000Y-104400000D01*
X84800000Y-103650000D01*
X88100000Y-103650000D02*
X89100000Y-103650000D01*
X89100000Y-104400000D01*
X88100000Y-104400000D01*
X88100000Y-103650000D01*
X90600000Y-103650000D02*
X92400000Y-103650000D01*
X92400000Y-104400000D01*
X90600000Y-104400000D01*
X90600000Y-103650000D01*
X84790000Y-98440000D02*
X92410000Y-98440000D01*
X92410000Y-104410000D01*
X84790000Y-104410000D01*
X84790000Y-98440000D01*
%TO.C,U4*%
X77060000Y-90732500D02*
X77060000Y-91992500D01*
X77060000Y-97552500D02*
X77060000Y-96292500D01*
X80820000Y-90732500D02*
X77060000Y-90732500D01*
X80820000Y-97552500D02*
X77060000Y-97552500D01*
X82340000Y-97782500D02*
X81860000Y-97782500D01*
X82100000Y-97452500D01*
X82340000Y-97782500D01*
G36*
X82340000Y-97782500D02*
G01*
X81860000Y-97782500D01*
X82100000Y-97452500D01*
X82340000Y-97782500D01*
G37*
%TO.C,J1*%
X105900000Y-81830000D02*
X105900000Y-87030000D01*
X113580000Y-84430000D02*
X113580000Y-87030000D01*
X113580000Y-87030000D02*
X105900000Y-87030000D01*
X116180000Y-81830000D02*
X105900000Y-81830000D01*
X116180000Y-81830000D02*
X116180000Y-84430000D01*
X116180000Y-84430000D02*
X113580000Y-84430000D01*
X116180000Y-85700000D02*
X116180000Y-87030000D01*
X116180000Y-87030000D02*
X114850000Y-87030000D01*
%TO.C,J6*%
X110410000Y-102130000D02*
X111160000Y-102130000D01*
X111160000Y-99180000D02*
X114210000Y-99180000D01*
X111160000Y-102130000D02*
X111160000Y-99180000D01*
X117060000Y-104680000D02*
X118310000Y-104680000D01*
X117260000Y-99180000D02*
X114210000Y-99180000D01*
X117260000Y-102130000D02*
X117260000Y-99180000D01*
X118010000Y-102130000D02*
X117260000Y-102130000D01*
X118310000Y-104680000D02*
X118310000Y-103430000D01*
X110410000Y-103630000D02*
X112210000Y-103630000D01*
X112210000Y-104380000D01*
X110410000Y-104380000D01*
X110410000Y-103630000D01*
X113710000Y-103630000D02*
X114710000Y-103630000D01*
X114710000Y-104380000D01*
X113710000Y-104380000D01*
X113710000Y-103630000D01*
X116210000Y-103630000D02*
X118010000Y-103630000D01*
X118010000Y-104380000D01*
X116210000Y-104380000D01*
X116210000Y-103630000D01*
X110400000Y-98420000D02*
X118020000Y-98420000D01*
X118020000Y-104390000D01*
X110400000Y-104390000D01*
X110400000Y-98420000D01*
%TO.C,R19*%
X88932936Y-93290000D02*
X90387064Y-93290000D01*
X88932936Y-95110000D02*
X90387064Y-95110000D01*
%TO.C,J10*%
X64375000Y-79970000D02*
X64375000Y-89130000D01*
X65325000Y-79970000D02*
X64375000Y-79970000D01*
X65325000Y-89130000D02*
X64375000Y-89130000D01*
X69300000Y-79970000D02*
X68445000Y-79970000D01*
X69300000Y-89130000D02*
X68445000Y-89130000D01*
%TD*%
M02*
