<?xml version="1.0" standalone="no"?>
 <!DOCTYPE svg PUBLIC "-//W3C//DTD SVG 1.1//EN" 
 "http://www.w3.org/Graphics/SVG/1.1/DTD/svg11.dtd"> 
<svg
  xmlns:svg="http://www.w3.org/2000/svg"
  xmlns="http://www.w3.org/2000/svg"
  xmlns:xlink="http://www.w3.org/1999/xlink"
  version="1.1"
  width="297.0022mm" height="210.0072mm" viewBox="0.0000 0.0000 297.0022 210.0072">
<title>SVG Image created as TyphoonMotherboard_rev1 KiCad-F_Paste.svg date 2025/03/31 21:47:55 </title>
  <desc>Image generated by PCBNEW </desc>
<g style="fill:#000000; fill-opacity:1.0000;stroke:#000000; stroke-opacity:1.0000;
stroke-linecap:round; stroke-linejoin:round;"
 transform="translate(0 0) scale(1 1)">
<path style="fill:#000000; fill-opacity:1.0000; 
stroke:#000000; stroke-width:0.0100; stroke-opacity:1; 
stroke-linecap:round; stroke-linejoin:round;fill-rule:evenodd;"
d="M 90.7356,88.5812
90.7376,88.5812
90.7406,88.5822
90.7426,88.5822
90.7456,88.5832
90.7476,88.5842
90.7506,88.5852
90.7526,88.5872
90.7546,88.5882
90.7566,88.5902
90.7586,88.5912
90.7606,88.5932
90.7626,88.5952
90.7646,88.5972
90.7666,88.5992
90.7676,88.6012
90.7696,88.6032
90.7706,88.6052
90.7726,88.6072
90.7736,88.6102
90.7746,88.6122
90.7756,88.6152
90.7756,88.6172
90.7766,88.6202
90.7766,88.6222
90.7776,88.6252
90.7776,88.6272
90.7776,88.6302
90.7776,89.0802
90.7776,89.0832
90.7776,89.0852
90.7766,89.0882
90.7766,89.0902
90.7756,89.0932
90.7756,89.0952
90.7746,89.0982
90.7736,89.1002
90.7726,89.1032
90.7706,89.1052
90.7696,89.1072
90.7676,89.1092
90.7666,89.1112
90.7646,89.1132
90.7626,89.1152
90.7606,89.1172
90.7586,89.1192
90.7566,89.1202
90.7546,89.1222
90.7526,89.1232
90.7506,89.1252
90.7476,89.1262
90.7456,89.1272
90.7426,89.1282
90.7406,89.1282
90.7376,89.1292
90.7356,89.1292
90.7326,89.1302
90.7306,89.1302
90.7276,89.1302
90.5776,89.1302
90.5746,89.1302
90.5726,89.1302
90.5696,89.1292
90.5676,89.1292
90.5646,89.1282
90.5626,89.1282
90.5596,89.1272
90.5576,89.1262
90.5546,89.1252
90.5526,89.1232
90.5506,89.1222
90.5486,89.1202
90.5466,89.1192
90.5446,89.1172
90.5426,89.1152
90.5406,89.1132
90.5386,89.1112
90.5376,89.1092
90.5356,89.1072
90.5346,89.1052
90.5326,89.1032
90.5316,89.1002
90.5306,89.0982
90.5296,89.0952
90.5296,89.0932
90.5286,89.0902
90.5286,89.0882
90.5276,89.0852
90.5276,89.0832
90.5276,89.0802
90.5276,88.6302
90.5276,88.6272
90.5276,88.6252
90.5286,88.6222
90.5286,88.6202
90.5296,88.6172
90.5296,88.6152
90.5306,88.6122
90.5316,88.6102
90.5326,88.6072
90.5346,88.6052
90.5356,88.6032
90.5376,88.6012
90.5386,88.5992
90.5406,88.5972
90.5426,88.5952
90.5446,88.5932
90.5466,88.5912
90.5486,88.5902
90.5506,88.5882
90.5526,88.5872
90.5546,88.5852
90.5576,88.5842
90.5596,88.5832
90.5626,88.5822
90.5646,88.5822
90.5676,88.5812
90.5696,88.5812
90.5726,88.5802
90.5746,88.5802
90.5776,88.5802
90.7276,88.5802
90.7306,88.5802
90.7326,88.5802
Z" /> 
<path style="fill:#000000; fill-opacity:1.0000; 
stroke:#000000; stroke-width:0.0100; stroke-opacity:1; 
stroke-linecap:round; stroke-linejoin:round;fill-rule:evenodd;"
d="M 90.7356,89.3312
90.7376,89.3312
90.7406,89.3322
90.7426,89.3322
90.7456,89.3332
90.7476,89.3342
90.7506,89.3352
90.7526,89.3372
90.7546,89.3382
90.7566,89.3402
90.7586,89.3412
90.7606,89.3432
90.7626,89.3452
90.7646,89.3472
90.7666,89.3492
90.7676,89.3512
90.7696,89.3532
90.7706,89.3552
90.7726,89.3572
90.7736,89.3602
90.7746,89.3622
90.7756,89.3652
90.7756,89.3672
90.7766,89.3702
90.7766,89.3722
90.7776,89.3752
90.7776,89.3772
90.7776,89.3802
90.7776,89.8302
90.7776,89.8332
90.7776,89.8352
90.7766,89.8382
90.7766,89.8402
90.7756,89.8432
90.7756,89.8452
90.7746,89.8482
90.7736,89.8502
90.7726,89.8532
90.7706,89.8552
90.7696,89.8572
90.7676,89.8592
90.7666,89.8612
90.7646,89.8632
90.7626,89.8652
90.7606,89.8672
90.7586,89.8692
90.7566,89.8702
90.7546,89.8722
90.7526,89.8732
90.7506,89.8752
90.7476,89.8762
90.7456,89.8772
90.7426,89.8782
90.7406,89.8782
90.7376,89.8792
90.7356,89.8792
90.7326,89.8802
90.7306,89.8802
90.7276,89.8802
90.5776,89.8802
90.5746,89.8802
90.5726,89.8802
90.5696,89.8792
90.5676,89.8792
90.5646,89.8782
90.5626,89.8782
90.5596,89.8772
90.5576,89.8762
90.5546,89.8752
90.5526,89.8732
90.5506,89.8722
90.5486,89.8702
90.5466,89.8692
90.5446,89.8672
90.5426,89.8652
90.5406,89.8632
90.5386,89.8612
90.5376,89.8592
90.5356,89.8572
90.5346,89.8552
90.5326,89.8532
90.5316,89.8502
90.5306,89.8482
90.5296,89.8452
90.5296,89.8432
90.5286,89.8402
90.5286,89.8382
90.5276,89.8352
90.5276,89.8332
90.5276,89.8302
90.5276,89.3802
90.5276,89.3772
90.5276,89.3752
90.5286,89.3722
90.5286,89.3702
90.5296,89.3672
90.5296,89.3652
90.5306,89.3622
90.5316,89.3602
90.5326,89.3572
90.5346,89.3552
90.5356,89.3532
90.5376,89.3512
90.5386,89.3492
90.5406,89.3472
90.5426,89.3452
90.5446,89.3432
90.5466,89.3412
90.5486,89.3402
90.5506,89.3382
90.5526,89.3372
90.5546,89.3352
90.5576,89.3342
90.5596,89.3332
90.5626,89.3322
90.5646,89.3322
90.5676,89.3312
90.5696,89.3312
90.5726,89.3302
90.5746,89.3302
90.5776,89.3302
90.7276,89.3302
90.7306,89.3302
90.7326,89.3302
Z" /> 
<path style="fill:#000000; fill-opacity:1.0000; 
stroke:#000000; stroke-width:0.0100; stroke-opacity:1; 
stroke-linecap:round; stroke-linejoin:round;fill-rule:evenodd;"
d="M 102.0350,89.4600
102.0370,89.4600
102.0400,89.4610
102.0420,89.4610
102.0450,89.4620
102.0470,89.4630
102.0500,89.4640
102.0520,89.4660
102.0540,89.4670
102.0560,89.4690
102.0580,89.4700
102.0600,89.4720
102.0620,89.4740
102.0640,89.4760
102.0660,89.4780
102.0670,89.4800
102.0690,89.4820
102.0700,89.4840
102.0720,89.4860
102.0730,89.4890
102.0740,89.4910
102.0750,89.4940
102.0750,89.4960
102.0760,89.4990
102.0760,89.5010
102.0770,89.5040
102.0770,89.5060
102.0770,89.5090
102.0770,89.6590
102.0770,89.6620
102.0770,89.6640
102.0760,89.6670
102.0760,89.6690
102.0750,89.6720
102.0750,89.6740
102.0740,89.6770
102.0730,89.6790
102.0720,89.6820
102.0700,89.6840
102.0690,89.6860
102.0670,89.6880
102.0660,89.6900
102.0640,89.6920
102.0620,89.6940
102.0600,89.6960
102.0580,89.6980
102.0560,89.6990
102.0540,89.7010
102.0520,89.7020
102.0500,89.7040
102.0470,89.7050
102.0450,89.7060
102.0420,89.7070
102.0400,89.7070
102.0370,89.7080
102.0350,89.7080
102.0320,89.7090
102.0300,89.7090
102.0270,89.7090
101.5770,89.7090
101.5740,89.7090
101.5720,89.7090
101.5690,89.7080
101.5670,89.7080
101.5640,89.7070
101.5620,89.7070
101.5590,89.7060
101.5570,89.7050
101.5540,89.7040
101.5520,89.7020
101.5500,89.7010
101.5480,89.6990
101.5460,89.6980
101.5440,89.6960
101.5420,89.6940
101.5400,89.6920
101.5380,89.6900
101.5370,89.6880
101.5350,89.6860
101.5340,89.6840
101.5320,89.6820
101.5310,89.6790
101.5300,89.6770
101.5290,89.6740
101.5290,89.6720
101.5280,89.6690
101.5280,89.6670
101.5270,89.6640
101.5270,89.6620
101.5270,89.6590
101.5270,89.5090
101.5270,89.5060
101.5270,89.5040
101.5280,89.5010
101.5280,89.4990
101.5290,89.4960
101.5290,89.4940
101.5300,89.4910
101.5310,89.4890
101.5320,89.4860
101.5340,89.4840
101.5350,89.4820
101.5370,89.4800
101.5380,89.4780
101.5400,89.4760
101.5420,89.4740
101.5440,89.4720
101.5460,89.4700
101.5480,89.4690
101.5500,89.4670
101.5520,89.4660
101.5540,89.4640
101.5570,89.4630
101.5590,89.4620
101.5620,89.4610
101.5640,89.4610
101.5670,89.4600
101.5690,89.4600
101.5720,89.4590
101.5740,89.4590
101.5770,89.4590
102.0270,89.4590
102.0300,89.4590
102.0320,89.4590
Z" /> 
<path style="fill:#000000; fill-opacity:1.0000; 
stroke:#000000; stroke-width:0.0100; stroke-opacity:1; 
stroke-linecap:round; stroke-linejoin:round;fill-rule:evenodd;"
d="M 102.7850,89.4600
102.7870,89.4600
102.7900,89.4610
102.7920,89.4610
102.7950,89.4620
102.7970,89.4630
102.8000,89.4640
102.8020,89.4660
102.8040,89.4670
102.8060,89.4690
102.8080,89.4700
102.8100,89.4720
102.8120,89.4740
102.8140,89.4760
102.8160,89.4780
102.8170,89.4800
102.8190,89.4820
102.8200,89.4840
102.8220,89.4860
102.8230,89.4890
102.8240,89.4910
102.8250,89.4940
102.8250,89.4960
102.8260,89.4990
102.8260,89.5010
102.8270,89.5040
102.8270,89.5060
102.8270,89.5090
102.8270,89.6590
102.8270,89.6620
102.8270,89.6640
102.8260,89.6670
102.8260,89.6690
102.8250,89.6720
102.8250,89.6740
102.8240,89.6770
102.8230,89.6790
102.8220,89.6820
102.8200,89.6840
102.8190,89.6860
102.8170,89.6880
102.8160,89.6900
102.8140,89.6920
102.8120,89.6940
102.8100,89.6960
102.8080,89.6980
102.8060,89.6990
102.8040,89.7010
102.8020,89.7020
102.8000,89.7040
102.7970,89.7050
102.7950,89.7060
102.7920,89.7070
102.7900,89.7070
102.7870,89.7080
102.7850,89.7080
102.7820,89.7090
102.7800,89.7090
102.7770,89.7090
102.3270,89.7090
102.3240,89.7090
102.3220,89.7090
102.3190,89.7080
102.3170,89.7080
102.3140,89.7070
102.3120,89.7070
102.3090,89.7060
102.3070,89.7050
102.3040,89.7040
102.3020,89.7020
102.3000,89.7010
102.2980,89.6990
102.2960,89.6980
102.2940,89.6960
102.2920,89.6940
102.2900,89.6920
102.2880,89.6900
102.2870,89.6880
102.2850,89.6860
102.2840,89.6840
102.2820,89.6820
102.2810,89.6790
102.2800,89.6770
102.2790,89.6740
102.2790,89.6720
102.2780,89.6690
102.2780,89.6670
102.2770,89.6640
102.2770,89.6620
102.2770,89.6590
102.2770,89.5090
102.2770,89.5060
102.2770,89.5040
102.2780,89.5010
102.2780,89.4990
102.2790,89.4960
102.2790,89.4940
102.2800,89.4910
102.2810,89.4890
102.2820,89.4860
102.2840,89.4840
102.2850,89.4820
102.2870,89.4800
102.2880,89.4780
102.2900,89.4760
102.2920,89.4740
102.2940,89.4720
102.2960,89.4700
102.2980,89.4690
102.3000,89.4670
102.3020,89.4660
102.3040,89.4640
102.3070,89.4630
102.3090,89.4620
102.3120,89.4610
102.3140,89.4610
102.3170,89.4600
102.3190,89.4600
102.3220,89.4590
102.3240,89.4590
102.3270,89.4590
102.7770,89.4590
102.7800,89.4590
102.7820,89.4590
Z" /> 
<path style="fill:#000000; fill-opacity:1.0000; stroke:none;fill-rule:evenodd;"
d="M 102.0870,66.5030
102.0105,66.4878
101.9456,66.4444
101.9022,66.3795
101.8870,66.3030
101.8870,65.9030
101.9022,65.8265
101.9456,65.7616
102.0105,65.7182
102.0870,65.7030
102.6370,65.7030
102.7135,65.7182
102.7784,65.7616
102.8218,65.8265
102.8370,65.9030
102.8370,66.3030
102.8218,66.3795
102.7784,66.4444
102.7135,66.4878
102.6370,66.5030
Z" /> 
<path style="fill:#000000; fill-opacity:1.0000; stroke:none;fill-rule:evenodd;"
d="M 102.0870,64.8530
102.0105,64.8378
101.9456,64.7944
101.9022,64.7295
101.8870,64.6530
101.8870,64.2530
101.9022,64.1765
101.9456,64.1116
102.0105,64.0682
102.0870,64.0530
102.6370,64.0530
102.7135,64.0682
102.7784,64.1116
102.8218,64.1765
102.8370,64.2530
102.8370,64.6530
102.8218,64.7295
102.7784,64.7944
102.7135,64.8378
102.6370,64.8530
Z" /> 
<path style="fill:#000000; fill-opacity:1.0000; stroke:none;fill-rule:evenodd;"
d="M 93.1100,80.5390
93.0948,80.6155
93.0514,80.6804
92.9865,80.7238
92.9100,80.7390
92.5100,80.7390
92.4335,80.7238
92.3686,80.6804
92.3252,80.6155
92.3100,80.5390
92.3100,79.9890
92.3252,79.9125
92.3686,79.8476
92.4335,79.8042
92.5100,79.7890
92.9100,79.7890
92.9865,79.8042
93.0514,79.8476
93.0948,79.9125
93.1100,79.9890
Z" /> 
<path style="fill:#000000; fill-opacity:1.0000; stroke:none;fill-rule:evenodd;"
d="M 91.4600,80.5390
91.4448,80.6155
91.4014,80.6804
91.3365,80.7238
91.2600,80.7390
90.8600,80.7390
90.7835,80.7238
90.7186,80.6804
90.6752,80.6155
90.6600,80.5390
90.6600,79.9890
90.6752,79.9125
90.7186,79.8476
90.7835,79.8042
90.8600,79.7890
91.2600,79.7890
91.3365,79.8042
91.4014,79.8476
91.4448,79.9125
91.4600,79.9890
Z" /> 
<path style="fill:#000000; fill-opacity:1.0000; stroke:none;fill-rule:evenodd;"
d="M 93.2492,91.2644
93.2325,91.3482
93.1851,91.4191
93.1142,91.4665
93.0305,91.4832
92.5930,91.4832
92.5092,91.4665
92.4383,91.4191
92.3909,91.3482
92.3742,91.2644
92.3742,90.7519
92.3909,90.6682
92.4383,90.5973
92.5092,90.5499
92.5930,90.5332
93.0305,90.5332
93.1142,90.5499
93.1851,90.5973
93.2325,90.6682
93.2492,90.7519
Z" /> 
<path style="fill:#000000; fill-opacity:1.0000; stroke:none;fill-rule:evenodd;"
d="M 91.6742,91.2644
91.6575,91.3482
91.6101,91.4191
91.5392,91.4665
91.4554,91.4832
91.0179,91.4832
90.9342,91.4665
90.8633,91.4191
90.8159,91.3482
90.7992,91.2644
90.7992,90.7519
90.8159,90.6682
90.8633,90.5973
90.9342,90.5499
91.0179,90.5332
91.4554,90.5332
91.5392,90.5499
91.6101,90.5973
91.6575,90.6682
91.6742,90.7519
Z" /> 
<path style="fill:#000000; fill-opacity:1.0000; stroke:none;fill-rule:evenodd;"
d="M 84.5500,80.5140
84.5329,80.6001
84.4841,80.6731
84.4111,80.7219
84.3250,80.7390
83.8750,80.7390
83.7889,80.7219
83.7159,80.6731
83.6671,80.6001
83.6500,80.5140
83.6500,80.0140
83.6671,79.9279
83.7159,79.8549
83.7889,79.8061
83.8750,79.7890
84.3250,79.7890
84.4111,79.8061
84.4841,79.8549
84.5329,79.9279
84.5500,80.0140
Z" /> 
<path style="fill:#000000; fill-opacity:1.0000; stroke:none;fill-rule:evenodd;"
d="M 83.0000,80.5140
82.9829,80.6001
82.9341,80.6731
82.8611,80.7219
82.7750,80.7390
82.3250,80.7390
82.2389,80.7219
82.1659,80.6731
82.1171,80.6001
82.1000,80.5140
82.1000,80.0140
82.1171,79.9279
82.1659,79.8549
82.2389,79.8061
82.3250,79.7890
82.7750,79.7890
82.8611,79.8061
82.9341,79.8549
82.9829,79.9279
83.0000,80.0140
Z" /> 
<path style="fill:#000000; fill-opacity:1.0000; stroke:none;fill-rule:evenodd;"
d="M 73.5242,68.5946
73.5356,68.5372
73.5681,68.4885
73.6168,68.4560
73.6742,68.4446
74.6992,68.4446
74.7566,68.4560
74.8053,68.4885
74.8378,68.5372
74.8492,68.5946
74.8492,68.8946
74.8378,68.9520
74.8053,69.0007
74.7566,69.0332
74.6992,69.0446
73.6742,69.0446
73.6168,69.0332
73.5681,69.0007
73.5356,68.9520
73.5242,68.8946
Z" /> 
<path style="fill:#000000; fill-opacity:1.0000; stroke:none;fill-rule:evenodd;"
d="M 73.5242,69.5446
73.5356,69.4872
73.5681,69.4385
73.6168,69.4060
73.6742,69.3946
74.6992,69.3946
74.7566,69.4060
74.8053,69.4385
74.8378,69.4872
74.8492,69.5446
74.8492,69.8446
74.8378,69.9020
74.8053,69.9507
74.7566,69.9832
74.6992,69.9946
73.6742,69.9946
73.6168,69.9832
73.5681,69.9507
73.5356,69.9020
73.5242,69.8446
Z" /> 
<path style="fill:#000000; fill-opacity:1.0000; stroke:none;fill-rule:evenodd;"
d="M 73.5242,70.4946
73.5356,70.4372
73.5681,70.3885
73.6168,70.3560
73.6742,70.3446
74.6992,70.3446
74.7566,70.3560
74.8053,70.3885
74.8378,70.4372
74.8492,70.4946
74.8492,70.7946
74.8378,70.8520
74.8053,70.9007
74.7566,70.9332
74.6992,70.9446
73.6742,70.9446
73.6168,70.9332
73.5681,70.9007
73.5356,70.8520
73.5242,70.7946
Z" /> 
<path style="fill:#000000; fill-opacity:1.0000; stroke:none;fill-rule:evenodd;"
d="M 75.7992,70.4946
75.8106,70.4372
75.8431,70.3885
75.8918,70.3560
75.9492,70.3446
76.9742,70.3446
77.0316,70.3560
77.0803,70.3885
77.1128,70.4372
77.1242,70.4946
77.1242,70.7946
77.1128,70.8520
77.0803,70.9007
77.0316,70.9332
76.9742,70.9446
75.9492,70.9446
75.8918,70.9332
75.8431,70.9007
75.8106,70.8520
75.7992,70.7946
Z" /> 
<path style="fill:#000000; fill-opacity:1.0000; stroke:none;fill-rule:evenodd;"
d="M 75.7992,69.5446
75.8106,69.4872
75.8431,69.4385
75.8918,69.4060
75.9492,69.3946
76.9742,69.3946
77.0316,69.4060
77.0803,69.4385
77.1128,69.4872
77.1242,69.5446
77.1242,69.8446
77.1128,69.9020
77.0803,69.9507
77.0316,69.9832
76.9742,69.9946
75.9492,69.9946
75.8918,69.9832
75.8431,69.9507
75.8106,69.9020
75.7992,69.8446
Z" /> 
<path style="fill:#000000; fill-opacity:1.0000; stroke:none;fill-rule:evenodd;"
d="M 75.7992,68.5946
75.8106,68.5372
75.8431,68.4885
75.8918,68.4560
75.9492,68.4446
76.9742,68.4446
77.0316,68.4560
77.0803,68.4885
77.1128,68.5372
77.1242,68.5946
77.1242,68.8946
77.1128,68.9520
77.0803,69.0007
77.0316,69.0332
76.9742,69.0446
75.9492,69.0446
75.8918,69.0332
75.8431,69.0007
75.8106,68.9520
75.7992,68.8946
Z" /> 
<path style="fill:#000000; fill-opacity:1.0000; stroke:none;fill-rule:evenodd;"
d="M 67.6157,91.8975
67.5225,91.8789
67.4434,91.8261
67.3906,91.7470
67.3720,91.6538
67.3720,91.1662
67.3906,91.0730
67.4434,90.9939
67.5225,90.9411
67.6157,90.9225
68.5282,90.9225
68.6215,90.9411
68.7006,90.9939
68.7534,91.0730
68.7720,91.1662
68.7720,91.6538
68.7534,91.7470
68.7006,91.8261
68.6215,91.8789
68.5282,91.8975
Z" /> 
<path style="fill:#000000; fill-opacity:1.0000; stroke:none;fill-rule:evenodd;"
d="M 67.6157,90.0225
67.5225,90.0039
67.4434,89.9511
67.3906,89.8720
67.3720,89.7788
67.3720,89.2912
67.3906,89.1980
67.4434,89.1189
67.5225,89.0661
67.6157,89.0475
68.5282,89.0475
68.6215,89.0661
68.7006,89.1189
68.7534,89.1980
68.7720,89.2912
68.7720,89.7788
68.7534,89.8720
68.7006,89.9511
68.6215,90.0039
68.5282,90.0225
Z" /> 
<path style="fill:#000000; fill-opacity:1.0000; stroke:none;fill-rule:evenodd;"
d="M 87.7360,86.6960
87.6595,86.6808
87.5946,86.6374
87.5512,86.5725
87.5360,86.4960
87.5360,86.0960
87.5512,86.0195
87.5946,85.9546
87.6595,85.9112
87.7360,85.8960
88.2860,85.8960
88.3625,85.9112
88.4274,85.9546
88.4708,86.0195
88.4860,86.0960
88.4860,86.4960
88.4708,86.5725
88.4274,86.6374
88.3625,86.6808
88.2860,86.6960
Z" /> 
<path style="fill:#000000; fill-opacity:1.0000; stroke:none;fill-rule:evenodd;"
d="M 87.7360,85.0460
87.6595,85.0308
87.5946,84.9874
87.5512,84.9225
87.5360,84.8460
87.5360,84.4460
87.5512,84.3695
87.5946,84.3046
87.6595,84.2612
87.7360,84.2460
88.2860,84.2460
88.3625,84.2612
88.4274,84.3046
88.4708,84.3695
88.4860,84.4460
88.4860,84.8460
88.4708,84.9225
88.4274,84.9874
88.3625,85.0308
88.2860,85.0460
Z" /> 
<path style="fill:#000000; fill-opacity:1.0000; stroke:none;fill-rule:evenodd;"
d="M 93.7780,80.9459
93.7951,80.8598
93.8439,80.7868
93.9169,80.7380
94.0030,80.7209
94.4530,80.7209
94.5391,80.7380
94.6121,80.7868
94.6609,80.8598
94.6780,80.9459
94.6780,81.4459
94.6609,81.5320
94.6121,81.6050
94.5391,81.6538
94.4530,81.6709
94.0030,81.6709
93.9169,81.6538
93.8439,81.6050
93.7951,81.5320
93.7780,81.4459
Z" /> 
<path style="fill:#000000; fill-opacity:1.0000; stroke:none;fill-rule:evenodd;"
d="M 95.3280,80.9459
95.3451,80.8598
95.3939,80.7868
95.4669,80.7380
95.5530,80.7209
96.0030,80.7209
96.0891,80.7380
96.1621,80.7868
96.2109,80.8598
96.2280,80.9459
96.2280,81.4459
96.2109,81.5320
96.1621,81.6050
96.0891,81.6538
96.0030,81.6709
95.5530,81.6709
95.4669,81.6538
95.3939,81.6050
95.3451,81.5320
95.3280,81.4459
Z" /> 
<path style="fill:#000000; fill-opacity:1.0000; stroke:none;fill-rule:evenodd;"
d="M 73.4896,66.7220
73.5048,66.6455
73.5482,66.5806
73.6131,66.5372
73.6896,66.5220
74.0896,66.5220
74.1661,66.5372
74.2310,66.5806
74.2744,66.6455
74.2896,66.7220
74.2896,67.2720
74.2744,67.3485
74.2310,67.4134
74.1661,67.4568
74.0896,67.4720
73.6896,67.4720
73.6131,67.4568
73.5482,67.4134
73.5048,67.3485
73.4896,67.2720
Z" /> 
<path style="fill:#000000; fill-opacity:1.0000; stroke:none;fill-rule:evenodd;"
d="M 75.1396,66.7220
75.1548,66.6455
75.1982,66.5806
75.2631,66.5372
75.3396,66.5220
75.7396,66.5220
75.8161,66.5372
75.8810,66.5806
75.9244,66.6455
75.9396,66.7220
75.9396,67.2720
75.9244,67.3485
75.8810,67.4134
75.8161,67.4568
75.7396,67.4720
75.3396,67.4720
75.2631,67.4568
75.1982,67.4134
75.1548,67.3485
75.1396,67.2720
Z" /> 
<path style="fill:#000000; fill-opacity:1.0000; stroke:none;fill-rule:evenodd;"
d="M 91.7276,87.4802
91.7467,87.4840
91.7630,87.4948
91.7738,87.5111
91.7776,87.5302
91.7776,88.0302
91.7738,88.0493
91.7630,88.0656
91.7467,88.0764
91.7276,88.0802
91.5776,88.0802
91.5585,88.0764
91.5422,88.0656
91.5314,88.0493
91.5276,88.0302
91.5276,87.5302
91.5314,87.5111
91.5422,87.4948
91.5585,87.4840
91.5776,87.4802
Z" /> 
<path style="fill:#000000; fill-opacity:1.0000; stroke:none;fill-rule:evenodd;"
d="M 91.2276,87.4802
91.2467,87.4840
91.2630,87.4948
91.2738,87.5111
91.2776,87.5302
91.2776,88.0302
91.2738,88.0493
91.2630,88.0656
91.2467,88.0764
91.2276,88.0802
91.0776,88.0802
91.0585,88.0764
91.0422,88.0656
91.0314,88.0493
91.0276,88.0302
91.0276,87.5302
91.0314,87.5111
91.0422,87.4948
91.0585,87.4840
91.0776,87.4802
Z" /> 
<path style="fill:#000000; fill-opacity:1.0000; stroke:none;fill-rule:evenodd;"
d="M 90.7276,87.4802
90.7467,87.4840
90.7630,87.4948
90.7738,87.5111
90.7776,87.5302
90.7776,88.0302
90.7738,88.0493
90.7630,88.0656
90.7467,88.0764
90.7276,88.0802
90.5776,88.0802
90.5585,88.0764
90.5422,88.0656
90.5314,88.0493
90.5276,88.0302
90.5276,87.5302
90.5314,87.5111
90.5422,87.4948
90.5585,87.4840
90.5776,87.4802
Z" /> 
<path style="fill:#000000; fill-opacity:1.0000; stroke:none;fill-rule:evenodd;"
d="M 90.2276,87.4802
90.2467,87.4840
90.2630,87.4948
90.2738,87.5111
90.2776,87.5302
90.2776,88.0302
90.2738,88.0493
90.2630,88.0656
90.2467,88.0764
90.2276,88.0802
90.0776,88.0802
90.0585,88.0764
90.0422,88.0656
90.0314,88.0493
90.0276,88.0302
90.0276,87.5302
90.0314,87.5111
90.0422,87.4948
90.0585,87.4840
90.0776,87.4802
Z" /> 
<path style="fill:#000000; fill-opacity:1.0000; stroke:none;fill-rule:evenodd;"
d="M 89.7276,87.4802
89.7467,87.4840
89.7630,87.4948
89.7738,87.5111
89.7776,87.5302
89.7776,88.0302
89.7738,88.0493
89.7630,88.0656
89.7467,88.0764
89.7276,88.0802
89.5776,88.0802
89.5585,88.0764
89.5422,88.0656
89.5314,88.0493
89.5276,88.0302
89.5276,87.5302
89.5314,87.5111
89.5422,87.4948
89.5585,87.4840
89.5776,87.4802
Z" /> 
<path style="fill:#000000; fill-opacity:1.0000; stroke:none;fill-rule:evenodd;"
d="M 89.7276,88.9802
89.7467,88.9840
89.7630,88.9948
89.7738,89.0111
89.7776,89.0302
89.7776,89.8302
89.7738,89.8493
89.7630,89.8656
89.7467,89.8764
89.7276,89.8802
89.5776,89.8802
89.5585,89.8764
89.5422,89.8656
89.5314,89.8493
89.5276,89.8302
89.5276,89.0302
89.5314,89.0111
89.5422,88.9948
89.5585,88.9840
89.5776,88.9802
Z" /> 
<path style="fill:#000000; fill-opacity:1.0000; stroke:none;fill-rule:evenodd;"
d="M 90.2276,88.9802
90.2467,88.9840
90.2630,88.9948
90.2738,89.0111
90.2776,89.0302
90.2776,89.8302
90.2738,89.8493
90.2630,89.8656
90.2467,89.8764
90.2276,89.8802
90.0776,89.8802
90.0585,89.8764
90.0422,89.8656
90.0314,89.8493
90.0276,89.8302
90.0276,89.0302
90.0314,89.0111
90.0422,88.9948
90.0585,88.9840
90.0776,88.9802
Z" /> 
<path style="fill:#000000; fill-opacity:1.0000; stroke:none;fill-rule:evenodd;"
d="M 91.2276,88.9802
91.2467,88.9840
91.2630,88.9948
91.2738,89.0111
91.2776,89.0302
91.2776,89.8302
91.2738,89.8493
91.2630,89.8656
91.2467,89.8764
91.2276,89.8802
91.0776,89.8802
91.0585,89.8764
91.0422,89.8656
91.0314,89.8493
91.0276,89.8302
91.0276,89.0302
91.0314,89.0111
91.0422,88.9948
91.0585,88.9840
91.0776,88.9802
Z" /> 
<path style="fill:#000000; fill-opacity:1.0000; stroke:none;fill-rule:evenodd;"
d="M 91.7276,88.9802
91.7467,88.9840
91.7630,88.9948
91.7738,89.0111
91.7776,89.0302
91.7776,89.8302
91.7738,89.8493
91.7630,89.8656
91.7467,89.8764
91.7276,89.8802
91.5776,89.8802
91.5585,89.8764
91.5422,89.8656
91.5314,89.8493
91.5276,89.8302
91.5276,89.0302
91.5314,89.0111
91.5422,88.9948
91.5585,88.9840
91.5776,88.9802
Z" /> 
<path style="fill:#000000; fill-opacity:1.0000; stroke:none;fill-rule:evenodd;"
d="M 85.1182,62.3144
85.1182,61.4144
86.0182,61.4144
86.0182,62.3144
Z" /> 
<path style="fill:#000000; fill-opacity:1.0000; stroke:none;fill-rule:evenodd;"
d="M 85.1182,62.8144
86.0182,62.8144
86.0182,63.7144
85.1182,63.7144
Z" /> 
<path style="fill:#000000; fill-opacity:1.0000; stroke:none;fill-rule:evenodd;"
d="M 85.1182,65.1144
85.1182,64.2144
86.0182,64.2144
86.0182,65.1144
Z" /> 
<path style="fill:#000000; fill-opacity:1.0000; stroke:none;fill-rule:evenodd;"
d="M 86.5182,61.4144
87.4182,61.4144
87.4182,62.3144
86.5182,62.3144
Z" /> 
<path style="fill:#000000; fill-opacity:1.0000; stroke:none;fill-rule:evenodd;"
d="M 86.5182,62.8144
87.4182,62.8144
87.4182,63.7144
86.5182,63.7144
Z" /> 
<path style="fill:#000000; fill-opacity:1.0000; stroke:none;fill-rule:evenodd;"
d="M 86.5182,64.2144
87.4182,64.2144
87.4182,65.1144
86.5182,65.1144
Z" /> 
<path style="fill:#000000; fill-opacity:1.0000; stroke:none;fill-rule:evenodd;"
d="M 87.9182,61.4144
88.8182,61.4144
88.8182,62.3144
87.9182,62.3144
Z" /> 
<path style="fill:#000000; fill-opacity:1.0000; stroke:none;fill-rule:evenodd;"
d="M 87.9182,62.8144
88.8182,62.8144
88.8182,63.7144
87.9182,63.7144
Z" /> 
<path style="fill:#000000; fill-opacity:1.0000; stroke:none;fill-rule:evenodd;"
d="M 87.9182,64.2144
88.8182,64.2144
88.8182,65.1144
87.9182,65.1144
Z" /> 
<path style="fill:#000000; fill-opacity:1.0000; stroke:none;fill-rule:evenodd;"
d="M 78.9682,55.9944
78.9682,55.0944
80.4682,55.0944
80.4682,55.9944
Z" /> 
<path style="fill:#000000; fill-opacity:1.0000; stroke:none;fill-rule:evenodd;"
d="M 78.9682,57.2644
78.9682,56.3644
80.4682,56.3644
80.4682,57.2644
Z" /> 
<path style="fill:#000000; fill-opacity:1.0000; stroke:none;fill-rule:evenodd;"
d="M 78.9682,58.5344
78.9682,57.6344
80.4682,57.6344
80.4682,58.5344
Z" /> 
<path style="fill:#000000; fill-opacity:1.0000; stroke:none;fill-rule:evenodd;"
d="M 78.9682,59.8044
78.9682,58.9044
80.4682,58.9044
80.4682,59.8044
Z" /> 
<path style="fill:#000000; fill-opacity:1.0000; stroke:none;fill-rule:evenodd;"
d="M 78.9682,61.0744
78.9682,60.1744
80.4682,60.1744
80.4682,61.0744
Z" /> 
<path style="fill:#000000; fill-opacity:1.0000; stroke:none;fill-rule:evenodd;"
d="M 78.9682,62.3444
78.9682,61.4444
80.4682,61.4444
80.4682,62.3444
Z" /> 
<path style="fill:#000000; fill-opacity:1.0000; stroke:none;fill-rule:evenodd;"
d="M 78.9682,63.6144
78.9682,62.7144
80.4682,62.7144
80.4682,63.6144
Z" /> 
<path style="fill:#000000; fill-opacity:1.0000; stroke:none;fill-rule:evenodd;"
d="M 78.9682,64.8844
78.9682,63.9844
80.4682,63.9844
80.4682,64.8844
Z" /> 
<path style="fill:#000000; fill-opacity:1.0000; stroke:none;fill-rule:evenodd;"
d="M 78.9682,66.1544
78.9682,65.2544
80.4682,65.2544
80.4682,66.1544
Z" /> 
<path style="fill:#000000; fill-opacity:1.0000; stroke:none;fill-rule:evenodd;"
d="M 78.9682,67.4244
78.9682,66.5244
80.4682,66.5244
80.4682,67.4244
Z" /> 
<path style="fill:#000000; fill-opacity:1.0000; stroke:none;fill-rule:evenodd;"
d="M 78.9682,68.6944
78.9682,67.7944
80.4682,67.7944
80.4682,68.6944
Z" /> 
<path style="fill:#000000; fill-opacity:1.0000; stroke:none;fill-rule:evenodd;"
d="M 78.9682,69.9644
78.9682,69.0644
80.4682,69.0644
80.4682,69.9644
Z" /> 
<path style="fill:#000000; fill-opacity:1.0000; stroke:none;fill-rule:evenodd;"
d="M 78.9682,71.2344
78.9682,70.3344
80.4682,70.3344
80.4682,71.2344
Z" /> 
<path style="fill:#000000; fill-opacity:1.0000; stroke:none;fill-rule:evenodd;"
d="M 80.4682,71.6044
80.4682,72.5044
78.9682,72.5044
78.9682,71.6044
Z" /> 
<path style="fill:#000000; fill-opacity:1.0000; stroke:none;fill-rule:evenodd;"
d="M 81.0332,72.5544
81.9332,72.5544
81.9332,74.0544
81.0332,74.0544
Z" /> 
<path style="fill:#000000; fill-opacity:1.0000; stroke:none;fill-rule:evenodd;"
d="M 82.3032,72.5544
83.2032,72.5544
83.2032,74.0544
82.3032,74.0544
Z" /> 
<path style="fill:#000000; fill-opacity:1.0000; stroke:none;fill-rule:evenodd;"
d="M 83.5732,72.5544
84.4732,72.5544
84.4732,74.0544
83.5732,74.0544
Z" /> 
<path style="fill:#000000; fill-opacity:1.0000; stroke:none;fill-rule:evenodd;"
d="M 84.8432,72.5544
85.7432,72.5544
85.7432,74.0544
84.8432,74.0544
Z" /> 
<path style="fill:#000000; fill-opacity:1.0000; stroke:none;fill-rule:evenodd;"
d="M 86.1132,72.5544
87.0132,72.5544
87.0132,74.0544
86.1132,74.0544
Z" /> 
<path style="fill:#000000; fill-opacity:1.0000; stroke:none;fill-rule:evenodd;"
d="M 87.3832,72.5544
88.2832,72.5544
88.2832,74.0544
87.3832,74.0544
Z" /> 
<path style="fill:#000000; fill-opacity:1.0000; stroke:none;fill-rule:evenodd;"
d="M 88.6532,72.5544
89.5532,72.5544
89.5532,74.0544
88.6532,74.0544
Z" /> 
<path style="fill:#000000; fill-opacity:1.0000; stroke:none;fill-rule:evenodd;"
d="M 89.9232,72.5544
90.8232,72.5544
90.8232,74.0544
89.9232,74.0544
Z" /> 
<path style="fill:#000000; fill-opacity:1.0000; stroke:none;fill-rule:evenodd;"
d="M 91.1932,72.5544
92.0932,72.5544
92.0932,74.0544
91.1932,74.0544
Z" /> 
<path style="fill:#000000; fill-opacity:1.0000; stroke:none;fill-rule:evenodd;"
d="M 92.4632,72.5544
93.3632,72.5544
93.3632,74.0544
92.4632,74.0544
Z" /> 
<path style="fill:#000000; fill-opacity:1.0000; stroke:none;fill-rule:evenodd;"
d="M 93.7332,72.5544
94.6332,72.5544
94.6332,74.0544
93.7332,74.0544
Z" /> 
<path style="fill:#000000; fill-opacity:1.0000; stroke:none;fill-rule:evenodd;"
d="M 95.0032,72.5544
95.9032,72.5544
95.9032,74.0544
95.0032,74.0544
Z" /> 
<path style="fill:#000000; fill-opacity:1.0000; stroke:none;fill-rule:evenodd;"
d="M 96.4682,72.5044
96.4682,71.6044
97.9682,71.6044
97.9682,72.5044
Z" /> 
<path style="fill:#000000; fill-opacity:1.0000; stroke:none;fill-rule:evenodd;"
d="M 96.4682,71.2344
96.4682,70.3344
97.9682,70.3344
97.9682,71.2344
Z" /> 
<path style="fill:#000000; fill-opacity:1.0000; stroke:none;fill-rule:evenodd;"
d="M 96.4682,69.9644
96.4682,69.0644
97.9682,69.0644
97.9682,69.9644
Z" /> 
<path style="fill:#000000; fill-opacity:1.0000; stroke:none;fill-rule:evenodd;"
d="M 96.4682,68.6944
96.4682,67.7944
97.9682,67.7944
97.9682,68.6944
Z" /> 
<path style="fill:#000000; fill-opacity:1.0000; stroke:none;fill-rule:evenodd;"
d="M 96.4682,67.4244
96.4682,66.5244
97.9682,66.5244
97.9682,67.4244
Z" /> 
<path style="fill:#000000; fill-opacity:1.0000; stroke:none;fill-rule:evenodd;"
d="M 96.4682,66.1544
96.4682,65.2544
97.9682,65.2544
97.9682,66.1544
Z" /> 
<path style="fill:#000000; fill-opacity:1.0000; stroke:none;fill-rule:evenodd;"
d="M 96.4682,64.8844
96.4682,63.9844
97.9682,63.9844
97.9682,64.8844
Z" /> 
<path style="fill:#000000; fill-opacity:1.0000; stroke:none;fill-rule:evenodd;"
d="M 96.4682,63.6144
96.4682,62.7144
97.9682,62.7144
97.9682,63.6144
Z" /> 
<path style="fill:#000000; fill-opacity:1.0000; stroke:none;fill-rule:evenodd;"
d="M 96.4682,62.3444
96.4682,61.4444
97.9682,61.4444
97.9682,62.3444
Z" /> 
<path style="fill:#000000; fill-opacity:1.0000; stroke:none;fill-rule:evenodd;"
d="M 96.4682,61.0744
96.4682,60.1744
97.9682,60.1744
97.9682,61.0744
Z" /> 
<path style="fill:#000000; fill-opacity:1.0000; stroke:none;fill-rule:evenodd;"
d="M 96.4682,59.8044
96.4682,58.9044
97.9682,58.9044
97.9682,59.8044
Z" /> 
<path style="fill:#000000; fill-opacity:1.0000; stroke:none;fill-rule:evenodd;"
d="M 96.4682,58.5344
96.4682,57.6344
97.9682,57.6344
97.9682,58.5344
Z" /> 
<path style="fill:#000000; fill-opacity:1.0000; stroke:none;fill-rule:evenodd;"
d="M 96.4682,57.2644
96.4682,56.3644
97.9682,56.3644
97.9682,57.2644
Z" /> 
<path style="fill:#000000; fill-opacity:1.0000; stroke:none;fill-rule:evenodd;"
d="M 96.4682,55.9944
96.4682,55.0944
97.9682,55.0944
97.9682,55.9944
Z" /> 
<path style="fill:#000000; fill-opacity:1.0000; stroke:none;fill-rule:evenodd;"
d="M 103.5660,88.7341
103.5827,88.6504
103.6301,88.5795
103.7010,88.5321
103.7847,88.5154
104.2222,88.5154
104.3060,88.5321
104.3769,88.5795
104.4243,88.6504
104.4410,88.7341
104.4410,89.2467
104.4243,89.3304
104.3769,89.4013
104.3060,89.4487
104.2222,89.4654
103.7847,89.4654
103.7010,89.4487
103.6301,89.4013
103.5827,89.3304
103.5660,89.2467
Z" /> 
<path style="fill:#000000; fill-opacity:1.0000; stroke:none;fill-rule:evenodd;"
d="M 105.1410,88.7341
105.1577,88.6504
105.2051,88.5795
105.2760,88.5321
105.3597,88.5154
105.7972,88.5154
105.8810,88.5321
105.9519,88.5795
105.9993,88.6504
106.0160,88.7341
106.0160,89.2467
105.9993,89.3304
105.9519,89.4013
105.8810,89.4487
105.7972,89.4654
105.3597,89.4654
105.2760,89.4487
105.2051,89.4013
105.1577,89.3304
105.1410,89.2467
Z" /> 
<path style="fill:#000000; fill-opacity:1.0000; stroke:none;fill-rule:evenodd;"
d="M 99.4120,88.9864
99.3949,89.0725
99.3461,89.1455
99.2731,89.1943
99.1870,89.2114
98.7370,89.2114
98.6509,89.1943
98.5779,89.1455
98.5291,89.0725
98.5120,88.9864
98.5120,88.4864
98.5291,88.4003
98.5779,88.3273
98.6509,88.2785
98.7370,88.2614
99.1870,88.2614
99.2731,88.2785
99.3461,88.3273
99.3949,88.4003
99.4120,88.4864
Z" /> 
<path style="fill:#000000; fill-opacity:1.0000; stroke:none;fill-rule:evenodd;"
d="M 97.8620,88.9864
97.8449,89.0725
97.7961,89.1455
97.7231,89.1943
97.6370,89.2114
97.1870,89.2114
97.1009,89.1943
97.0279,89.1455
96.9791,89.0725
96.9620,88.9864
96.9620,88.4864
96.9791,88.4003
97.0279,88.3273
97.1009,88.2785
97.1870,88.2614
97.6370,88.2614
97.7231,88.2785
97.7961,88.3273
97.8449,88.4003
97.8620,88.4864
Z" /> 
<path style="fill:#000000; fill-opacity:1.0000; stroke:none;fill-rule:evenodd;"
d="M 103.4500,90.3500
103.4671,90.2639
103.5159,90.1909
103.5889,90.1421
103.6750,90.1250
104.1250,90.1250
104.2111,90.1421
104.2841,90.1909
104.3329,90.2639
104.3500,90.3500
104.3500,90.8500
104.3329,90.9361
104.2841,91.0091
104.2111,91.0579
104.1250,91.0750
103.6750,91.0750
103.5889,91.0579
103.5159,91.0091
103.4671,90.9361
103.4500,90.8500
Z" /> 
<path style="fill:#000000; fill-opacity:1.0000; stroke:none;fill-rule:evenodd;"
d="M 105.0000,90.3500
105.0171,90.2639
105.0659,90.1909
105.1389,90.1421
105.2250,90.1250
105.6750,90.1250
105.7611,90.1421
105.8341,90.1909
105.8829,90.2639
105.9000,90.3500
105.9000,90.8500
105.8829,90.9361
105.8341,91.0091
105.7611,91.0579
105.6750,91.0750
105.2250,91.0750
105.1389,91.0579
105.0659,91.0091
105.0171,90.9361
105.0000,90.8500
Z" /> 
<path style="fill:#000000; fill-opacity:1.0000; stroke:none;fill-rule:evenodd;"
d="M 64.5322,91.8975
64.4389,91.8789
64.3598,91.8261
64.3070,91.7470
64.2884,91.6538
64.2884,91.1662
64.3070,91.0730
64.3598,90.9939
64.4389,90.9411
64.5322,90.9225
65.4446,90.9225
65.5379,90.9411
65.6170,90.9939
65.6698,91.0730
65.6884,91.1662
65.6884,91.6538
65.6698,91.7470
65.6170,91.8261
65.5379,91.8789
65.4446,91.8975
Z" /> 
<path style="fill:#000000; fill-opacity:1.0000; stroke:none;fill-rule:evenodd;"
d="M 64.5322,90.0225
64.4389,90.0039
64.3598,89.9511
64.3070,89.8720
64.2884,89.7788
64.2884,89.2912
64.3070,89.1980
64.3598,89.1189
64.4389,89.0661
64.5322,89.0475
65.4446,89.0475
65.5379,89.0661
65.6170,89.1189
65.6698,89.1980
65.6884,89.2912
65.6884,89.7788
65.6698,89.8720
65.6170,89.9511
65.5379,90.0039
65.4446,90.0225
Z" /> 
<path style="fill:#000000; fill-opacity:1.0000; stroke:none;fill-rule:evenodd;"
d="M 84.3690,77.1469
84.3538,77.2234
84.3104,77.2883
84.2455,77.3317
84.1690,77.3469
83.7690,77.3469
83.6925,77.3317
83.6276,77.2883
83.5842,77.2234
83.5690,77.1469
83.5690,76.5969
83.5842,76.5204
83.6276,76.4555
83.6925,76.4121
83.7690,76.3969
84.1690,76.3969
84.2455,76.4121
84.3104,76.4555
84.3538,76.5204
84.3690,76.5969
Z" /> 
<path style="fill:#000000; fill-opacity:1.0000; stroke:none;fill-rule:evenodd;"
d="M 82.7190,77.1469
82.7038,77.2234
82.6604,77.2883
82.5955,77.3317
82.5190,77.3469
82.1190,77.3469
82.0425,77.3317
81.9776,77.2883
81.9342,77.2234
81.9190,77.1469
81.9190,76.5969
81.9342,76.5204
81.9776,76.4555
82.0425,76.4121
82.1190,76.3969
82.5190,76.3969
82.5955,76.4121
82.6604,76.4555
82.7038,76.5204
82.7190,76.5969
Z" /> 
<path style="fill:#000000; fill-opacity:1.0000; stroke:none;fill-rule:evenodd;"
d="M 73.5404,72.0612
73.5556,71.9847
73.5990,71.9198
73.6639,71.8764
73.7404,71.8612
74.1404,71.8612
74.2169,71.8764
74.2818,71.9198
74.3252,71.9847
74.3404,72.0612
74.3404,72.6112
74.3252,72.6877
74.2818,72.7526
74.2169,72.7960
74.1404,72.8112
73.7404,72.8112
73.6639,72.7960
73.5990,72.7526
73.5556,72.6877
73.5404,72.6112
Z" /> 
<path style="fill:#000000; fill-opacity:1.0000; stroke:none;fill-rule:evenodd;"
d="M 75.1904,72.0612
75.2056,71.9847
75.2490,71.9198
75.3139,71.8764
75.3904,71.8612
75.7904,71.8612
75.8669,71.8764
75.9318,71.9198
75.9752,71.9847
75.9904,72.0612
75.9904,72.6112
75.9752,72.6877
75.9318,72.7526
75.8669,72.7960
75.7904,72.8112
75.3904,72.8112
75.3139,72.7960
75.2490,72.7526
75.2056,72.6877
75.1904,72.6112
Z" /> 
<path style="fill:#000000; fill-opacity:1.0000; stroke:none;fill-rule:evenodd;"
d="M 74.4380,79.8569
74.5241,79.8740
74.5971,79.9228
74.6459,79.9958
74.6630,80.0819
74.6630,80.5319
74.6459,80.6180
74.5971,80.6910
74.5241,80.7398
74.4380,80.7569
73.9380,80.7569
73.8519,80.7398
73.7789,80.6910
73.7301,80.6180
73.7130,80.5319
73.7130,80.0819
73.7301,79.9958
73.7789,79.9228
73.8519,79.8740
73.9380,79.8569
Z" /> 
<path style="fill:#000000; fill-opacity:1.0000; stroke:none;fill-rule:evenodd;"
d="M 74.4380,81.4069
74.5241,81.4240
74.5971,81.4728
74.6459,81.5458
74.6630,81.6319
74.6630,82.0819
74.6459,82.1680
74.5971,82.2410
74.5241,82.2898
74.4380,82.3069
73.9380,82.3069
73.8519,82.2898
73.7789,82.2410
73.7301,82.1680
73.7130,82.0819
73.7130,81.6319
73.7301,81.5458
73.7789,81.4728
73.8519,81.4240
73.9380,81.4069
Z" /> 
<path style="fill:#000000; fill-opacity:1.0000; stroke:none;fill-rule:evenodd;"
d="M 102.8398,92.4498
102.8246,92.5263
102.7812,92.5912
102.7163,92.6346
102.6398,92.6498
102.2398,92.6498
102.1633,92.6346
102.0984,92.5912
102.0550,92.5263
102.0398,92.4498
102.0398,91.8998
102.0550,91.8233
102.0984,91.7584
102.1633,91.7150
102.2398,91.6998
102.6398,91.6998
102.7163,91.7150
102.7812,91.7584
102.8246,91.8233
102.8398,91.8998
Z" /> 
<path style="fill:#000000; fill-opacity:1.0000; stroke:none;fill-rule:evenodd;"
d="M 101.1898,92.4498
101.1746,92.5263
101.1312,92.5912
101.0663,92.6346
100.9898,92.6498
100.5898,92.6498
100.5133,92.6346
100.4484,92.5912
100.4050,92.5263
100.3898,92.4498
100.3898,91.8998
100.4050,91.8233
100.4484,91.7584
100.5133,91.7150
100.5898,91.6998
100.9898,91.6998
101.0663,91.7150
101.1312,91.7584
101.1746,91.8233
101.1898,91.8998
Z" /> 
<path style="fill:#000000; fill-opacity:1.0000; stroke:none;fill-rule:evenodd;"
d="M 84.5500,82.0888
84.5329,82.1749
84.4841,82.2479
84.4111,82.2967
84.3250,82.3138
83.8750,82.3138
83.7889,82.2967
83.7159,82.2479
83.6671,82.1749
83.6500,82.0888
83.6500,81.5888
83.6671,81.5027
83.7159,81.4297
83.7889,81.3809
83.8750,81.3638
84.3250,81.3638
84.4111,81.3809
84.4841,81.4297
84.5329,81.5027
84.5500,81.5888
Z" /> 
<path style="fill:#000000; fill-opacity:1.0000; stroke:none;fill-rule:evenodd;"
d="M 83.0000,82.0888
82.9829,82.1749
82.9341,82.2479
82.8611,82.2967
82.7750,82.3138
82.3250,82.3138
82.2389,82.2967
82.1659,82.2479
82.1171,82.1749
82.1000,82.0888
82.1000,81.5888
82.1171,81.5027
82.1659,81.4297
82.2389,81.3809
82.3250,81.3638
82.7750,81.3638
82.8611,81.3809
82.9341,81.4297
82.9829,81.5027
83.0000,81.5888
Z" /> 
<path style="fill:#000000; fill-opacity:1.0000; stroke:none;fill-rule:evenodd;"
d="M 68.3230,86.0880
68.3995,86.1032
68.4644,86.1466
68.5078,86.2115
68.5230,86.2880
68.5230,86.6880
68.5078,86.7645
68.4644,86.8294
68.3995,86.8728
68.3230,86.8880
67.7730,86.8880
67.6965,86.8728
67.6316,86.8294
67.5882,86.7645
67.5730,86.6880
67.5730,86.2880
67.5882,86.2115
67.6316,86.1466
67.6965,86.1032
67.7730,86.0880
Z" /> 
<path style="fill:#000000; fill-opacity:1.0000; stroke:none;fill-rule:evenodd;"
d="M 68.3230,87.7380
68.3995,87.7532
68.4644,87.7966
68.5078,87.8615
68.5230,87.9380
68.5230,88.3380
68.5078,88.4145
68.4644,88.4794
68.3995,88.5228
68.3230,88.5380
67.7730,88.5380
67.6965,88.5228
67.6316,88.4794
67.5882,88.4145
67.5730,88.3380
67.5730,87.9380
67.5882,87.8615
67.6316,87.7966
67.6965,87.7532
67.7730,87.7380
Z" /> 
<path style="fill:#000000; fill-opacity:1.0000; stroke:none;fill-rule:evenodd;"
d="M 104.1610,64.0530
104.2375,64.0682
104.3024,64.1116
104.3458,64.1765
104.3610,64.2530
104.3610,64.6530
104.3458,64.7295
104.3024,64.7944
104.2375,64.8378
104.1610,64.8530
103.6110,64.8530
103.5345,64.8378
103.4696,64.7944
103.4262,64.7295
103.4110,64.6530
103.4110,64.2530
103.4262,64.1765
103.4696,64.1116
103.5345,64.0682
103.6110,64.0530
Z" /> 
<path style="fill:#000000; fill-opacity:1.0000; stroke:none;fill-rule:evenodd;"
d="M 104.1610,65.7030
104.2375,65.7182
104.3024,65.7616
104.3458,65.8265
104.3610,65.9030
104.3610,66.3030
104.3458,66.3795
104.3024,66.4444
104.2375,66.4878
104.1610,66.5030
103.6110,66.5030
103.5345,66.4878
103.4696,66.4444
103.4262,66.3795
103.4110,66.3030
103.4110,65.9030
103.4262,65.8265
103.4696,65.7616
103.5345,65.7182
103.6110,65.7030
Z" /> 
<path style="fill:#000000; fill-opacity:1.0000; stroke:none;fill-rule:evenodd;"
d="M 64.5678,83.3885
64.4745,83.3699
64.3954,83.3171
64.3426,83.2380
64.3240,83.1448
64.3240,82.6572
64.3426,82.5640
64.3954,82.4849
64.4745,82.4321
64.5678,82.4135
65.4802,82.4135
65.5735,82.4321
65.6526,82.4849
65.7054,82.5640
65.7240,82.6572
65.7240,83.1448
65.7054,83.2380
65.6526,83.3171
65.5735,83.3699
65.4802,83.3885
Z" /> 
<path style="fill:#000000; fill-opacity:1.0000; stroke:none;fill-rule:evenodd;"
d="M 64.5678,81.5135
64.4745,81.4949
64.3954,81.4421
64.3426,81.3630
64.3240,81.2698
64.3240,80.7822
64.3426,80.6890
64.3954,80.6099
64.4745,80.5571
64.5678,80.5385
65.4802,80.5385
65.5735,80.5571
65.6526,80.6099
65.7054,80.6890
65.7240,80.7822
65.7240,81.2698
65.7054,81.3630
65.6526,81.4421
65.5735,81.4949
65.4802,81.5135
Z" /> 
<path style="fill:#000000; fill-opacity:1.0000; stroke:none;fill-rule:evenodd;"
d="M 105.1600,66.5160
105.0739,66.4989
105.0009,66.4501
104.9521,66.3771
104.9350,66.2910
104.9350,65.8410
104.9521,65.7549
105.0009,65.6819
105.0739,65.6331
105.1600,65.6160
105.6600,65.6160
105.7461,65.6331
105.8191,65.6819
105.8679,65.7549
105.8850,65.8410
105.8850,66.2910
105.8679,66.3771
105.8191,66.4501
105.7461,66.4989
105.6600,66.5160
Z" /> 
<path style="fill:#000000; fill-opacity:1.0000; stroke:none;fill-rule:evenodd;"
d="M 105.1600,64.9660
105.0739,64.9489
105.0009,64.9001
104.9521,64.8271
104.9350,64.7410
104.9350,64.2910
104.9521,64.2049
105.0009,64.1319
105.0739,64.0831
105.1600,64.0660
105.6600,64.0660
105.7461,64.0831
105.8191,64.1319
105.8679,64.2049
105.8850,64.2910
105.8850,64.7410
105.8679,64.8271
105.8191,64.9001
105.7461,64.9489
105.6600,64.9660
Z" /> 
<path style="fill:#000000; fill-opacity:1.0000; stroke:none;fill-rule:evenodd;"
d="M 87.7360,89.8964
87.6595,89.8812
87.5946,89.8378
87.5512,89.7729
87.5360,89.6964
87.5360,89.2964
87.5512,89.2199
87.5946,89.1550
87.6595,89.1116
87.7360,89.0964
88.2860,89.0964
88.3625,89.1116
88.4274,89.1550
88.4708,89.2199
88.4860,89.2964
88.4860,89.6964
88.4708,89.7729
88.4274,89.8378
88.3625,89.8812
88.2860,89.8964
Z" /> 
<path style="fill:#000000; fill-opacity:1.0000; stroke:none;fill-rule:evenodd;"
d="M 87.7360,88.2464
87.6595,88.2312
87.5946,88.1878
87.5512,88.1229
87.5360,88.0464
87.5360,87.6464
87.5512,87.5699
87.5946,87.5050
87.6595,87.4616
87.7360,87.4464
88.2860,87.4464
88.3625,87.4616
88.4274,87.5050
88.4708,87.5699
88.4860,87.6464
88.4860,88.0464
88.4708,88.1229
88.4274,88.1878
88.3625,88.2312
88.2860,88.2464
Z" /> 
<path style="fill:#000000; fill-opacity:1.0000; stroke:none;fill-rule:evenodd;"
d="M 96.9660,81.5809
96.9831,81.4948
97.0319,81.4218
97.1049,81.3730
97.1910,81.3559
97.6410,81.3559
97.7271,81.3730
97.8001,81.4218
97.8489,81.4948
97.8660,81.5809
97.8660,82.0809
97.8489,82.1670
97.8001,82.2400
97.7271,82.2888
97.6410,82.3059
97.1910,82.3059
97.1049,82.2888
97.0319,82.2400
96.9831,82.1670
96.9660,82.0809
Z" /> 
<path style="fill:#000000; fill-opacity:1.0000; stroke:none;fill-rule:evenodd;"
d="M 98.5160,81.5809
98.5331,81.4948
98.5819,81.4218
98.6549,81.3730
98.7410,81.3559
99.1910,81.3559
99.2771,81.3730
99.3501,81.4218
99.3989,81.4948
99.4160,81.5809
99.4160,82.0809
99.3989,82.1670
99.3501,82.2400
99.2771,82.2888
99.1910,82.3059
98.7410,82.3059
98.6549,82.2888
98.5819,82.2400
98.5331,82.1670
98.5160,82.0809
Z" /> 
<path style="fill:#000000; fill-opacity:1.0000; stroke:none;fill-rule:evenodd;"
d="M 75.3085,81.3226
75.3252,81.2389
75.3726,81.1680
75.4435,81.1206
75.5272,81.1039
75.9647,81.1039
76.0485,81.1206
76.1194,81.1680
76.1668,81.2389
76.1835,81.3226
76.1835,82.0851
76.1668,82.1689
76.1194,82.2398
76.0485,82.2872
75.9647,82.3039
75.5272,82.3039
75.4435,82.2872
75.3726,82.2398
75.3252,82.1689
75.3085,82.0851
Z" /> 
<path style="fill:#000000; fill-opacity:1.0000; stroke:none;fill-rule:evenodd;"
d="M 77.4335,81.3226
77.4502,81.2389
77.4976,81.1680
77.5685,81.1206
77.6522,81.1039
78.0897,81.1039
78.1735,81.1206
78.2444,81.1680
78.2918,81.2389
78.3085,81.3226
78.3085,82.0851
78.2918,82.1689
78.2444,82.2398
78.1735,82.2872
78.0897,82.3039
77.6522,82.3039
77.5685,82.2872
77.4976,82.2398
77.4502,82.1689
77.4335,82.0851
Z" /> 
<path style="fill:#000000; fill-opacity:1.0000; stroke:none;fill-rule:evenodd;"
d="M 77.5756,58.1080
77.4895,58.0909
77.4165,58.0421
77.3677,57.9691
77.3506,57.8830
77.3506,57.4330
77.3677,57.3469
77.4165,57.2739
77.4895,57.2251
77.5756,57.2080
78.0756,57.2080
78.1617,57.2251
78.2347,57.2739
78.2835,57.3469
78.3006,57.4330
78.3006,57.8830
78.2835,57.9691
78.2347,58.0421
78.1617,58.0909
78.0756,58.1080
Z" /> 
<path style="fill:#000000; fill-opacity:1.0000; stroke:none;fill-rule:evenodd;"
d="M 77.5756,56.5580
77.4895,56.5409
77.4165,56.4921
77.3677,56.4191
77.3506,56.3330
77.3506,55.8830
77.3677,55.7969
77.4165,55.7239
77.4895,55.6751
77.5756,55.6580
78.0756,55.6580
78.1617,55.6751
78.2347,55.7239
78.2835,55.7969
78.3006,55.8830
78.3006,56.3330
78.2835,56.4191
78.2347,56.4921
78.1617,56.5409
78.0756,56.5580
Z" /> 
<path style="fill:#000000; fill-opacity:1.0000; stroke:none;fill-rule:evenodd;"
d="M 73.6640,58.1080
73.5779,58.0909
73.5049,58.0421
73.4561,57.9691
73.4390,57.8830
73.4390,57.4330
73.4561,57.3469
73.5049,57.2739
73.5779,57.2251
73.6640,57.2080
74.1640,57.2080
74.2501,57.2251
74.3231,57.2739
74.3719,57.3469
74.3890,57.4330
74.3890,57.8830
74.3719,57.9691
74.3231,58.0421
74.2501,58.0909
74.1640,58.1080
Z" /> 
<path style="fill:#000000; fill-opacity:1.0000; stroke:none;fill-rule:evenodd;"
d="M 73.6640,56.5580
73.5779,56.5409
73.5049,56.4921
73.4561,56.4191
73.4390,56.3330
73.4390,55.8830
73.4561,55.7969
73.5049,55.7239
73.5779,55.6751
73.6640,55.6580
74.1640,55.6580
74.2501,55.6751
74.3231,55.7239
74.3719,55.7969
74.3890,55.8830
74.3890,56.3330
74.3719,56.4191
74.3231,56.4921
74.2501,56.5409
74.1640,56.5580
Z" /> 
<path style="fill:#000000; fill-opacity:1.0000; stroke:none;fill-rule:evenodd;"
d="M 98.5950,78.0599
98.6715,78.0751
98.7364,78.1185
98.7798,78.1834
98.7950,78.2599
98.7950,78.6599
98.7798,78.7364
98.7364,78.8013
98.6715,78.8447
98.5950,78.8599
98.0450,78.8599
97.9685,78.8447
97.9036,78.8013
97.8602,78.7364
97.8450,78.6599
97.8450,78.2599
97.8602,78.1834
97.9036,78.1185
97.9685,78.0751
98.0450,78.0599
Z" /> 
<path style="fill:#000000; fill-opacity:1.0000; stroke:none;fill-rule:evenodd;"
d="M 98.5950,79.7099
98.6715,79.7251
98.7364,79.7685
98.7798,79.8334
98.7950,79.9099
98.7950,80.3099
98.7798,80.3864
98.7364,80.4513
98.6715,80.4947
98.5950,80.5099
98.0450,80.5099
97.9685,80.4947
97.9036,80.4513
97.8602,80.3864
97.8450,80.3099
97.8450,79.9099
97.8602,79.8334
97.9036,79.7685
97.9685,79.7251
98.0450,79.7099
Z" /> 
<path style="fill:#000000; fill-opacity:1.0000; stroke:none;fill-rule:evenodd;"
d="M 100.4270,88.5090
100.4308,88.4899
100.4416,88.4736
100.4579,88.4628
100.4770,88.4590
100.9770,88.4590
100.9961,88.4628
101.0124,88.4736
101.0232,88.4899
101.0270,88.5090
101.0270,88.6590
101.0232,88.6781
101.0124,88.6944
100.9961,88.7052
100.9770,88.7090
100.4770,88.7090
100.4579,88.7052
100.4416,88.6944
100.4308,88.6781
100.4270,88.6590
Z" /> 
<path style="fill:#000000; fill-opacity:1.0000; stroke:none;fill-rule:evenodd;"
d="M 100.4270,89.0090
100.4308,88.9899
100.4416,88.9736
100.4579,88.9628
100.4770,88.9590
100.9770,88.9590
100.9961,88.9628
101.0124,88.9736
101.0232,88.9899
101.0270,89.0090
101.0270,89.1590
101.0232,89.1781
101.0124,89.1944
100.9961,89.2052
100.9770,89.2090
100.4770,89.2090
100.4579,89.2052
100.4416,89.1944
100.4308,89.1781
100.4270,89.1590
Z" /> 
<path style="fill:#000000; fill-opacity:1.0000; stroke:none;fill-rule:evenodd;"
d="M 100.4270,89.5090
100.4308,89.4899
100.4416,89.4736
100.4579,89.4628
100.4770,89.4590
100.9770,89.4590
100.9961,89.4628
101.0124,89.4736
101.0232,89.4899
101.0270,89.5090
101.0270,89.6590
101.0232,89.6781
101.0124,89.6944
100.9961,89.7052
100.9770,89.7090
100.4770,89.7090
100.4579,89.7052
100.4416,89.6944
100.4308,89.6781
100.4270,89.6590
Z" /> 
<path style="fill:#000000; fill-opacity:1.0000; stroke:none;fill-rule:evenodd;"
d="M 100.4270,90.0090
100.4308,89.9899
100.4416,89.9736
100.4579,89.9628
100.4770,89.9590
100.9770,89.9590
100.9961,89.9628
101.0124,89.9736
101.0232,89.9899
101.0270,90.0090
101.0270,90.1590
101.0232,90.1781
101.0124,90.1944
100.9961,90.2052
100.9770,90.2090
100.4770,90.2090
100.4579,90.2052
100.4416,90.1944
100.4308,90.1781
100.4270,90.1590
Z" /> 
<path style="fill:#000000; fill-opacity:1.0000; stroke:none;fill-rule:evenodd;"
d="M 100.4270,90.5090
100.4308,90.4899
100.4416,90.4736
100.4579,90.4628
100.4770,90.4590
100.9770,90.4590
100.9961,90.4628
101.0124,90.4736
101.0232,90.4899
101.0270,90.5090
101.0270,90.6590
101.0232,90.6781
101.0124,90.6944
100.9961,90.7052
100.9770,90.7090
100.4770,90.7090
100.4579,90.7052
100.4416,90.6944
100.4308,90.6781
100.4270,90.6590
Z" /> 
<path style="fill:#000000; fill-opacity:1.0000; stroke:none;fill-rule:evenodd;"
d="M 101.9270,90.5090
101.9308,90.4899
101.9416,90.4736
101.9579,90.4628
101.9770,90.4590
102.7770,90.4590
102.7961,90.4628
102.8124,90.4736
102.8232,90.4899
102.8270,90.5090
102.8270,90.6590
102.8232,90.6781
102.8124,90.6944
102.7961,90.7052
102.7770,90.7090
101.9770,90.7090
101.9579,90.7052
101.9416,90.6944
101.9308,90.6781
101.9270,90.6590
Z" /> 
<path style="fill:#000000; fill-opacity:1.0000; stroke:none;fill-rule:evenodd;"
d="M 101.9270,90.0090
101.9308,89.9899
101.9416,89.9736
101.9579,89.9628
101.9770,89.9590
102.7770,89.9590
102.7961,89.9628
102.8124,89.9736
102.8232,89.9899
102.8270,90.0090
102.8270,90.1590
102.8232,90.1781
102.8124,90.1944
102.7961,90.2052
102.7770,90.2090
101.9770,90.2090
101.9579,90.2052
101.9416,90.1944
101.9308,90.1781
101.9270,90.1590
Z" /> 
<path style="fill:#000000; fill-opacity:1.0000; stroke:none;fill-rule:evenodd;"
d="M 101.9270,89.0090
101.9308,88.9899
101.9416,88.9736
101.9579,88.9628
101.9770,88.9590
102.7770,88.9590
102.7961,88.9628
102.8124,88.9736
102.8232,88.9899
102.8270,89.0090
102.8270,89.1590
102.8232,89.1781
102.8124,89.1944
102.7961,89.2052
102.7770,89.2090
101.9770,89.2090
101.9579,89.2052
101.9416,89.1944
101.9308,89.1781
101.9270,89.1590
Z" /> 
<path style="fill:#000000; fill-opacity:1.0000; stroke:none;fill-rule:evenodd;"
d="M 101.9270,88.5090
101.9308,88.4899
101.9416,88.4736
101.9579,88.4628
101.9770,88.4590
102.7770,88.4590
102.7961,88.4628
102.8124,88.4736
102.8232,88.4899
102.8270,88.5090
102.8270,88.6590
102.8232,88.6781
102.8124,88.6944
102.7961,88.7052
102.7770,88.7090
101.9770,88.7090
101.9579,88.7052
101.9416,88.6944
101.9308,88.6781
101.9270,88.6590
Z" /> 
<path style="fill:#000000; fill-opacity:1.0000; stroke:none;fill-rule:evenodd;"
d="M 89.9374,90.4944
90.0235,90.5115
90.0965,90.5603
90.1453,90.6333
90.1624,90.7194
90.1624,91.1694
90.1453,91.2555
90.0965,91.3285
90.0235,91.3773
89.9374,91.3944
89.4374,91.3944
89.3513,91.3773
89.2783,91.3285
89.2295,91.2555
89.2124,91.1694
89.2124,90.7194
89.2295,90.6333
89.2783,90.5603
89.3513,90.5115
89.4374,90.4944
Z" /> 
<path style="fill:#000000; fill-opacity:1.0000; stroke:none;fill-rule:evenodd;"
d="M 89.9374,92.0444
90.0235,92.0615
90.0965,92.1103
90.1453,92.1833
90.1624,92.2694
90.1624,92.7194
90.1453,92.8055
90.0965,92.8785
90.0235,92.9273
89.9374,92.9444
89.4374,92.9444
89.3513,92.9273
89.2783,92.8785
89.2295,92.8055
89.2124,92.7194
89.2124,92.2694
89.2295,92.1833
89.2783,92.1103
89.3513,92.0615
89.4374,92.0444
Z" /> 
<path style="fill:#000000; fill-opacity:1.0000; stroke:none;fill-rule:evenodd;"
d="M 73.1560,65.7410
73.0699,65.7239
72.9969,65.6751
72.9481,65.6021
72.9310,65.5160
72.9310,65.0660
72.9481,64.9799
72.9969,64.9069
73.0699,64.8581
73.1560,64.8410
73.6560,64.8410
73.7421,64.8581
73.8151,64.9069
73.8639,64.9799
73.8810,65.0660
73.8810,65.5160
73.8639,65.6021
73.8151,65.6751
73.7421,65.7239
73.6560,65.7410
Z" /> 
<path style="fill:#000000; fill-opacity:1.0000; stroke:none;fill-rule:evenodd;"
d="M 73.1560,64.1910
73.0699,64.1739
72.9969,64.1251
72.9481,64.0521
72.9310,63.9660
72.9310,63.5160
72.9481,63.4299
72.9969,63.3569
73.0699,63.3081
73.1560,63.2910
73.6560,63.2910
73.7421,63.3081
73.8151,63.3569
73.8639,63.4299
73.8810,63.5160
73.8810,63.9660
73.8639,64.0521
73.8151,64.1251
73.7421,64.1739
73.6560,64.1910
Z" /> 
<path style="fill:#000000; fill-opacity:1.0000; stroke:none;fill-rule:evenodd;"
d="M 92.7140,86.8860
92.6279,86.8689
92.5549,86.8201
92.5061,86.7471
92.4890,86.6610
92.4890,86.2110
92.5061,86.1249
92.5549,86.0519
92.6279,86.0031
92.7140,85.9860
93.2140,85.9860
93.3001,86.0031
93.3731,86.0519
93.4219,86.1249
93.4390,86.2110
93.4390,86.6610
93.4219,86.7471
93.3731,86.8201
93.3001,86.8689
93.2140,86.8860
Z" /> 
<path style="fill:#000000; fill-opacity:1.0000; stroke:none;fill-rule:evenodd;"
d="M 92.7140,85.3360
92.6279,85.3189
92.5549,85.2701
92.5061,85.1971
92.4890,85.1110
92.4890,84.6610
92.5061,84.5749
92.5549,84.5019
92.6279,84.4531
92.7140,84.4360
93.2140,84.4360
93.3001,84.4531
93.3731,84.5019
93.4219,84.5749
93.4390,84.6610
93.4390,85.1110
93.4219,85.1971
93.3731,85.2701
93.3001,85.3189
93.2140,85.3360
Z" /> 
<path style="fill:#000000; fill-opacity:1.0000; stroke:none;fill-rule:evenodd;"
d="M 77.2600,61.5016
75.1400,61.5016
75.1400,59.2216
77.2600,59.2216
Z" /> 
<path style="fill:#000000; fill-opacity:1.0000; stroke:none;fill-rule:evenodd;"
d="M 77.2600,65.8316
75.1400,65.8316
75.1400,63.5516
77.2600,63.5516
Z" /> 
<path style="fill:#000000; fill-opacity:1.0000; stroke:none;fill-rule:evenodd;"
d="M 87.3937,94.0250
87.3005,94.0064
87.2214,93.9536
87.1686,93.8745
87.1500,93.7812
87.1500,93.2938
87.1686,93.2005
87.2214,93.1214
87.3005,93.0686
87.3937,93.0500
88.3062,93.0500
88.3995,93.0686
88.4786,93.1214
88.5314,93.2005
88.5500,93.2938
88.5500,93.7812
88.5314,93.8745
88.4786,93.9536
88.3995,94.0064
88.3062,94.0250
Z" /> 
<path style="fill:#000000; fill-opacity:1.0000; stroke:none;fill-rule:evenodd;"
d="M 87.3937,92.1500
87.3005,92.1314
87.2214,92.0786
87.1686,91.9995
87.1500,91.9062
87.1500,91.4188
87.1686,91.3255
87.2214,91.2464
87.3005,91.1936
87.3937,91.1750
88.3062,91.1750
88.3995,91.1936
88.4786,91.2464
88.5314,91.3255
88.5500,91.4188
88.5500,91.9062
88.5314,91.9995
88.4786,92.0786
88.3995,92.1314
88.3062,92.1500
Z" /> 
<path style="fill:#000000; fill-opacity:1.0000; stroke:none;fill-rule:evenodd;"
d="M 100.2850,77.2370
100.2698,77.3135
100.2264,77.3784
100.1615,77.4218
100.0850,77.4370
99.6850,77.4370
99.6085,77.4218
99.5436,77.3784
99.5002,77.3135
99.4850,77.2370
99.4850,76.6870
99.5002,76.6105
99.5436,76.5456
99.6085,76.5022
99.6850,76.4870
100.0850,76.4870
100.1615,76.5022
100.2264,76.5456
100.2698,76.6105
100.2850,76.6870
Z" /> 
<path style="fill:#000000; fill-opacity:1.0000; stroke:none;fill-rule:evenodd;"
d="M 98.6350,77.2370
98.6198,77.3135
98.5764,77.3784
98.5115,77.4218
98.4350,77.4370
98.0350,77.4370
97.9585,77.4218
97.8936,77.3784
97.8502,77.3135
97.8350,77.2370
97.8350,76.6870
97.8502,76.6105
97.8936,76.5456
97.9585,76.5022
98.0350,76.4870
98.4350,76.4870
98.5115,76.5022
98.5764,76.5456
98.6198,76.6105
98.6350,76.6870
Z" /> 
<path style="fill:#000000; fill-opacity:1.0000; stroke:none;fill-rule:evenodd;"
d="M 99.7532,92.4498
99.7380,92.5263
99.6946,92.5912
99.6297,92.6346
99.5532,92.6498
99.1532,92.6498
99.0767,92.6346
99.0118,92.5912
98.9684,92.5263
98.9532,92.4498
98.9532,91.8998
98.9684,91.8233
99.0118,91.7584
99.0767,91.7150
99.1532,91.6998
99.5532,91.6998
99.6297,91.7150
99.6946,91.7584
99.7380,91.8233
99.7532,91.8998
Z" /> 
<path style="fill:#000000; fill-opacity:1.0000; stroke:none;fill-rule:evenodd;"
d="M 98.1032,92.4498
98.0880,92.5263
98.0446,92.5912
97.9797,92.6346
97.9032,92.6498
97.5032,92.6498
97.4267,92.6346
97.3618,92.5912
97.3184,92.5263
97.3032,92.4498
97.3032,91.8998
97.3184,91.8233
97.3618,91.7584
97.4267,91.7150
97.5032,91.6998
97.9032,91.6998
97.9797,91.7150
98.0446,91.7584
98.0880,91.8233
98.1032,91.8998
Z" /> 
<path style="fill:#000000; fill-opacity:1.0000; stroke:none;fill-rule:evenodd;"
d="M 105.6190,55.6220
105.6019,55.7081
105.5531,55.7811
105.4801,55.8299
105.3940,55.8470
104.9440,55.8470
104.8579,55.8299
104.7849,55.7811
104.7361,55.7081
104.7190,55.6220
104.7190,55.1220
104.7361,55.0359
104.7849,54.9629
104.8579,54.9141
104.9440,54.8970
105.3940,54.8970
105.4801,54.9141
105.5531,54.9629
105.6019,55.0359
105.6190,55.1220
Z" /> 
<path style="fill:#000000; fill-opacity:1.0000; stroke:none;fill-rule:evenodd;"
d="M 104.0690,55.6220
104.0519,55.7081
104.0031,55.7811
103.9301,55.8299
103.8440,55.8470
103.3940,55.8470
103.3079,55.8299
103.2349,55.7811
103.1861,55.7081
103.1690,55.6220
103.1690,55.1220
103.1861,55.0359
103.2349,54.9629
103.3079,54.9141
103.3940,54.8970
103.8440,54.8970
103.9301,54.9141
104.0031,54.9629
104.0519,55.0359
104.0690,55.1220
Z" /> 
<path style="fill:#000000; fill-opacity:1.0000; stroke:none;fill-rule:evenodd;"
d="M 101.0368,71.2666
101.1133,71.2818
101.1782,71.3252
101.2216,71.3901
101.2368,71.4666
101.2368,71.8666
101.2216,71.9431
101.1782,72.0080
101.1133,72.0514
101.0368,72.0666
100.4868,72.0666
100.4103,72.0514
100.3454,72.0080
100.3020,71.9431
100.2868,71.8666
100.2868,71.4666
100.3020,71.3901
100.3454,71.3252
100.4103,71.2818
100.4868,71.2666
Z" /> 
<path style="fill:#000000; fill-opacity:1.0000; stroke:none;fill-rule:evenodd;"
d="M 101.0368,72.9166
101.1133,72.9318
101.1782,72.9752
101.2216,73.0401
101.2368,73.1166
101.2368,73.5166
101.2216,73.5931
101.1782,73.6580
101.1133,73.7014
101.0368,73.7166
100.4868,73.7166
100.4103,73.7014
100.3454,73.6580
100.3020,73.5931
100.2868,73.5166
100.2868,73.1166
100.3020,73.0401
100.3454,72.9752
100.4103,72.9318
100.4868,72.9166
Z" /> 
<path style="fill:#000000; fill-opacity:1.0000; stroke:none;fill-rule:evenodd;"
d="M 75.8840,78.6049
75.8075,78.5897
75.7426,78.5463
75.6992,78.4814
75.6840,78.4049
75.6840,78.0049
75.6992,77.9284
75.7426,77.8635
75.8075,77.8201
75.8840,77.8049
76.4340,77.8049
76.5105,77.8201
76.5754,77.8635
76.6188,77.9284
76.6340,78.0049
76.6340,78.4049
76.6188,78.4814
76.5754,78.5463
76.5105,78.5897
76.4340,78.6049
Z" /> 
<path style="fill:#000000; fill-opacity:1.0000; stroke:none;fill-rule:evenodd;"
d="M 75.8840,76.9549
75.8075,76.9397
75.7426,76.8963
75.6992,76.8314
75.6840,76.7549
75.6840,76.3549
75.6992,76.2784
75.7426,76.2135
75.8075,76.1701
75.8840,76.1549
76.4340,76.1549
76.5105,76.1701
76.5754,76.2135
76.6188,76.2784
76.6340,76.3549
76.6340,76.7549
76.6188,76.8314
76.5754,76.8963
76.5105,76.9397
76.4340,76.9549
Z" /> 
<path style="fill:#000000; fill-opacity:1.0000; stroke:none;fill-rule:evenodd;"
d="M 88.8500,81.0829
88.8310,81.1786
88.7768,81.2597
88.6957,81.3139
88.6000,81.3329
87.9700,81.3329
87.8743,81.3139
87.7932,81.2597
87.7390,81.1786
87.7200,81.0829
87.7200,80.4529
87.7390,80.3572
87.7932,80.2761
87.8743,80.2219
87.9700,80.2029
88.6000,80.2029
88.6957,80.2219
88.7768,80.2761
88.8310,80.3572
88.8500,80.4529
Z" /> 
<path style="fill:#000000; fill-opacity:1.0000; stroke:none;fill-rule:evenodd;"
d="M 88.8500,79.7329
88.8310,79.8286
88.7768,79.9097
88.6957,79.9639
88.6000,79.9829
87.9700,79.9829
87.8743,79.9639
87.7932,79.9097
87.7390,79.8286
87.7200,79.7329
87.7200,79.1029
87.7390,79.0072
87.7932,78.9261
87.8743,78.8719
87.9700,78.8529
88.6000,78.8529
88.6957,78.8719
88.7768,78.9261
88.8310,79.0072
88.8500,79.1029
Z" /> 
<path style="fill:#000000; fill-opacity:1.0000; stroke:none;fill-rule:evenodd;"
d="M 87.5000,81.0829
87.4810,81.1786
87.4268,81.2597
87.3457,81.3139
87.2500,81.3329
86.6200,81.3329
86.5243,81.3139
86.4432,81.2597
86.3890,81.1786
86.3700,81.0829
86.3700,80.4529
86.3890,80.3572
86.4432,80.2761
86.5243,80.2219
86.6200,80.2029
87.2500,80.2029
87.3457,80.2219
87.4268,80.2761
87.4810,80.3572
87.5000,80.4529
Z" /> 
<path style="fill:#000000; fill-opacity:1.0000; stroke:none;fill-rule:evenodd;"
d="M 87.5000,79.7329
87.4810,79.8286
87.4268,79.9097
87.3457,79.9639
87.2500,79.9829
86.6200,79.9829
86.5243,79.9639
86.4432,79.9097
86.3890,79.8286
86.3700,79.7329
86.3700,79.1029
86.3890,79.0072
86.4432,78.9261
86.5243,78.8719
86.6200,78.8529
87.2500,78.8529
87.3457,78.8719
87.4268,78.9261
87.4810,79.0072
87.5000,79.1029
Z" /> 
<path style="fill:#000000; fill-opacity:1.0000; stroke:none;fill-rule:evenodd;"
d="M 89.9850,81.4054
89.9802,81.4293
89.9667,81.4496
89.9464,81.4631
89.9225,81.4679
89.2225,81.4679
89.1986,81.4631
89.1783,81.4496
89.1648,81.4293
89.1600,81.4054
89.1600,81.2804
89.1648,81.2565
89.1783,81.2362
89.1986,81.2227
89.2225,81.2179
89.9225,81.2179
89.9464,81.2227
89.9667,81.2362
89.9802,81.2565
89.9850,81.2804
Z" /> 
<path style="fill:#000000; fill-opacity:1.0000; stroke:none;fill-rule:evenodd;"
d="M 89.9850,80.9054
89.9802,80.9293
89.9667,80.9496
89.9464,80.9631
89.9225,80.9679
89.2225,80.9679
89.1986,80.9631
89.1783,80.9496
89.1648,80.9293
89.1600,80.9054
89.1600,80.7804
89.1648,80.7565
89.1783,80.7362
89.1986,80.7227
89.2225,80.7179
89.9225,80.7179
89.9464,80.7227
89.9667,80.7362
89.9802,80.7565
89.9850,80.7804
Z" /> 
<path style="fill:#000000; fill-opacity:1.0000; stroke:none;fill-rule:evenodd;"
d="M 89.9850,80.4054
89.9802,80.4293
89.9667,80.4496
89.9464,80.4631
89.9225,80.4679
89.2225,80.4679
89.1986,80.4631
89.1783,80.4496
89.1648,80.4293
89.1600,80.4054
89.1600,80.2804
89.1648,80.2565
89.1783,80.2362
89.1986,80.2227
89.2225,80.2179
89.9225,80.2179
89.9464,80.2227
89.9667,80.2362
89.9802,80.2565
89.9850,80.2804
Z" /> 
<path style="fill:#000000; fill-opacity:1.0000; stroke:none;fill-rule:evenodd;"
d="M 89.9850,79.9054
89.9802,79.9293
89.9667,79.9496
89.9464,79.9631
89.9225,79.9679
89.2225,79.9679
89.1986,79.9631
89.1783,79.9496
89.1648,79.9293
89.1600,79.9054
89.1600,79.7804
89.1648,79.7565
89.1783,79.7362
89.1986,79.7227
89.2225,79.7179
89.9225,79.7179
89.9464,79.7227
89.9667,79.7362
89.9802,79.7565
89.9850,79.7804
Z" /> 
<path style="fill:#000000; fill-opacity:1.0000; stroke:none;fill-rule:evenodd;"
d="M 89.9850,79.4054
89.9802,79.4293
89.9667,79.4496
89.9464,79.4631
89.9225,79.4679
89.2225,79.4679
89.1986,79.4631
89.1783,79.4496
89.1648,79.4293
89.1600,79.4054
89.1600,79.2804
89.1648,79.2565
89.1783,79.2362
89.1986,79.2227
89.2225,79.2179
89.9225,79.2179
89.9464,79.2227
89.9667,79.2362
89.9802,79.2565
89.9850,79.2804
Z" /> 
<path style="fill:#000000; fill-opacity:1.0000; stroke:none;fill-rule:evenodd;"
d="M 89.9850,78.9054
89.9802,78.9293
89.9667,78.9496
89.9464,78.9631
89.9225,78.9679
89.2225,78.9679
89.1986,78.9631
89.1783,78.9496
89.1648,78.9293
89.1600,78.9054
89.1600,78.7804
89.1648,78.7565
89.1783,78.7362
89.1986,78.7227
89.2225,78.7179
89.9225,78.7179
89.9464,78.7227
89.9667,78.7362
89.9802,78.7565
89.9850,78.7804
Z" /> 
<path style="fill:#000000; fill-opacity:1.0000; stroke:none;fill-rule:evenodd;"
d="M 88.9850,78.4804
88.9802,78.5043
88.9667,78.5246
88.9464,78.5381
88.9225,78.5429
88.7975,78.5429
88.7736,78.5381
88.7533,78.5246
88.7398,78.5043
88.7350,78.4804
88.7350,77.7804
88.7398,77.7565
88.7533,77.7362
88.7736,77.7227
88.7975,77.7179
88.9225,77.7179
88.9464,77.7227
88.9667,77.7362
88.9802,77.7565
88.9850,77.7804
Z" /> 
<path style="fill:#000000; fill-opacity:1.0000; stroke:none;fill-rule:evenodd;"
d="M 88.4850,78.4804
88.4802,78.5043
88.4667,78.5246
88.4464,78.5381
88.4225,78.5429
88.2975,78.5429
88.2736,78.5381
88.2533,78.5246
88.2398,78.5043
88.2350,78.4804
88.2350,77.7804
88.2398,77.7565
88.2533,77.7362
88.2736,77.7227
88.2975,77.7179
88.4225,77.7179
88.4464,77.7227
88.4667,77.7362
88.4802,77.7565
88.4850,77.7804
Z" /> 
<path style="fill:#000000; fill-opacity:1.0000; stroke:none;fill-rule:evenodd;"
d="M 87.9850,78.4804
87.9802,78.5043
87.9667,78.5246
87.9464,78.5381
87.9225,78.5429
87.7975,78.5429
87.7736,78.5381
87.7533,78.5246
87.7398,78.5043
87.7350,78.4804
87.7350,77.7804
87.7398,77.7565
87.7533,77.7362
87.7736,77.7227
87.7975,77.7179
87.9225,77.7179
87.9464,77.7227
87.9667,77.7362
87.9802,77.7565
87.9850,77.7804
Z" /> 
<path style="fill:#000000; fill-opacity:1.0000; stroke:none;fill-rule:evenodd;"
d="M 87.4850,78.4804
87.4802,78.5043
87.4667,78.5246
87.4464,78.5381
87.4225,78.5429
87.2975,78.5429
87.2736,78.5381
87.2533,78.5246
87.2398,78.5043
87.2350,78.4804
87.2350,77.7804
87.2398,77.7565
87.2533,77.7362
87.2736,77.7227
87.2975,77.7179
87.4225,77.7179
87.4464,77.7227
87.4667,77.7362
87.4802,77.7565
87.4850,77.7804
Z" /> 
<path style="fill:#000000; fill-opacity:1.0000; stroke:none;fill-rule:evenodd;"
d="M 86.9850,78.4804
86.9802,78.5043
86.9667,78.5246
86.9464,78.5381
86.9225,78.5429
86.7975,78.5429
86.7736,78.5381
86.7533,78.5246
86.7398,78.5043
86.7350,78.4804
86.7350,77.7804
86.7398,77.7565
86.7533,77.7362
86.7736,77.7227
86.7975,77.7179
86.9225,77.7179
86.9464,77.7227
86.9667,77.7362
86.9802,77.7565
86.9850,77.7804
Z" /> 
<path style="fill:#000000; fill-opacity:1.0000; stroke:none;fill-rule:evenodd;"
d="M 86.4850,78.4804
86.4802,78.5043
86.4667,78.5246
86.4464,78.5381
86.4225,78.5429
86.2975,78.5429
86.2736,78.5381
86.2533,78.5246
86.2398,78.5043
86.2350,78.4804
86.2350,77.7804
86.2398,77.7565
86.2533,77.7362
86.2736,77.7227
86.2975,77.7179
86.4225,77.7179
86.4464,77.7227
86.4667,77.7362
86.4802,77.7565
86.4850,77.7804
Z" /> 
<path style="fill:#000000; fill-opacity:1.0000; stroke:none;fill-rule:evenodd;"
d="M 86.0600,78.9054
86.0552,78.9293
86.0417,78.9496
86.0214,78.9631
85.9975,78.9679
85.2975,78.9679
85.2736,78.9631
85.2533,78.9496
85.2398,78.9293
85.2350,78.9054
85.2350,78.7804
85.2398,78.7565
85.2533,78.7362
85.2736,78.7227
85.2975,78.7179
85.9975,78.7179
86.0214,78.7227
86.0417,78.7362
86.0552,78.7565
86.0600,78.7804
Z" /> 
<path style="fill:#000000; fill-opacity:1.0000; stroke:none;fill-rule:evenodd;"
d="M 86.0600,79.4054
86.0552,79.4293
86.0417,79.4496
86.0214,79.4631
85.9975,79.4679
85.2975,79.4679
85.2736,79.4631
85.2533,79.4496
85.2398,79.4293
85.2350,79.4054
85.2350,79.2804
85.2398,79.2565
85.2533,79.2362
85.2736,79.2227
85.2975,79.2179
85.9975,79.2179
86.0214,79.2227
86.0417,79.2362
86.0552,79.2565
86.0600,79.2804
Z" /> 
<path style="fill:#000000; fill-opacity:1.0000; stroke:none;fill-rule:evenodd;"
d="M 86.0600,79.9054
86.0552,79.9293
86.0417,79.9496
86.0214,79.9631
85.9975,79.9679
85.2975,79.9679
85.2736,79.9631
85.2533,79.9496
85.2398,79.9293
85.2350,79.9054
85.2350,79.7804
85.2398,79.7565
85.2533,79.7362
85.2736,79.7227
85.2975,79.7179
85.9975,79.7179
86.0214,79.7227
86.0417,79.7362
86.0552,79.7565
86.0600,79.7804
Z" /> 
<path style="fill:#000000; fill-opacity:1.0000; stroke:none;fill-rule:evenodd;"
d="M 86.0600,80.4054
86.0552,80.4293
86.0417,80.4496
86.0214,80.4631
85.9975,80.4679
85.2975,80.4679
85.2736,80.4631
85.2533,80.4496
85.2398,80.4293
85.2350,80.4054
85.2350,80.2804
85.2398,80.2565
85.2533,80.2362
85.2736,80.2227
85.2975,80.2179
85.9975,80.2179
86.0214,80.2227
86.0417,80.2362
86.0552,80.2565
86.0600,80.2804
Z" /> 
<path style="fill:#000000; fill-opacity:1.0000; stroke:none;fill-rule:evenodd;"
d="M 86.0600,80.9054
86.0552,80.9293
86.0417,80.9496
86.0214,80.9631
85.9975,80.9679
85.2975,80.9679
85.2736,80.9631
85.2533,80.9496
85.2398,80.9293
85.2350,80.9054
85.2350,80.7804
85.2398,80.7565
85.2533,80.7362
85.2736,80.7227
85.2975,80.7179
85.9975,80.7179
86.0214,80.7227
86.0417,80.7362
86.0552,80.7565
86.0600,80.7804
Z" /> 
<path style="fill:#000000; fill-opacity:1.0000; stroke:none;fill-rule:evenodd;"
d="M 86.0600,81.4054
86.0552,81.4293
86.0417,81.4496
86.0214,81.4631
85.9975,81.4679
85.2975,81.4679
85.2736,81.4631
85.2533,81.4496
85.2398,81.4293
85.2350,81.4054
85.2350,81.2804
85.2398,81.2565
85.2533,81.2362
85.2736,81.2227
85.2975,81.2179
85.9975,81.2179
86.0214,81.2227
86.0417,81.2362
86.0552,81.2565
86.0600,81.2804
Z" /> 
<path style="fill:#000000; fill-opacity:1.0000; stroke:none;fill-rule:evenodd;"
d="M 86.4850,82.4054
86.4802,82.4293
86.4667,82.4496
86.4464,82.4631
86.4225,82.4679
86.2975,82.4679
86.2736,82.4631
86.2533,82.4496
86.2398,82.4293
86.2350,82.4054
86.2350,81.7054
86.2398,81.6815
86.2533,81.6612
86.2736,81.6477
86.2975,81.6429
86.4225,81.6429
86.4464,81.6477
86.4667,81.6612
86.4802,81.6815
86.4850,81.7054
Z" /> 
<path style="fill:#000000; fill-opacity:1.0000; stroke:none;fill-rule:evenodd;"
d="M 86.9850,82.4054
86.9802,82.4293
86.9667,82.4496
86.9464,82.4631
86.9225,82.4679
86.7975,82.4679
86.7736,82.4631
86.7533,82.4496
86.7398,82.4293
86.7350,82.4054
86.7350,81.7054
86.7398,81.6815
86.7533,81.6612
86.7736,81.6477
86.7975,81.6429
86.9225,81.6429
86.9464,81.6477
86.9667,81.6612
86.9802,81.6815
86.9850,81.7054
Z" /> 
<path style="fill:#000000; fill-opacity:1.0000; stroke:none;fill-rule:evenodd;"
d="M 87.4850,82.4054
87.4802,82.4293
87.4667,82.4496
87.4464,82.4631
87.4225,82.4679
87.2975,82.4679
87.2736,82.4631
87.2533,82.4496
87.2398,82.4293
87.2350,82.4054
87.2350,81.7054
87.2398,81.6815
87.2533,81.6612
87.2736,81.6477
87.2975,81.6429
87.4225,81.6429
87.4464,81.6477
87.4667,81.6612
87.4802,81.6815
87.4850,81.7054
Z" /> 
<path style="fill:#000000; fill-opacity:1.0000; stroke:none;fill-rule:evenodd;"
d="M 87.9850,82.4054
87.9802,82.4293
87.9667,82.4496
87.9464,82.4631
87.9225,82.4679
87.7975,82.4679
87.7736,82.4631
87.7533,82.4496
87.7398,82.4293
87.7350,82.4054
87.7350,81.7054
87.7398,81.6815
87.7533,81.6612
87.7736,81.6477
87.7975,81.6429
87.9225,81.6429
87.9464,81.6477
87.9667,81.6612
87.9802,81.6815
87.9850,81.7054
Z" /> 
<path style="fill:#000000; fill-opacity:1.0000; stroke:none;fill-rule:evenodd;"
d="M 88.4850,82.4054
88.4802,82.4293
88.4667,82.4496
88.4464,82.4631
88.4225,82.4679
88.2975,82.4679
88.2736,82.4631
88.2533,82.4496
88.2398,82.4293
88.2350,82.4054
88.2350,81.7054
88.2398,81.6815
88.2533,81.6612
88.2736,81.6477
88.2975,81.6429
88.4225,81.6429
88.4464,81.6477
88.4667,81.6612
88.4802,81.6815
88.4850,81.7054
Z" /> 
<path style="fill:#000000; fill-opacity:1.0000; stroke:none;fill-rule:evenodd;"
d="M 88.9850,82.4054
88.9802,82.4293
88.9667,82.4496
88.9464,82.4631
88.9225,82.4679
88.7975,82.4679
88.7736,82.4631
88.7533,82.4496
88.7398,82.4293
88.7350,82.4054
88.7350,81.7054
88.7398,81.6815
88.7533,81.6612
88.7736,81.6477
88.7975,81.6429
88.9225,81.6429
88.9464,81.6477
88.9667,81.6612
88.9802,81.6815
88.9850,81.7054
Z" /> 
<path style="fill:#000000; fill-opacity:1.0000; stroke:none;fill-rule:evenodd;"
d="M 75.6960,58.1080
75.6099,58.0909
75.5369,58.0421
75.4881,57.9691
75.4710,57.8830
75.4710,57.4330
75.4881,57.3469
75.5369,57.2739
75.6099,57.2251
75.6960,57.2080
76.1960,57.2080
76.2821,57.2251
76.3551,57.2739
76.4039,57.3469
76.4210,57.4330
76.4210,57.8830
76.4039,57.9691
76.3551,58.0421
76.2821,58.0909
76.1960,58.1080
Z" /> 
<path style="fill:#000000; fill-opacity:1.0000; stroke:none;fill-rule:evenodd;"
d="M 75.6960,56.5580
75.6099,56.5409
75.5369,56.4921
75.4881,56.4191
75.4710,56.3330
75.4710,55.8830
75.4881,55.7969
75.5369,55.7239
75.6099,55.6751
75.6960,55.6580
76.1960,55.6580
76.2821,55.6751
76.3551,55.7239
76.4039,55.7969
76.4210,55.8830
76.4210,56.3330
76.4039,56.4191
76.3551,56.4921
76.2821,56.5409
76.1960,56.5580
Z" /> 
<path style="fill:#000000; fill-opacity:1.0000; stroke:none;fill-rule:evenodd;"
d="M 69.0300,63.4500
70.1700,63.4500
70.1700,64.0500
69.0300,64.0500
Z" /> 
<path style="fill:#000000; fill-opacity:1.0000; stroke:none;fill-rule:evenodd;"
d="M 69.0300,64.2500
70.1700,64.2500
70.1700,64.8500
69.0300,64.8500
Z" /> 
<path style="fill:#000000; fill-opacity:1.0000; stroke:none;fill-rule:evenodd;"
d="M 69.0300,65.5500
70.1700,65.5500
70.1700,65.8500
69.0300,65.8500
Z" /> 
<path style="fill:#000000; fill-opacity:1.0000; stroke:none;fill-rule:evenodd;"
d="M 69.0300,66.5500
70.1700,66.5500
70.1700,66.8500
69.0300,66.8500
Z" /> 
<path style="fill:#000000; fill-opacity:1.0000; stroke:none;fill-rule:evenodd;"
d="M 69.0300,67.0500
70.1700,67.0500
70.1700,67.3500
69.0300,67.3500
Z" /> 
<path style="fill:#000000; fill-opacity:1.0000; stroke:none;fill-rule:evenodd;"
d="M 69.0300,68.0500
70.1700,68.0500
70.1700,68.3500
69.0300,68.3500
Z" /> 
<path style="fill:#000000; fill-opacity:1.0000; stroke:none;fill-rule:evenodd;"
d="M 69.0300,69.0500
70.1700,69.0500
70.1700,69.6500
69.0300,69.6500
Z" /> 
<path style="fill:#000000; fill-opacity:1.0000; stroke:none;fill-rule:evenodd;"
d="M 69.0300,69.8500
70.1700,69.8500
70.1700,70.4500
69.0300,70.4500
Z" /> 
<path style="fill:#000000; fill-opacity:1.0000; stroke:none;fill-rule:evenodd;"
d="M 69.0300,68.5500
70.1700,68.5500
70.1700,68.8500
69.0300,68.8500
Z" /> 
<path style="fill:#000000; fill-opacity:1.0000; stroke:none;fill-rule:evenodd;"
d="M 69.0300,67.5500
70.1700,67.5500
70.1700,67.8500
69.0300,67.8500
Z" /> 
<path style="fill:#000000; fill-opacity:1.0000; stroke:none;fill-rule:evenodd;"
d="M 69.0300,66.0500
70.1700,66.0500
70.1700,66.3500
69.0300,66.3500
Z" /> 
<path style="fill:#000000; fill-opacity:1.0000; stroke:none;fill-rule:evenodd;"
d="M 69.0300,65.0500
70.1700,65.0500
70.1700,65.3500
69.0300,65.3500
Z" /> 
<path style="fill:#000000; fill-opacity:1.0000; stroke:none;fill-rule:evenodd;"
d="M 68.3470,77.5150
68.4235,77.5302
68.4884,77.5736
68.5318,77.6385
68.5470,77.7150
68.5470,78.1150
68.5318,78.1915
68.4884,78.2564
68.4235,78.2998
68.3470,78.3150
67.7970,78.3150
67.7205,78.2998
67.6556,78.2564
67.6122,78.1915
67.5970,78.1150
67.5970,77.7150
67.6122,77.6385
67.6556,77.5736
67.7205,77.5302
67.7970,77.5150
Z" /> 
<path style="fill:#000000; fill-opacity:1.0000; stroke:none;fill-rule:evenodd;"
d="M 68.3470,79.1650
68.4235,79.1802
68.4884,79.2236
68.5318,79.2885
68.5470,79.3650
68.5470,79.7650
68.5318,79.8415
68.4884,79.9064
68.4235,79.9498
68.3470,79.9650
67.7970,79.9650
67.7205,79.9498
67.6556,79.9064
67.6122,79.8415
67.5970,79.7650
67.5970,79.3650
67.6122,79.2885
67.6556,79.2236
67.7205,79.1802
67.7970,79.1650
Z" /> 
<path style="fill:#000000; fill-opacity:1.0000; stroke:none;fill-rule:evenodd;"
d="M 96.9290,79.5519
96.9104,79.6451
96.8576,79.7242
96.7785,79.7770
96.6852,79.7956
96.1977,79.7956
96.1045,79.7770
96.0254,79.7242
95.9726,79.6451
95.9540,79.5519
95.9540,78.6393
95.9726,78.5461
96.0254,78.4670
96.1045,78.4142
96.1977,78.3956
96.6852,78.3956
96.7785,78.4142
96.8576,78.4670
96.9104,78.5461
96.9290,78.6393
Z" /> 
<path style="fill:#000000; fill-opacity:1.0000; stroke:none;fill-rule:evenodd;"
d="M 95.0540,79.5519
95.0354,79.6451
94.9826,79.7242
94.9035,79.7770
94.8102,79.7956
94.3227,79.7956
94.2295,79.7770
94.1504,79.7242
94.0976,79.6451
94.0790,79.5519
94.0790,78.6393
94.0976,78.5461
94.1504,78.4670
94.2295,78.4142
94.3227,78.3956
94.8102,78.3956
94.9035,78.4142
94.9826,78.4670
95.0354,78.5461
95.0540,78.6393
Z" /> 
<path style="fill:#000000; fill-opacity:1.0000; stroke:none;fill-rule:evenodd;"
d="M 77.4080,78.6049
77.3315,78.5897
77.2666,78.5463
77.2232,78.4814
77.2080,78.4049
77.2080,78.0049
77.2232,77.9284
77.2666,77.8635
77.3315,77.8201
77.4080,77.8049
77.9580,77.8049
78.0345,77.8201
78.0994,77.8635
78.1428,77.9284
78.1580,78.0049
78.1580,78.4049
78.1428,78.4814
78.0994,78.5463
78.0345,78.5897
77.9580,78.6049
Z" /> 
<path style="fill:#000000; fill-opacity:1.0000; stroke:none;fill-rule:evenodd;"
d="M 77.4080,76.9549
77.3315,76.9397
77.2666,76.8963
77.2232,76.8314
77.2080,76.7549
77.2080,76.3549
77.2232,76.2784
77.2666,76.2135
77.3315,76.1701
77.4080,76.1549
77.9580,76.1549
78.0345,76.1701
78.0994,76.2135
78.1428,76.2784
78.1580,76.3549
78.1580,76.7549
78.1428,76.8314
78.0994,76.8963
78.0345,76.9397
77.9580,76.9549
Z" /> 
<path style="fill:#000000; fill-opacity:1.0000; stroke:none;fill-rule:evenodd;"
d="M 99.7024,90.6210
99.6872,90.6975
99.6438,90.7624
99.5789,90.8058
99.5024,90.8210
99.1024,90.8210
99.0259,90.8058
98.9610,90.7624
98.9176,90.6975
98.9024,90.6210
98.9024,90.0710
98.9176,89.9945
98.9610,89.9296
99.0259,89.8862
99.1024,89.8710
99.5024,89.8710
99.5789,89.8862
99.6438,89.9296
99.6872,89.9945
99.7024,90.0710
Z" /> 
<path style="fill:#000000; fill-opacity:1.0000; stroke:none;fill-rule:evenodd;"
d="M 98.0524,90.6210
98.0372,90.6975
97.9938,90.7624
97.9289,90.8058
97.8524,90.8210
97.4524,90.8210
97.3759,90.8058
97.3110,90.7624
97.2676,90.6975
97.2524,90.6210
97.2524,90.0710
97.2676,89.9945
97.3110,89.9296
97.3759,89.8862
97.4524,89.8710
97.8524,89.8710
97.9289,89.8862
97.9938,89.9296
98.0372,89.9945
98.0524,90.0710
Z" /> 
<path style="fill:#000000; fill-opacity:1.0000; stroke:none;fill-rule:evenodd;"
d="M 93.4270,76.2210
93.4118,76.2975
93.3684,76.3624
93.3035,76.4058
93.2270,76.4210
92.8270,76.4210
92.7505,76.4058
92.6856,76.3624
92.6422,76.2975
92.6270,76.2210
92.6270,75.6710
92.6422,75.5945
92.6856,75.5296
92.7505,75.4862
92.8270,75.4710
93.2270,75.4710
93.3035,75.4862
93.3684,75.5296
93.4118,75.5945
93.4270,75.6710
Z" /> 
<path style="fill:#000000; fill-opacity:1.0000; stroke:none;fill-rule:evenodd;"
d="M 91.7770,76.2210
91.7618,76.2975
91.7184,76.3624
91.6535,76.4058
91.5770,76.4210
91.1770,76.4210
91.1005,76.4058
91.0356,76.3624
90.9922,76.2975
90.9770,76.2210
90.9770,75.6710
90.9922,75.5945
91.0356,75.5296
91.1005,75.4862
91.1770,75.4710
91.5770,75.4710
91.6535,75.4862
91.7184,75.5296
91.7618,75.5945
91.7770,75.6710
Z" /> 
<path style="fill:#000000; fill-opacity:1.0000; stroke:none;fill-rule:evenodd;"
d="M 90.7884,92.3650
90.8036,92.2885
90.8470,92.2236
90.9119,92.1802
90.9884,92.1650
91.3884,92.1650
91.4649,92.1802
91.5298,92.2236
91.5732,92.2885
91.5884,92.3650
91.5884,92.9150
91.5732,92.9915
91.5298,93.0564
91.4649,93.0998
91.3884,93.1150
90.9884,93.1150
90.9119,93.0998
90.8470,93.0564
90.8036,92.9915
90.7884,92.9150
Z" /> 
<path style="fill:#000000; fill-opacity:1.0000; stroke:none;fill-rule:evenodd;"
d="M 92.4384,92.3650
92.4536,92.2885
92.4970,92.2236
92.5619,92.1802
92.6384,92.1650
93.0384,92.1650
93.1149,92.1802
93.1798,92.2236
93.2232,92.2885
93.2384,92.3650
93.2384,92.9150
93.2232,92.9915
93.1798,93.0564
93.1149,93.0998
93.0384,93.1150
92.6384,93.1150
92.5619,93.0998
92.4970,93.0564
92.4536,92.9915
92.4384,92.9150
Z" /> 
<path style="fill:#000000; fill-opacity:1.0000; stroke:none;fill-rule:evenodd;"
d="M 67.6121,83.3400
67.5189,83.3214
67.4398,83.2686
67.3870,83.1895
67.3684,83.0962
67.3684,82.6088
67.3870,82.5155
67.4398,82.4364
67.5189,82.3836
67.6121,82.3650
68.5246,82.3650
68.6179,82.3836
68.6970,82.4364
68.7498,82.5155
68.7684,82.6088
68.7684,83.0962
68.7498,83.1895
68.6970,83.2686
68.6179,83.3214
68.5246,83.3400
Z" /> 
<path style="fill:#000000; fill-opacity:1.0000; stroke:none;fill-rule:evenodd;"
d="M 67.6121,81.4650
67.5189,81.4464
67.4398,81.3936
67.3870,81.3145
67.3684,81.2212
67.3684,80.7338
67.3870,80.6405
67.4398,80.5614
67.5189,80.5086
67.6121,80.4900
68.5246,80.4900
68.6179,80.5086
68.6970,80.5614
68.7498,80.6405
68.7684,80.7338
68.7684,81.2212
68.7498,81.3145
68.6970,81.3936
68.6179,81.4464
68.5246,81.4650
Z" /> 
<path style="fill:#000000; fill-opacity:1.0000; stroke:none;fill-rule:evenodd;"
d="M 72.7900,58.4410
72.7748,58.5175
72.7314,58.5824
72.6665,58.6258
72.5900,58.6410
72.1900,58.6410
72.1135,58.6258
72.0486,58.5824
72.0052,58.5175
71.9900,58.4410
71.9900,57.8910
72.0052,57.8145
72.0486,57.7496
72.1135,57.7062
72.1900,57.6910
72.5900,57.6910
72.6665,57.7062
72.7314,57.7496
72.7748,57.8145
72.7900,57.8910
Z" /> 
<path style="fill:#000000; fill-opacity:1.0000; stroke:none;fill-rule:evenodd;"
d="M 71.1400,58.4410
71.1248,58.5175
71.0814,58.5824
71.0165,58.6258
70.9400,58.6410
70.5400,58.6410
70.4635,58.6258
70.3986,58.5824
70.3552,58.5175
70.3400,58.4410
70.3400,57.8910
70.3552,57.8145
70.3986,57.7496
70.4635,57.7062
70.5400,57.6910
70.9400,57.6910
71.0165,57.7062
71.0814,57.7496
71.1248,57.8145
71.1400,57.8910
Z" /> 
<path style="fill:#000000; fill-opacity:1.0000; stroke:none;fill-rule:evenodd;"
d="M 105.1790,56.4940
105.2364,56.5054
105.2851,56.5379
105.3176,56.5866
105.3290,56.6440
105.3290,58.2940
105.3176,58.3514
105.2851,58.4001
105.2364,58.4326
105.1790,58.4440
104.8790,58.4440
104.8216,58.4326
104.7729,58.4001
104.7404,58.3514
104.7290,58.2940
104.7290,56.6440
104.7404,56.5866
104.7729,56.5379
104.8216,56.5054
104.8790,56.4940
Z" /> 
<path style="fill:#000000; fill-opacity:1.0000; stroke:none;fill-rule:evenodd;"
d="M 103.9090,56.4940
103.9664,56.5054
104.0151,56.5379
104.0476,56.5866
104.0590,56.6440
104.0590,58.2940
104.0476,58.3514
104.0151,58.4001
103.9664,58.4326
103.9090,58.4440
103.6090,58.4440
103.5516,58.4326
103.5029,58.4001
103.4704,58.3514
103.4590,58.2940
103.4590,56.6440
103.4704,56.5866
103.5029,56.5379
103.5516,56.5054
103.6090,56.4940
Z" /> 
<path style="fill:#000000; fill-opacity:1.0000; stroke:none;fill-rule:evenodd;"
d="M 102.6390,56.4940
102.6964,56.5054
102.7451,56.5379
102.7776,56.5866
102.7890,56.6440
102.7890,58.2940
102.7776,58.3514
102.7451,58.4001
102.6964,58.4326
102.6390,58.4440
102.3390,58.4440
102.2816,58.4326
102.2329,58.4001
102.2004,58.3514
102.1890,58.2940
102.1890,56.6440
102.2004,56.5866
102.2329,56.5379
102.2816,56.5054
102.3390,56.4940
Z" /> 
<path style="fill:#000000; fill-opacity:1.0000; stroke:none;fill-rule:evenodd;"
d="M 101.3690,56.4940
101.4264,56.5054
101.4751,56.5379
101.5076,56.5866
101.5190,56.6440
101.5190,58.2940
101.5076,58.3514
101.4751,58.4001
101.4264,58.4326
101.3690,58.4440
101.0690,58.4440
101.0116,58.4326
100.9629,58.4001
100.9304,58.3514
100.9190,58.2940
100.9190,56.6440
100.9304,56.5866
100.9629,56.5379
101.0116,56.5054
101.0690,56.4940
Z" /> 
<path style="fill:#000000; fill-opacity:1.0000; stroke:none;fill-rule:evenodd;"
d="M 101.3690,61.4440
101.4264,61.4554
101.4751,61.4879
101.5076,61.5366
101.5190,61.5940
101.5190,63.2440
101.5076,63.3014
101.4751,63.3501
101.4264,63.3826
101.3690,63.3940
101.0690,63.3940
101.0116,63.3826
100.9629,63.3501
100.9304,63.3014
100.9190,63.2440
100.9190,61.5940
100.9304,61.5366
100.9629,61.4879
101.0116,61.4554
101.0690,61.4440
Z" /> 
<path style="fill:#000000; fill-opacity:1.0000; stroke:none;fill-rule:evenodd;"
d="M 102.6390,61.4440
102.6964,61.4554
102.7451,61.4879
102.7776,61.5366
102.7890,61.5940
102.7890,63.2440
102.7776,63.3014
102.7451,63.3501
102.6964,63.3826
102.6390,63.3940
102.3390,63.3940
102.2816,63.3826
102.2329,63.3501
102.2004,63.3014
102.1890,63.2440
102.1890,61.5940
102.2004,61.5366
102.2329,61.4879
102.2816,61.4554
102.3390,61.4440
Z" /> 
<path style="fill:#000000; fill-opacity:1.0000; stroke:none;fill-rule:evenodd;"
d="M 103.9090,61.4440
103.9664,61.4554
104.0151,61.4879
104.0476,61.5366
104.0590,61.5940
104.0590,63.2440
104.0476,63.3014
104.0151,63.3501
103.9664,63.3826
103.9090,63.3940
103.6090,63.3940
103.5516,63.3826
103.5029,63.3501
103.4704,63.3014
103.4590,63.2440
103.4590,61.5940
103.4704,61.5366
103.5029,61.4879
103.5516,61.4554
103.6090,61.4440
Z" /> 
<path style="fill:#000000; fill-opacity:1.0000; stroke:none;fill-rule:evenodd;"
d="M 105.1790,61.4440
105.2364,61.4554
105.2851,61.4879
105.3176,61.5366
105.3290,61.5940
105.3290,63.2440
105.3176,63.3014
105.2851,63.3501
105.2364,63.3826
105.1790,63.3940
104.8790,63.3940
104.8216,63.3826
104.7729,63.3501
104.7404,63.3014
104.7290,63.2440
104.7290,61.5940
104.7404,61.5366
104.7729,61.4879
104.8216,61.4554
104.8790,61.4440
Z" /> 
<path style="fill:#000000; fill-opacity:1.0000; stroke:none;fill-rule:evenodd;"
d="M 84.5878,78.9392
84.5707,79.0253
84.5219,79.0983
84.4489,79.1471
84.3628,79.1642
83.9128,79.1642
83.8267,79.1471
83.7537,79.0983
83.7049,79.0253
83.6878,78.9392
83.6878,78.4392
83.7049,78.3531
83.7537,78.2801
83.8267,78.2313
83.9128,78.2142
84.3628,78.2142
84.4489,78.2313
84.5219,78.2801
84.5707,78.3531
84.5878,78.4392
Z" /> 
<path style="fill:#000000; fill-opacity:1.0000; stroke:none;fill-rule:evenodd;"
d="M 83.0378,78.9392
83.0207,79.0253
82.9719,79.0983
82.8989,79.1471
82.8128,79.1642
82.3628,79.1642
82.2767,79.1471
82.2037,79.0983
82.1549,79.0253
82.1378,78.9392
82.1378,78.4392
82.1549,78.3531
82.2037,78.2801
82.2767,78.2313
82.3628,78.2142
82.8128,78.2142
82.8989,78.2313
82.9719,78.2801
83.0207,78.3531
83.0378,78.4392
Z" /> 
<path style="fill:#000000; fill-opacity:1.0000; stroke:none;fill-rule:evenodd;"
d="M 65.2990,77.5150
65.3755,77.5302
65.4404,77.5736
65.4838,77.6385
65.4990,77.7150
65.4990,78.1150
65.4838,78.1915
65.4404,78.2564
65.3755,78.2998
65.2990,78.3150
64.7490,78.3150
64.6725,78.2998
64.6076,78.2564
64.5642,78.1915
64.5490,78.1150
64.5490,77.7150
64.5642,77.6385
64.6076,77.5736
64.6725,77.5302
64.7490,77.5150
Z" /> 
<path style="fill:#000000; fill-opacity:1.0000; stroke:none;fill-rule:evenodd;"
d="M 65.2990,79.1650
65.3755,79.1802
65.4404,79.2236
65.4838,79.2885
65.4990,79.3650
65.4990,79.7650
65.4838,79.8415
65.4404,79.9064
65.3755,79.9498
65.2990,79.9650
64.7490,79.9650
64.6725,79.9498
64.6076,79.9064
64.5642,79.8415
64.5490,79.7650
64.5490,79.3650
64.5642,79.2885
64.6076,79.2236
64.6725,79.1802
64.7490,79.1650
Z" /> 
<path style="fill:#000000; fill-opacity:1.0000; stroke:none;fill-rule:evenodd;"
d="M 90.6344,81.6904
90.6515,81.6043
90.7003,81.5313
90.7733,81.4825
90.8594,81.4654
91.3094,81.4654
91.3955,81.4825
91.4685,81.5313
91.5173,81.6043
91.5344,81.6904
91.5344,82.1904
91.5173,82.2765
91.4685,82.3495
91.3955,82.3983
91.3094,82.4154
90.8594,82.4154
90.7733,82.3983
90.7003,82.3495
90.6515,82.2765
90.6344,82.1904
Z" /> 
<path style="fill:#000000; fill-opacity:1.0000; stroke:none;fill-rule:evenodd;"
d="M 92.1844,81.6904
92.2015,81.6043
92.2503,81.5313
92.3233,81.4825
92.4094,81.4654
92.8594,81.4654
92.9455,81.4825
93.0185,81.5313
93.0673,81.6043
93.0844,81.6904
93.0844,82.1904
93.0673,82.2765
93.0185,82.3495
92.9455,82.3983
92.8594,82.4154
92.4094,82.4154
92.3233,82.3983
92.2503,82.3495
92.2015,82.2765
92.1844,82.1904
Z" /> 
<path style="fill:#000000; fill-opacity:1.0000; stroke:none;fill-rule:evenodd;"
d="M 101.0368,67.6598
101.1133,67.6750
101.1782,67.7184
101.2216,67.7833
101.2368,67.8598
101.2368,68.2598
101.2216,68.3363
101.1782,68.4012
101.1133,68.4446
101.0368,68.4598
100.4868,68.4598
100.4103,68.4446
100.3454,68.4012
100.3020,68.3363
100.2868,68.2598
100.2868,67.8598
100.3020,67.7833
100.3454,67.7184
100.4103,67.6750
100.4868,67.6598
Z" /> 
<path style="fill:#000000; fill-opacity:1.0000; stroke:none;fill-rule:evenodd;"
d="M 101.0368,69.3098
101.1133,69.3250
101.1782,69.3684
101.2216,69.4333
101.2368,69.5098
101.2368,69.9098
101.2216,69.9863
101.1782,70.0512
101.1133,70.0946
101.0368,70.1098
100.4868,70.1098
100.4103,70.0946
100.3454,70.0512
100.3020,69.9863
100.2868,69.9098
100.2868,69.5098
100.3020,69.4333
100.3454,69.3684
100.4103,69.3250
100.4868,69.3098
Z" /> 
<path style="fill:#000000; fill-opacity:1.0000; stroke:none;fill-rule:evenodd;"
d="M 65.2750,86.0880
65.3515,86.1032
65.4164,86.1466
65.4598,86.2115
65.4750,86.2880
65.4750,86.6880
65.4598,86.7645
65.4164,86.8294
65.3515,86.8728
65.2750,86.8880
64.7250,86.8880
64.6485,86.8728
64.5836,86.8294
64.5402,86.7645
64.5250,86.6880
64.5250,86.2880
64.5402,86.2115
64.5836,86.1466
64.6485,86.1032
64.7250,86.0880
Z" /> 
<path style="fill:#000000; fill-opacity:1.0000; stroke:none;fill-rule:evenodd;"
d="M 65.2750,87.7380
65.3515,87.7532
65.4164,87.7966
65.4598,87.8615
65.4750,87.9380
65.4750,88.3380
65.4598,88.4145
65.4164,88.4794
65.3515,88.5228
65.2750,88.5380
64.7250,88.5380
64.6485,88.5228
64.5836,88.4794
64.5402,88.4145
64.5250,88.3380
64.5250,87.9380
64.5402,87.8615
64.5836,87.7966
64.6485,87.7532
64.7250,87.7380
Z" /> 
<path style="fill:#000000; fill-opacity:1.0000; stroke:none;fill-rule:evenodd;"
d="M 89.3616,86.6838
89.2851,86.6686
89.2202,86.6252
89.1768,86.5603
89.1616,86.4838
89.1616,86.0838
89.1768,86.0073
89.2202,85.9424
89.2851,85.8990
89.3616,85.8838
89.9116,85.8838
89.9881,85.8990
90.0530,85.9424
90.0964,86.0073
90.1116,86.0838
90.1116,86.4838
90.0964,86.5603
90.0530,86.6252
89.9881,86.6686
89.9116,86.6838
Z" /> 
<path style="fill:#000000; fill-opacity:1.0000; stroke:none;fill-rule:evenodd;"
d="M 89.3616,85.0338
89.2851,85.0186
89.2202,84.9752
89.1768,84.9103
89.1616,84.8338
89.1616,84.4338
89.1768,84.3573
89.2202,84.2924
89.2851,84.2490
89.3616,84.2338
89.9116,84.2338
89.9881,84.2490
90.0530,84.2924
90.0964,84.3573
90.1116,84.4338
90.1116,84.8338
90.0964,84.9103
90.0530,84.9752
89.9881,85.0186
89.9116,85.0338
Z" /> 
<path style="fill:#000000; fill-opacity:1.0000; stroke:none;fill-rule:evenodd;"
d="M 93.4249,78.5070
93.4097,78.5835
93.3663,78.6484
93.3014,78.6918
93.2249,78.7070
92.8249,78.7070
92.7484,78.6918
92.6835,78.6484
92.6401,78.5835
92.6249,78.5070
92.6249,77.9570
92.6401,77.8805
92.6835,77.8156
92.7484,77.7722
92.8249,77.7570
93.2249,77.7570
93.3014,77.7722
93.3663,77.8156
93.4097,77.8805
93.4249,77.9570
Z" /> 
<path style="fill:#000000; fill-opacity:1.0000; stroke:none;fill-rule:evenodd;"
d="M 91.7749,78.5070
91.7597,78.5835
91.7163,78.6484
91.6514,78.6918
91.5749,78.7070
91.1749,78.7070
91.0984,78.6918
91.0335,78.6484
90.9901,78.5835
90.9749,78.5070
90.9749,77.9570
90.9901,77.8805
91.0335,77.8156
91.0984,77.7722
91.1749,77.7570
91.5749,77.7570
91.6514,77.7722
91.7163,77.8156
91.7597,77.8805
91.7749,77.9570
Z" /> 
</g> 
</svg>
